<?xml version="1.0" encoding="UTF-8" standalone="no"?>
<svg
   xmlns:dc="http://purl.org/dc/elements/1.1/"
   xmlns:cc="http://creativecommons.org/ns#"
   xmlns:rdf="http://www.w3.org/1999/02/22-rdf-syntax-ns#"
   xmlns:svg="http://www.w3.org/2000/svg"
   xmlns="http://www.w3.org/2000/svg"
   xmlns:sodipodi="http://sodipodi.sourceforge.net/DTD/sodipodi-0.dtd"
   xmlns:inkscape="http://www.inkscape.org/namespaces/inkscape"
   width="210mm"
   height="297mm"
   viewBox="0 0 210 297"
   version="1.1"
   id="svg8"
   inkscape:version="1.0.1 (3bc2e813f5, 2020-09-07)"
   sodipodi:docname="analizadores-sintacticos-monadicos.svg">
  <defs
     id="defs2" />
  <sodipodi:namedview
     id="base"
     pagecolor="#ffffff"
     bordercolor="#666666"
     borderopacity="1.0"
     inkscape:pageopacity="0.0"
     inkscape:pageshadow="2"
     inkscape:zoom="1.4"
     inkscape:cx="455.08822"
     inkscape:cy="124.13707"
     inkscape:document-units="mm"
     inkscape:current-layer="layer1"
     inkscape:document-rotation="0"
     showgrid="false"
     inkscape:window-width="1920"
     inkscape:window-height="1001"
     inkscape:window-x="-9"
     inkscape:window-y="-9"
     inkscape:window-maximized="1" />
  <metadata
     id="metadata5">
    <rdf:RDF>
      <cc:Work
         rdf:about="">
        <dc:format>image/svg+xml</dc:format>
        <dc:type
           rdf:resource="http://purl.org/dc/dcmitype/StillImage" />
        <dc:title></dc:title>
      </cc:Work>
    </rdf:RDF>
  </metadata>
  <g
     inkscape:label="Capa 1"
     inkscape:groupmode="layer"
     id="layer1">
    <path
       style="fill:#ff7f2a;stroke:none;stroke-width:0.5;stroke-linecap:butt;stroke-linejoin:miter;stroke-miterlimit:4;stroke-dasharray:none;stroke-opacity:1"
       d="m 61.638715,57.025714 c -0.101713,-0.166177 -0.935568,-1.485624 -1.033169,-1.698233 -0.0501,-0.109123 -0.200372,-0.218247 -0.150278,-0.327371 0.05754,-0.125348 0.133899,-0.06401 0.225418,-0.163685 0.11026,-0.120094 0.586682,-0.662604 0.751399,-0.572898 0.120641,0.0657 0.25506,0.09798 0.375701,0.163685 0.07704,0.04196 0.718662,0.412299 0.819991,0.191564 0.08659,-0.188649 0.509627,-1.148733 0.532526,-1.173675 0.06734,-0.07335 0.516666,0 0.601119,0 0.157271,0 0.562008,-0.04259 0.67626,0.08184 0.235024,0.25599 -0.325221,2.498133 0.07941,2.718495 0.110025,0.05992 0.657431,-0.881638 0.7847,-1.020261 0.980856,-0.699498 1.057122,-1.070971 1.615508,-0.143225 0.06755,0.110365 -0.07024,0.139957 0.07514,0.245529 0.0129,0.0094 0.912447,0.459413 0.891151,0.529009 -0.118373,0.386796 -0.920675,0.59932 -1.161539,0.749234 -0.02499,0.01556 -0.976464,0.162526 -0.931848,0.194922 0.489655,0.355557 2.40489,0.0823 2.554756,0.245528 0.08189,0.0892 -0.07075,0.626081 -0.07515,0.65474 -0.03103,0.202815 0.08724,0.628387 0,0.818426 -0.159028,0.346431 -1.452415,0 -1.803356,0 -0.05092,0 -0.826539,0.0595 -0.826539,-0.08184 0,-0.208737 0.124144,0.234851 0.469624,0.736583 0.03006,0.04365 0.341074,0.193764 0.356915,0.245526 0.08381,0.273862 0.431591,0.264468 0.525978,0.572898 0.07153,0.233729 -0.50749,1.342409 -0.732611,1.309482 -0.260056,-0.03804 -1.355122,-0.996849 -1.653079,-1.125334 -0.06986,-0.03013 -0.169061,-0.26599 -0.244205,-0.26599 -0.06144,0 0.654658,1.164881 0.590588,1.304442 -0.06993,0.152325 -2.237668,0.171252 -2.312543,0.04893 -0.03518,-0.05748 0.165073,-1.774049 -0.0063,-1.68074 -0.532513,0.290006 -0.296221,2.019736 -0.967995,1.836812 -0.0613,-0.01671 -1.756424,-1.549061 -1.73704,-1.591283 0.08336,-0.181616 0.630164,-0.686381 0.751396,-0.818427 0.08855,-0.09645 0.337433,-0.266369 0.22542,-0.32737 -0.208063,-0.113312 -0.67027,0.04201 -0.901677,0 -0.194081,-0.03523 -0.97937,0.153717 -1.168084,0.0852 -0.28918,-0.104992 -0.06859,-1.634309 -0.06859,-1.967581 0,-0.190965 0.610513,0 0.785838,0 0.419236,0 1.775711,-0.111957 2.085133,0.225068"
       id="path1000"
       sodipodi:nodetypes="cssssssssssccssssscssssssssssssssssssssc" />
    <path
       style="fill:#ffdd55;stroke:none;stroke-width:0.43677;stroke-linecap:butt;stroke-linejoin:miter;stroke-miterlimit:4;stroke-dasharray:none;stroke-opacity:1"
       d="m 124.38179,55.580622 -2.50719,-0.664763 h -1.69467 -1.46871 c -0.872,0 -5.38876,-0.319797 -6.2138,0.120618 -0.4939,0.263648 -0.48016,1.03365 -0.48016,1.568026 0,0.238022 0.072,0.606104 0.16947,0.814167 0.13555,0.289426 -0.0383,0.491162 0.0847,0.753859 0.14825,0.316551 0.0209,1.102458 0.33893,1.206174 1.36472,0.445069 9.00853,-1.588555 9.15123,0.482471 0.0236,0.342267 1.48793,-0.220718 1.69467,0 0.56746,0.605825 -0.3083,3.61852 0.67787,3.61852 0.11298,0 0.25071,0.07535 0.33894,0 0.14703,-0.125581 0.69411,-0.335469 0.84733,-0.452315 0.4997,-0.381059 1.35609,-0.814538 1.75116,-1.236326 0.59345,-0.633579 0.86354,-1.784505 1.62957,-2.275201 0.66601,-0.417944 0.96623,-0.401944 2.6636,-0.98147 0.0299,-0.03193 -0.19546,-0.779096 -0.19546,-0.828761 0,-0.782959 -0.36728,-0.955458 -0.84959,-1.161426 -1.03501,-0.597428 -1.22708,-1.074473 -2.23131,-1.628336 -4.31694,-4.809277 -4.862,-4.703718 -3.70662,0.664763 z"
       id="path994"
       sodipodi:nodetypes="cccssssssssssssccsccc"
       inkscape:export-xdpi="66.851463"
       inkscape:export-ydpi="66.851463" />
    <path
       style="fill:none;stroke:#ffdd55;stroke-width:2;stroke-linecap:butt;stroke-linejoin:miter;stroke-miterlimit:4;stroke-dasharray:none;stroke-opacity:1"
       d="m 171.75084,19.471351 c 2.36987,1.07835 3.90808,3.54844 5.95313,5.10268 1.25135,0.95103 2.79684,1.96351 3.96875,3.02381 0.16843,0.15238 0.21107,0.4129 0.37797,0.56696 0.25035,0.23109 0.58255,0.35647 0.85045,0.56696 0.45044,0.35392 0.79689,0.85083 1.22842,1.22843 1.06689,0.93352 2.27867,1.99158 3.40179,2.74032 0.39311,0.26208 0.50798,0.88596 0.85044,1.22842 0.21362,0.21361 0.58889,0.49439 0.75596,0.66145"
       id="path956"
       inkscape:export-xdpi="66.851463"
       inkscape:export-ydpi="66.851463" />
    <path
       style="fill:none;stroke:#ffdd55;stroke-width:2;stroke-linecap:butt;stroke-linejoin:miter;stroke-miterlimit:4;stroke-dasharray:none;stroke-opacity:1"
       d="m 165.13626,21.833701 c -0.34648,0.34648 -0.72771,0.66138 -1.03944,1.03943 -2.51924,3.05525 -3.24575,4.11313 -5.29166,6.99256 -0.9811,1.38081 -1.70069,2.26704 -2.07887,3.77975 0.0148,-1.14288 -0.0945,-2.25927 -0.0945,-3.40177"
       id="path958"
       inkscape:export-xdpi="66.851463"
       inkscape:export-ydpi="66.851463" />
    <path
       style="fill:none;stroke:#ffdd55;stroke-width:2;stroke-linecap:butt;stroke-linejoin:miter;stroke-miterlimit:4;stroke-dasharray:none;stroke-opacity:1"
       d="m 156.72629,33.645441 c 0.96785,0.20794 1.8889,-0.37796 2.83482,-0.37796"
       id="path960"
       inkscape:export-xdpi="66.851463"
       inkscape:export-ydpi="66.851463" />
    <path
       style="fill:none;stroke:#ffdd55;stroke-width:2;stroke-linecap:butt;stroke-linejoin:miter;stroke-miterlimit:4;stroke-dasharray:none;stroke-opacity:1"
       d="m 188.85427,32.039051 c 0,0.92547 0.61233,1.86354 0.28348,2.55133 -0.75122,0.12513 -1.51053,0.0945 -2.26786,0.0945"
       id="path962"
       inkscape:export-xdpi="66.851463"
       inkscape:export-ydpi="66.851463" />
    <path
       style="fill:none;stroke:#ffdd55;stroke-width:2;stroke-linecap:butt;stroke-linejoin:miter;stroke-miterlimit:4;stroke-dasharray:none;stroke-opacity:1"
       d="m 193.29548,50.559882 c -0.31497,0.59846 -0.62615,1.19894 -0.94494,1.79539 -3.07788,5.75862 -0.76436,1.66476 -3.68526,6.2366 -0.58953,0.92274 -1.37332,2.69623 -2.07887,3.40179 -0.10171,-0.76912 0.13794,-2.31891 -0.47247,-2.92932"
       id="path964"
       inkscape:export-xdpi="66.851463"
       inkscape:export-ydpi="66.851463" />
    <path
       style="fill:none;stroke:#ffdd55;stroke-width:2;stroke-linecap:butt;stroke-linejoin:miter;stroke-miterlimit:4;stroke-dasharray:none;stroke-opacity:1"
       d="m 186.58641,61.993662 c 0.77366,-0.0361 2.03795,0.1354 2.64583,-0.47247"
       id="path966"
       inkscape:export-xdpi="66.851463"
       inkscape:export-ydpi="66.851463" />
    <path
       style="fill:none;stroke:#ffdd55;stroke-width:2;stroke-linecap:butt;stroke-linejoin:miter;stroke-miterlimit:4;stroke-dasharray:none;stroke-opacity:1"
       d="m 200.38254,48.858992 c 0.75595,0.22048 1.54995,0.33789 2.26785,0.66145 2.97218,1.33957 5.41655,2.973 8.032,4.8192 0.46952,0.33142 1.0842,0.90205 1.6064,1.22842 0.55099,0.34437 0.90723,0.75129 1.41741,1.13393 0.11269,0.0845 0.27837,0.0894 0.37798,0.18899 0.32991,0.32991 0.29402,0.39378 0.47247,0.66146 0.2114,0.31709 0.5858,0.49131 0.85045,0.75595 -0.36992,-0.55743 0.41774,-2.1336 -0.0945,-2.64583"
       id="path968"
       inkscape:export-xdpi="66.851463"
       inkscape:export-ydpi="66.851463" />
    <path
       style="fill:none;stroke:#ffdd55;stroke-width:2;stroke-linecap:butt;stroke-linejoin:miter;stroke-miterlimit:4;stroke-dasharray:none;stroke-opacity:1"
       d="m 215.4071,58.308392 c -1.24802,-0.19718 -2.52023,-0.0945 -3.77977,-0.0945"
       id="path970"
       inkscape:export-xdpi="66.851463"
       inkscape:export-ydpi="66.851463" />
    <path
       style="fill:#ff7f2a;stroke:none;stroke-width:0.5;stroke-linecap:butt;stroke-linejoin:miter;stroke-miterlimit:4;stroke-dasharray:none;stroke-opacity:1"
       d="m -2.9631757,51.306667 c -0.94255,-0.0936 -1.33221,-1.15252 -1.70089,-1.88988 -0.22288,-0.44576 -0.43709,-0.87417 -0.66146,-1.32292 -0.1498,-0.29961 -0.50483,-2.0465 -0.28348,-2.26786 0.17986,-0.17986 0.8927,-0.0945 1.13393,-0.0945 0.117,0 0.72473,-0.0838 0.85044,0 0.71803,0.47869 1.62311,2.88494 1.88989,3.68527 0.0498,0.1494 -0.0382,0.31968 0,0.47247 0.0705,0.28186 0.38988,0.72021 0.28348,1.03943 -0.0639,0.1918 -1.28661,0.37798 -1.51191,0.37798 z"
       id="path913"
       inkscape:export-xdpi="66.851463"
       inkscape:export-ydpi="66.851463" />
    <path
       style="fill:#ff7f2a;stroke:none;stroke-width:0.5;stroke-linecap:butt;stroke-linejoin:miter;stroke-miterlimit:4;stroke-dasharray:none;stroke-opacity:1"
       d="m 4.2891243,51.903267 c -2.02761,-1.14053 -1.20265,-0.38427 -2.55134,-2.36235 -0.0324,-0.0475 -0.81115001,-1.54373 -0.85044001,-1.70089 -0.0516,-0.20656 -0.53764,-1.06876 -0.28349,-1.32292 0.19739,-0.19738 1.74576001,-0.0496 1.88989001,0.0945 0.22469,0.22469 0.39379,0.39379 0.66145,0.66145 0.30312,0.30312 1.22219,2.00133 1.41741,2.45685 0.0877,0.20471 -0.0291,0.47614 0.0945,0.66146 0.21599,0.32398 0.19349,-0.16649 0.28349,0.28348 0.0264,0.13222 0.067,0.81097 0,0.94494 -0.10728,0.21456 -0.44691,0.1762 -0.66146,0.28348 z"
       id="path911"
       inkscape:export-xdpi="66.851463"
       inkscape:export-ydpi="66.851463" />
    <path
       style="fill:#ff7f2a;stroke:none;stroke-width:0.5;stroke-linecap:butt;stroke-linejoin:miter;stroke-miterlimit:4;stroke-dasharray:none;stroke-opacity:1"
       d="m 73.277437,47.960227 c 0.73585,-0.0256 1.4576,-0.29377 2.17337,-0.37797 1.31238,-0.1544 2.73705,0 4.06324,0 0.88728,0 1.95847,-0.17527 2.83482,0 0.35045,0.0701 0.62963,0.33733 0.94494,0.47247 1.13484,0.48636 1.57975,1.22235 2.14974,2.36235 0.50656,1.0131 1.09693,1.9942 0.68508,3.02381 -0.18899,0.47247 -0.14174,0 -0.28348,0.28348 -0.36516,0.73032 -0.71302,1.58493 -1.51191,1.98437 -0.82224,0.41112 -1.58947,0.60263 -2.45684,0.85045 -0.29423,0.0841 -0.56476,0.18825 -0.85045,0.28348 -0.0598,0.0199 -0.25198,0 -0.18899,0 2.95111,0 4.06887,-0.16527 5.9474,2.33942 0.41984,0.55979 1.34416,1.99548 1.34416,2.65255 0,2.83288 -1.9487,4.15689 -4.55123,5.0244 -1.78604,0.59535 -3.98261,0.28348 -5.85863,0.28348 -0.55376,0 -2.26036,0.19274 -2.64583,0 -0.34354,-0.17176 -0.048,-0.66291 -0.23624,-1.03943 -0.13373,-0.26746 -0.85594,-1.35017 -0.51972,-1.41741 2.5184,-0.50368 4.53129,0.45561 6.92002,-0.73876 0.39047,-0.19524 2.3829,-0.12634 2.3829,-0.74211 0,-0.31304 0.41759,-1.55919 0.28111,-1.83216 -0.34977,-0.69954 -2.35557,-1.9053 -3.15843,-2.26212 -0.86269,-0.38342 -4.2685,0.14756 -4.48847,-0.73233 -0.0751,-0.30047 0.0135,-2.19523 -0.0236,-2.50409 -0.27209,-2.26446 2.85977,0.55349 5.17355,-2.62221 0.26756,-0.36723 0.35647,-0.5391 0.0473,-1.15755 -0.23893,-0.47786 -0.84095,-1.27064 -1.29761,-1.57508 -0.32736,-0.21824 -4.0133,-0.60751 -4.74092,-0.46199 -0.22293,0.0446 -1.14942,1.002 -1.38736,0.76406 -0.37248,-0.37248 -0.8882,-2.44005 -0.74784,-2.86111 z"
       id="path883"
       sodipodi:nodetypes="ssssssssssssssssssssssssssssssss"
       inkscape:export-xdpi="66.851463"
       inkscape:export-ydpi="66.851463" />
    <path
       style="fill:#ff7f2a;stroke:none;stroke-width:0.5;stroke-linecap:butt;stroke-linejoin:miter;stroke-miterlimit:4;stroke-dasharray:none;stroke-opacity:1"
       d="m 42.196795,55.510237 c 0.04537,-0.9052 -0.114863,-1.8135 -0.0494,-2.71692 0.08086,-1.1159 0.741261,-3.26058 1.630146,-4.14947 0.471008,-0.471 1.140601,-0.48145 1.728946,-0.69158 0.10403,-0.0371 0.18838,-0.12505 0.29639,-0.14819 0.69683,-0.14932 2.61724,0.40906 3.32906,0.66791 0.55211,0.20077 1.20768,0.58619 1.72249,0.8634 1.11013,0.59776 1.5707,1.46689 1.66664,2.61816 0.0871,1.04546 0.15473,2.23968 -0.0494,3.2603 -0.10049,0.50247 -0.48061,2.153 -0.84196,2.5472 -0.32766,0.35744 -1.16263,0.39893 -1.52916,0.71309 -0.76695,0.65739 -2.44373,2.08505 -3.3097,2.46993 -0.0767,0.0341 -0.17189,0.0118 -0.24699,0.0494 -0.34688,0.17344 -0.65723,0.52048 -0.98797,0.74098 -0.14854,0.099 -0.251073,0.24971 -0.395185,0.34578 -0.658141,0.43877 -1.580754,0.96222 -1.580754,1.87715 0,0.0663 -0.04335,0.40123 0.0494,0.49398 0.211718,0.21172 1.244402,0.0235 1.432556,0 1.621613,-0.2027 3.302363,-0.0988 4.939843,-0.0988 h 2.07473 c 0.2988,0 0.12435,-0.59728 0.42101,-0.54334 0.60273,0.10958 1.04304,2.01044 0.84623,2.60086 -0.07,0.20988 -0.42707,0.30644 -0.62505,0.363 -0.80589,0.23026 -1.58115,0.49403 -2.42053,0.59278 -0.49428,0.0582 -1.08679,0 -1.58075,0 h -3.1615 c -0.315053,0 -0.835561,-0.0859 -1.136166,0 -0.427286,0.12209 -1.459356,0.2156 -1.926538,0.0988 -0.163468,-0.0409 0.177814,-0.50417 0.05366,-0.60349 -0.628022,-0.50242 -0.633441,-0.97671 -0.844076,-1.71393 -0.10425,-0.36487 -0.684349,-1.51141 -0.592741,-1.83205 0.04046,-0.14161 0.142893,-0.25844 0.197594,-0.39518 0.13873,-0.34684 0.224456,-0.75311 0.345788,-1.08677 0.19698,-0.5417 0.509302,-1.81715 0.985858,-2.13485 0.341485,-0.22766 1.436293,-1.26069 1.703171,-1.56569 0.657028,-0.75089 2.10895,-0.90998 2.646,-1.78269 0.23285,-0.37837 0.90208,-0.90982 1.13617,-1.28436 0.20658,-0.33054 0.0215,-0.9192 0.19979,-1.27575 0.16072,-0.32144 0.88641,-1.33843 0.93637,-1.68816 0.0841,-0.58899 -1.0126,-0.42746 -1.77189,-0.42746 -0.18549,0 -0.27047,-0.74482 -0.45104,-0.7087 -0.3122,0.0624 -1.29032,0.11669 -1.38315,0.39519 -0.10806,0.32415 -0.24826,1.30504 -0.345795,1.63015 -0.245737,0.81911 0.05357,2.31755 -0.543382,2.91451 -0.126587,0.12658 -1.417659,0.15192 -1.63015,0.0988 -0.33943,-0.0849 -0.635851,-0.34263 -0.93857,-0.49399 z"
       id="path879"
       sodipodi:nodetypes="csssssssssssssssscssssssssssssscssssssssssssscc"
       inkscape:export-xdpi="66.851463"
       inkscape:export-ydpi="66.851463" />
    <path
       style="fill:#ff7f2a;stroke:none;stroke-width:0.5;stroke-linecap:butt;stroke-linejoin:miter;stroke-miterlimit:4;stroke-dasharray:none;stroke-opacity:1"
       d="m 28.776824,57.907047 h -1.86547 c -0.21165,0 -2.48095,-0.43839 -2.69628,-0.33073 -0.1989,0.0994 -0.12226,2.64745 0.0367,2.80642 0.17061,0.17061 0.90174,-0.31704 1.18006,-0.22426 0.25915,0.0864 0.50519,-0.005 0.77192,0.12865 0.39292,0.19646 2.06678,-0.24481 2.31575,0.12865 0.1239,0.18585 0.0643,0.54037 0.0643,0.77192 0,0.57197 0.31853,2.56512 0.77048,2.7911 0.26279,0.13139 0.26747,0.6182 0.58038,0.6182 0.1168,0 0.75891,0.0773 0.83624,0 0.35651,-0.3565 0.359,-1.61429 0.25731,-2.12277 -0.017,-0.0853 -0.19024,-0.24907 -0.19298,-0.25731 -0.0901,-0.27022 -0.53521,-1.69563 -0.38596,-1.99412 0.0788,-0.15753 0.56304,-0.0643 0.70759,-0.0643 0.423851,0 1.219181,0.15559 1.608161,0 0.13355,-0.0534 0.2495,-0.14749 0.38596,-0.19298 0.52675,-0.17558 1.25924,0.5154 1.84695,-0.0723 0.1564,-0.1564 -0.56849,-1.26654 -0.62475,-1.4072 -0.0936,-0.23391 -0.14485,-0.11952 -0.38596,-0.2573 -0.079,-0.0451 -0.16124,0.301 -0.24022,0.25587 -0.24392,-0.13938 -0.26402,-0.45365 -0.53169,-0.51318 -0.25971,-0.0577 -0.63533,0.20768 -0.91366,0.16792 -0.27991,-0.04 -1.333931,-0.46653 -1.402101,-0.87551 -0.11524,-0.69145 0.756961,-3.77205 -0.0487,-4.0406 -0.18621,-0.0621 -2.82533,0.0963 -2.87728,0.14828 -0.2498,0.24981 1.12483,3.24596 1.12483,3.76366 0,0.50217 0.19741,0.77192 -0.32163,0.77192 z"
       id="path877"
       sodipodi:nodetypes="csssscsssscsssssssssscssssscc"
       inkscape:export-xdpi="66.851463"
       inkscape:export-ydpi="66.851463" />
    <path
       style="fill:#ff7f2a;stroke:none;stroke-width:0.5;stroke-linecap:butt;stroke-linejoin:miter;stroke-miterlimit:4;stroke-dasharray:none;stroke-opacity:1"
       d="m 8.5758343,55.616507 c 0.13972,-0.11643 0.30273,-0.20958 0.41916,-0.3493 0.12019,-0.14423 0.1753,-0.33281 0.27944,-0.48902 0.71276,-1.06914 1.4802397,-2.0666 2.1656597,-3.1437 0.43179,-0.67852 1.06769,-0.15417 1.70092,-1.8475 0.24454,-0.65391 0.69376,-1.59507 1.16334,-2.06465 0.43996,-0.43997 2.02113,-0.62874 2.65468,-0.62874 0.16276,0 0.54826,0.36367 0.6523,0.46772 0.24605,0.1739 0.6322,0.28393 0.75629,0.58393 0.14728,0.22092 0.4371,0.22422 0.55584,0.4617 0.1366,0.2732 0.0228,0.50176 0.0615,0.79202 0.0351,0.26318 0.18026,0.50458 0.20958,0.76846 0.0256,0.23054 -0.0213,0.53366 0,0.76846 0.0515,0.56634 0.20066,1.12516 0.27944,1.67664 0.071,0.49717 -0.0385,1.03592 0,1.53692 0.0713,0.92745 0.0699,1.85811 0.0699,2.7944 0,0.55114 0.0797,1.06671 0.13972,1.60678 0.12528,1.12762 0.59882,2.32626 0.70157,3.45655 0.12724,1.3996 0.20958,2.77641 0.20958,4.1916 0,0.77522 -0.77743,1.97722 -1.26045,2.62127 -0.41029,0.54705 -3.47707,0.6385 -3.63272,-0.13972 -0.0685,-0.3424 -0.24099,-0.7019 -0.27944,-1.0479 -0.0525,-0.47218 -0.66817,-0.72491 -0.66817,-1.19979 0,-2.26201 0.54148,-3.81583 0.0577,-5.99287 -0.0878,-0.39492 0.4009,-2.38864 0.4009,-2.79732 0,-1.26623 -0.034,-2.40555 -0.27944,-3.63272 -0.0183,-0.0913 0.0417,-0.19612 0,-0.27944 -0.0666,-0.1333 -0.21318,-0.28664 -0.27944,-0.41916 -0.26266,-0.52532 -0.54998,0.82052 -0.55888,0.83832 -0.0764,0.1529 -0.17049,0.24036 -0.27944,0.3493 -0.61825,0.61826 -0.89817,1.3872 -1.46706,1.95608 -0.25111,0.25112 -3.7905897,0.22496 -3.9121497,-0.13972 -0.0745,-0.22352 0.0502,-0.51957 0.13972,-0.6986 z"
       id="path875"
       sodipodi:nodetypes="cssssssccsssssssssssssssssssssssc"
       inkscape:export-xdpi="66.851463"
       inkscape:export-ydpi="66.851463" />
    <path
       style="fill:none;stroke:#000000;stroke-width:0.5;stroke-linecap:butt;stroke-linejoin:miter;stroke-miterlimit:4;stroke-dasharray:none;stroke-opacity:1"
       d="m 8.5758343,55.616507 c 0.13972,-0.11643 0.30273,-0.20958 0.41916,-0.3493 0.12019,-0.14423 0.1753,-0.33281 0.27944,-0.48902 0.71276,-1.06914 1.4802397,-2.0666 2.1656597,-3.1437 0.43179,-0.67852 1.03387,-1.26297 1.46706,-1.95608 0.37002,-0.59202 0.92762,-1.48649 1.3972,-1.95607 0.43996,-0.43997 2.02113,-0.62874 2.65468,-0.62874 0.16276,0 0.87399,-0.10405 0.97804,0 0.0368,0.0368 0.0265,0.11083 0.0699,0.13972 0.0581,0.0387 0.16018,-0.0494 0.20958,0 0.0992,0.0992 0.13134,0.30179 0.20958,0.41916 0.14728,0.22091 0.37028,0.39126 0.48902,0.62874 0.1366,0.2732 0.0312,0.82749 0.0699,1.11775 0.0351,0.26318 0.18026,0.50458 0.20958,0.76846 0.0256,0.23054 -0.0213,0.53366 0,0.76846 0.0515,0.56634 0.20066,1.12516 0.27944,1.67664 0.071,0.49717 -0.0385,1.03592 0,1.53692 0.0713,0.92745 0.0699,1.85811 0.0699,2.7944 0,0.55114 0.0797,1.06671 0.13972,1.60678 0.12528,1.12762 -0.10275,2.29285 0,3.42314 0.12722,1.3996 0.20957,2.77641 0.20957,4.1916 0,0.77522 -0.0759,2.01063 -0.55887,2.65468 -0.41029,0.54705 -3.47707,0.6385 -3.63272,-0.13972 -0.0685,-0.3424 -0.24099,-0.7019 -0.27944,-1.0479 -0.0525,-0.47218 0,-0.99218 0,-1.46706 0,-2.26201 0.27421,-5.01854 -0.20958,-7.19558 -0.0878,-0.39492 0,-0.91866 0,-1.32734 0,-1.26623 -0.034,-2.40555 -0.27944,-3.63272 -0.0183,-0.0913 0.0417,-0.19612 0,-0.27944 -0.0666,-0.1333 -0.21318,-0.28664 -0.27944,-0.41916 -0.26266,-0.52532 -0.54998,0.82052 -0.55888,0.83832 -0.0764,0.1529 -0.17049,0.24036 -0.27944,0.3493 -0.61826,0.61826 -0.89818,1.3872 -1.46706,1.95608 -0.25111,0.25112 -3.7905997,0.22496 -3.9121597,-0.13972 -0.0745,-0.22352 0.0502,-0.51957 0.13972,-0.6986 z"
       id="path857"
       inkscape:export-xdpi="66.851463"
       inkscape:export-ydpi="66.851463" />
    <path
       style="fill:none;stroke:#000000;stroke-width:0.5;stroke-linecap:butt;stroke-linejoin:miter;stroke-miterlimit:4;stroke-dasharray:none;stroke-opacity:1"
       d="m 28.776824,57.907047 c -0.62182,0 -1.24365,0 -1.86547,0 -0.21165,0 -1.84311,-0.10767 -2.05845,0 -0.1989,0.0994 -0.28762,1.51352 -0.12865,1.67249 0.17061,0.17061 0.42928,0.48616 0.70759,0.57894 0.25915,0.0864 0.50519,-0.005 0.77192,0.12865 0.39292,0.19646 2.06678,-0.24481 2.31575,0.12865 0.1239,0.18585 0.0643,0.54037 0.0643,0.77192 0,0.57197 -0.13032,2.99035 0.32163,3.21632 0.26279,0.1314 0.71632,0.19298 1.02923,0.19298 0.1168,0 0.75891,0.0773 0.83624,0 0.35651,-0.3565 0.359,-1.61429 0.25731,-2.12277 -0.017,-0.0853 -0.19024,-0.24907 -0.19298,-0.25731 -0.0901,-0.27022 -0.53521,-1.69563 -0.38596,-1.99412 0.0788,-0.15753 0.56304,-0.0643 0.70759,-0.0643 0.423851,0 1.219181,0.15559 1.608161,0 0.13355,-0.0534 0.24951,-0.14749 0.38596,-0.19298 0.52676,-0.17558 0.76315,0.13743 1.35086,-0.45028 0.1564,-0.1564 -0.0724,-0.88857 -0.12865,-1.02923 -0.0936,-0.23391 -0.14485,-0.11952 -0.38596,-0.2573 -0.079,-0.0451 -0.114,-0.14785 -0.19298,-0.19298 -0.24392,-0.13938 -0.31127,-0.005 -0.57894,-0.0643 -0.25971,-0.0577 -0.49359,-0.21755 -0.77192,-0.25731 -0.27991,-0.04 -1.475671,-0.0413 -1.543831,-0.45028 -0.11525,-0.69145 0.35535,-3.20509 -0.45029,-3.47363 -0.18621,-0.0621 -1.62053,-0.11629 -1.67249,-0.0643 -0.2498,0.2498 0.32163,2.8916 0.32163,3.4093 0,0.50217 0.19742,0.77192 -0.32163,0.77192 z"
       id="path861"
       inkscape:export-xdpi="66.851463"
       inkscape:export-ydpi="66.851463" />
    <path
       style="fill:none;stroke:#000000;stroke-width:0.5;stroke-linecap:butt;stroke-linejoin:miter;stroke-miterlimit:4;stroke-dasharray:none;stroke-opacity:1"
       d="m 42.196795,55.510237 c 0.04537,-0.9052 -0.114863,-1.8135 -0.0494,-2.71692 0.08086,-1.1159 0.741261,-3.26058 1.630146,-4.14947 0.471008,-0.471 1.140601,-0.48145 1.728946,-0.69158 0.10403,-0.0371 0.18838,-0.12505 0.29639,-0.14819 0.69683,-0.14932 3.04246,-0.11065 3.75428,0.14819 0.55212,0.20077 1.06594,0.56257 1.58075,0.83978 1.11013,0.59776 1.28722,2.01023 1.38316,3.1615 0.0871,1.04546 0.15473,2.23968 -0.0494,3.2603 -0.10049,0.50247 -1.0712,1.68053 -1.43255,2.07473 -0.32766,0.35744 -0.57204,0.8714 -0.93857,1.18556 -0.76695,0.65739 -2.44373,2.08505 -3.3097,2.46993 -0.0767,0.0341 -0.17189,0.0118 -0.24699,0.0494 -0.34688,0.17344 -0.65723,0.52048 -0.98797,0.74098 -0.14854,0.099 -0.251073,0.24971 -0.395185,0.34578 -0.658141,0.43877 -1.580754,0.96222 -1.580754,1.87715 0,0.0663 -0.04335,0.40123 0.0494,0.49398 0.211718,0.21172 1.244402,0.0235 1.432556,0 1.621613,-0.2027 3.302363,-0.0988 4.939843,-0.0988 h 2.07473 c 0.2988,0 0.69132,-0.0539 0.98798,0 0.60272,0.10959 1.18477,1.08912 0.98796,1.67955 -0.07,0.20988 -1.13577,0.68441 -1.33375,0.74097 -0.80589,0.23026 -1.58115,0.49403 -2.42053,0.59278 -0.49428,0.0582 -1.08679,0 -1.58075,0 h -3.1615 c -0.315053,0 -0.835561,-0.0859 -1.136166,0 -0.427286,0.12209 -1.459356,0.2156 -1.926538,0.0988 -0.163468,-0.0409 -0.271033,-0.19706 -0.395188,-0.29639 -0.628022,-0.50241 -0.727935,-1.18932 -0.93857,-1.92654 -0.10425,-0.36487 -0.141008,-1.6059 -0.0494,-1.92654 0.04046,-0.14161 0.142893,-0.25844 0.197594,-0.39518 0.13873,-0.34684 0.224456,-0.75311 0.345788,-1.08677 0.19698,-0.5417 1.005396,-1.51004 1.481952,-1.82774 0.341485,-0.22766 1.412669,-0.92996 1.679547,-1.23496 0.657031,-0.75089 1.636481,-1.54782 2.173531,-2.42053 0.23284,-0.37837 0.90208,-0.90982 1.13617,-1.28436 0.20658,-0.33054 0.6121,-0.73022 0.79037,-1.08676 0.16072,-0.32144 0.29583,-1.52742 0.34579,-1.87715 0.0841,-0.58899 -0.87086,-1.13616 -1.63015,-1.13616 -0.18549,0 -0.41221,-0.0361 -0.59278,0 -0.3122,0.0624 -1.29032,0.11669 -1.38315,0.39519 -0.10806,0.32415 -0.24826,1.30504 -0.345796,1.63015 -0.245737,0.81911 0.05357,2.31755 -0.543382,2.91451 -0.126587,0.12658 -1.417659,0.15192 -1.63015,0.0988 -0.33943,-0.0849 -0.635851,-0.34263 -0.93857,-0.49399 z"
       id="path863"
       sodipodi:nodetypes="csssssssssssssssscssssssssssssscsssssssssssssc"
       inkscape:export-xdpi="66.851463"
       inkscape:export-ydpi="66.851463" />
    <path
       style="fill:none;stroke:#000000;stroke-width:0.5;stroke-linecap:butt;stroke-linejoin:miter;stroke-miterlimit:4;stroke-dasharray:none;stroke-opacity:1"
       d="m 73.277437,47.960227 c 0.73585,-0.0256 1.4576,-0.29377 2.17337,-0.37797 1.31238,-0.1544 2.73705,0 4.06324,0 0.88728,0 1.95847,-0.17527 2.83482,0 0.35045,0.0701 0.62963,0.33733 0.94494,0.47247 1.13484,0.48636 2.17033,1.03337 2.74033,2.17336 0.50655,1.0131 0.50634,2.18319 0.0945,3.2128 -0.18899,0.47247 -0.14174,0 -0.28348,0.28348 -0.36516,0.73032 -0.71302,1.58493 -1.51191,1.98437 -0.82224,0.41112 -1.58947,0.60263 -2.45684,0.85045 -0.29423,0.0841 -0.56476,0.18825 -0.85045,0.28348 -0.0598,0.0199 -0.25198,0 -0.18899,0 2.95111,0 4.06887,-0.16527 5.9474,2.33942 0.41984,0.55979 0.61184,1.8065 0.61184,2.46357 0,2.83287 -1.21638,4.34587 -3.81891,5.21338 -1.78604,0.59535 -3.98261,0.28348 -5.85863,0.28348 -0.55376,0 -2.26036,0.19274 -2.64583,0 -0.34354,-0.17176 -0.85118,-0.66291 -1.03944,-1.03943 -0.13373,-0.26746 -0.0527,-1.35017 0.28348,-1.41741 2.5184,-0.50368 4.53129,0.45561 6.92002,-0.73876 0.39047,-0.19524 1.95768,-0.26808 1.95768,-0.88385 0,-0.31304 0.37034,-1.41745 0.23386,-1.69042 -0.34977,-0.69954 -1.8831,-1.9053 -2.68596,-2.26212 -0.86269,-0.38342 -4.69372,-0.53752 -4.91369,-1.41741 -0.0751,-0.30047 0.0371,-0.73058 0,-1.03944 -0.27209,-2.26445 3.26137,-0.22608 5.57515,-3.40178 0.26756,-0.36723 1.06517,-0.70447 0.75595,-1.32292 -0.23893,-0.47786 -1.54966,-1.10527 -2.00632,-1.40971 -0.32736,-0.21824 -4.0133,-0.60751 -4.74092,-0.46199 -0.22293,0.0446 -1.76363,0.38779 -2.00157,0.14985 -0.37248,-0.37248 -0.27398,-1.82584 -0.13363,-2.2469 z"
       id="path873"
       sodipodi:nodetypes="ssssssssssssssssssssssssssssssss"
       inkscape:export-xdpi="66.851463"
       inkscape:export-ydpi="66.851463" />
    <path
       style="fill:#ff5555;stroke:none;stroke-width:0.5;stroke-linecap:butt;stroke-linejoin:miter;stroke-miterlimit:4;stroke-dasharray:none;stroke-opacity:1"
       d="m 213.13977,62.920412 c 0.73584,-0.0256 1.4576,-0.29377 2.17336,-0.37798 1.31239,-0.1544 2.73705,0 4.06325,0 0.88728,0 1.95847,-0.17527 2.83482,0 0.35045,0.0701 0.62962,0.33734 0.94494,0.47247 1.13484,0.48636 1.57974,1.22236 2.14974,2.36235 0.50655,1.01311 1.09693,1.9942 0.68508,3.02381 -0.18899,0.47247 -0.14174,0 -0.28349,0.28348 -0.36515,0.73032 -0.71302,1.58494 -1.5119,1.98438 -0.82224,0.41111 -1.58947,0.60262 -2.45685,0.85044 -0.29422,0.0841 -0.56475,0.18825 -0.85044,0.28348 -0.0598,0.0199 -0.25198,0 -0.18899,0 2.9511,0 4.06887,-0.16527 5.94739,2.33943 0.41984,0.55978 1.34417,1.99548 1.34417,2.65255 0,2.83288 -1.9487,4.15689 -4.55123,5.02439 -1.78605,0.59535 -3.98262,0.28349 -5.85863,0.28349 -0.55377,0 -2.26037,0.19273 -2.64584,0 -0.34353,-0.17177 -0.048,-0.66292 -0.23623,-1.03944 -0.13373,-0.26746 -0.85594,-1.35016 -0.51972,-1.41741 2.51839,-0.50368 4.53128,0.45561 6.92001,-0.73875 0.39048,-0.19524 2.38291,-0.12635 2.38291,-0.74212 0,-0.31304 0.41759,-1.55918 0.28111,-1.83215 -0.34978,-0.69955 -2.35558,-1.9053 -3.15843,-2.26213 -0.8627,-0.38342 -4.2685,0.14756 -4.48847,-0.73233 -0.0751,-0.30046 0.0135,-2.19523 -0.0236,-2.50409 -0.27209,-2.26445 2.85977,0.55349 5.17355,-2.62221 0.26756,-0.36722 0.35647,-0.5391 0.0472,-1.15755 -0.23893,-0.47786 -0.84096,-1.27064 -1.29762,-1.57508 -0.32735,-0.21823 -4.01329,-0.60751 -4.74091,-0.46198 -0.22294,0.0446 -1.14942,1.00199 -1.38736,0.76406 -0.37249,-0.37249 -0.8882,-2.44005 -0.74785,-2.86111 z"
       id="path885"
       sodipodi:nodetypes="ssssssssssssssssssssssssssssssss"
       inkscape:export-xdpi="66.851463"
       inkscape:export-ydpi="66.851463" />
    <path
       style="fill:#ff5555;stroke:none;stroke-width:0.5;stroke-linecap:butt;stroke-linejoin:miter;stroke-miterlimit:4;stroke-dasharray:none;stroke-opacity:1"
       d="m 177.71239,71.982322 c 0.0454,-0.9052 -0.11486,-1.8135 -0.0494,-2.71692 0.0809,-1.1159 0.74127,-3.26058 1.63015,-4.14947 0.47101,-0.471 1.1406,-0.48145 1.72895,-0.69158 0.10402,-0.0371 0.18838,-0.12505 0.29639,-0.14819 0.69683,-0.14932 2.61723,0.40906 3.32906,0.66791 0.55211,0.20077 1.20767,0.58619 1.72249,0.8634 1.11013,0.59776 1.5707,1.46689 1.66664,2.61816 0.0871,1.04546 0.15472,2.23968 -0.0494,3.2603 -0.10049,0.50247 -0.48062,2.153 -0.84197,2.5472 -0.32765,0.35745 -1.16263,0.39893 -1.52916,0.7131 -0.76694,0.65738 -2.44372,2.08504 -3.30969,2.46992 -0.0767,0.0341 -0.17189,0.0118 -0.24699,0.0494 -0.34688,0.17344 -0.65723,0.52048 -0.98797,0.74098 -0.14855,0.099 -0.25108,0.24971 -0.39519,0.34579 -0.65814,0.43876 -1.58075,0.96221 -1.58075,1.87714 0,0.0663 -0.0434,0.40123 0.0494,0.49398 0.21172,0.21172 1.2444,0.0235 1.43255,0 1.62162,-0.2027 3.30236,-0.0988 4.93985,-0.0988 h 2.07473 c 0.2988,0 0.12435,-0.59728 0.42101,-0.54334 0.60272,0.10959 1.04304,2.01044 0.84622,2.60086 -0.07,0.20988 -0.42706,0.30644 -0.62505,0.363 -0.80589,0.23026 -1.58114,0.49404 -2.42052,0.59279 -0.49428,0.0581 -1.0868,0 -1.58075,0 h -3.1615 c -0.31506,0 -0.83556,-0.0859 -1.13617,0 -0.42729,0.12208 -1.45936,0.21559 -1.92654,0.0988 -0.16347,-0.0409 0.17782,-0.50418 0.0537,-0.6035 -0.62802,-0.50242 -0.63344,-0.97671 -0.84407,-1.71393 -0.10425,-0.36487 -0.68435,-1.5114 -0.59274,-1.83205 0.0405,-0.14161 0.14289,-0.25844 0.19759,-0.39518 0.13873,-0.34684 0.22446,-0.75311 0.34579,-1.08677 0.19698,-0.5417 0.5093,-1.81714 0.98586,-2.13485 0.34148,-0.22765 1.43629,-1.26069 1.70317,-1.56569 0.65702,-0.75089 2.10895,-0.90998 2.646,-1.78269 0.23284,-0.37837 0.90207,-0.90981 1.13616,-1.28436 0.20659,-0.33053 0.0215,-0.9192 0.19979,-1.27575 0.16072,-0.32144 0.88642,-1.33843 0.93638,-1.68816 0.0841,-0.58899 -1.0126,-0.42745 -1.77189,-0.42745 -0.18549,0 -0.27047,-0.74483 -0.45104,-0.70871 -0.31221,0.0624 -1.29033,0.11669 -1.38316,0.39519 -0.10805,0.32416 -0.24826,1.30504 -0.34579,1.63015 -0.24574,0.81911 0.0536,2.31755 -0.54338,2.91451 -0.12659,0.12658 -1.41766,0.15192 -1.63015,0.0988 -0.33943,-0.0849 -0.63585,-0.34263 -0.93857,-0.49399 z"
       id="path889"
       sodipodi:nodetypes="csssssssssssssssscssssssssssssscssssssssssssscc"
       inkscape:export-xdpi="66.851463"
       inkscape:export-ydpi="66.851463" />
    <path
       style="fill:#55ddff;stroke:none;stroke-width:0.5;stroke-linecap:butt;stroke-linejoin:miter;stroke-miterlimit:4;stroke-dasharray:none;stroke-opacity:1"
       d="m 167.12723,12.958011 h -1.86546 c -0.21166,0 -2.48096,-0.4384 -2.69629,-0.33073 -0.1989,0.0995 -0.12226,2.64745 0.0367,2.80642 0.17062,0.17061 0.90175,-0.31704 1.18006,-0.22427 0.25916,0.0864 0.50519,-0.005 0.77192,0.12866 0.39292,0.19646 2.06678,-0.24481 2.31575,0.12865 0.1239,0.18585 0.0643,0.54037 0.0643,0.77192 0,0.57197 0.31853,2.56512 0.77048,2.7911 0.26279,0.13139 0.26748,0.6182 0.58038,0.6182 0.1168,0 0.75891,0.0773 0.83624,0 0.35651,-0.35651 0.35901,-1.61429 0.25731,-2.12277 -0.017,-0.0853 -0.19023,-0.24907 -0.19298,-0.25731 -0.0901,-0.27022 -0.5352,-1.69563 -0.38596,-1.99412 0.0788,-0.15753 0.56305,-0.0643 0.70759,-0.0643 0.42386,0 1.21919,0.15559 1.60817,0 0.13355,-0.0534 0.2495,-0.14749 0.38595,-0.19298 0.52676,-0.17558 1.25925,0.5154 1.84695,-0.0723 0.15641,-0.1564 -0.56848,-1.26654 -0.62474,-1.4072 -0.0936,-0.23391 -0.14485,-0.11952 -0.38596,-0.2573 -0.079,-0.0451 -0.16124,0.301 -0.24023,0.25587 -0.24391,-0.13938 -0.26402,-0.45365 -0.53169,-0.51318 -0.25971,-0.0577 -0.63533,0.20768 -0.91366,0.16791 -0.27991,-0.04 -1.33393,-0.46652 -1.40209,-0.8755 -0.11524,-0.69145 0.75695,-3.77205 -0.0487,-4.0406 -0.18621,-0.0621 -2.82533,0.0963 -2.87729,0.14828 -0.2498,0.2498 1.12483,3.24596 1.12483,3.76366 0,0.50217 0.19742,0.77192 -0.32163,0.77192 z"
       id="path891"
       sodipodi:nodetypes="csssscsssscsssssssssscssssscc"
       inkscape:export-xdpi="66.851463"
       inkscape:export-ydpi="66.851463" />
    <path
       style="fill:#ff5555;stroke:none;stroke-width:0.5;stroke-linecap:butt;stroke-linejoin:miter;stroke-miterlimit:4;stroke-dasharray:none;stroke-opacity:1"
       d="m 142.7685,40.338592 c 0.13972,-0.11643 0.30272,-0.20958 0.41916,-0.3493 0.12019,-0.14423 0.1753,-0.33281 0.27944,-0.48902 0.71276,-1.069144 1.48023,-2.066604 2.16566,-3.143701 0.43179,-0.67852 1.06768,-0.15417 1.70092,-1.8475 0.24453,-0.65391 0.69375,-1.59506 1.16333,-2.06464 0.43997,-0.43997 2.02113,-0.62874 2.65468,-0.62874 0.16276,0 0.54826,0.36367 0.65231,0.46772 0.24605,0.1739 0.6322,0.28393 0.75629,0.58393 0.14728,0.22092 0.4371,0.22422 0.55583,0.4617 0.13661,0.2732 0.0228,0.50175 0.0615,0.79201 0.0351,0.26318 0.18026,0.50458 0.20958,0.76846 0.0256,0.23054 -0.0214,0.53366 0,0.76846 0.0515,0.56634 0.20066,1.12516 0.27944,1.676637 0.071,0.49717 -0.0385,1.03592 0,1.536924 0.0713,0.92745 0.0699,1.85811 0.0699,2.7944 0,0.55114 0.0797,1.06671 0.13972,1.60678 0.12529,1.12762 0.59883,2.32626 0.70159,3.45655 0.12723,1.3996 0.20958,2.77641 0.20958,4.1916 0,0.77522 -0.77744,1.97722 -1.26046,2.62127 -0.41029,0.54705 -3.47708,0.6385 -3.63272,-0.13972 -0.0685,-0.3424 -0.241,-0.7019 -0.27944,-1.0479 -0.0525,-0.47218 -0.66818,-0.72491 -0.66818,-1.19979 0,-2.26201 0.54148,-3.81583 0.0577,-5.99287 -0.0878,-0.39492 0.40091,-2.38864 0.40091,-2.79732 0,-1.26623 -0.034,-2.40555 -0.27944,-3.63272 -0.0183,-0.0913 0.0417,-0.196124 0,-0.279444 -0.0666,-0.1333 -0.21319,-0.28664 -0.27944,-0.41916 -0.26266,-0.52532 -0.54998,0.820524 -0.55888,0.838324 -0.0764,0.1529 -0.1705,0.24036 -0.27944,0.3493 -0.61826,0.61826 -0.89818,1.3872 -1.46706,1.95608 -0.25112,0.25112 -3.7906,0.22496 -3.91216,-0.13972 -0.0745,-0.22352 0.0502,-0.51957 0.13972,-0.6986 z"
       id="path893"
       sodipodi:nodetypes="cssssssccsssssssssssssssssssssssc"
       inkscape:export-xdpi="66.851463"
       inkscape:export-ydpi="66.851463" />
    <path
       style="fill:none;stroke:#000000;stroke-width:0.5;stroke-linecap:butt;stroke-linejoin:miter;stroke-miterlimit:4;stroke-dasharray:none;stroke-opacity:1"
       d="m 142.7685,40.338592 c 0.13972,-0.11643 0.30272,-0.20958 0.41916,-0.3493 0.12019,-0.14423 0.1753,-0.33281 0.27944,-0.48902 0.71276,-1.069144 1.48023,-2.066604 2.16566,-3.143701 0.43179,-0.67852 1.03387,-1.26297 1.46706,-1.95608 0.37001,-0.59202 0.92761,-1.48648 1.39719,-1.95606 0.43997,-0.43997 2.02113,-0.62874 2.65468,-0.62874 0.16276,0 0.874,-0.10405 0.97804,0 0.0368,0.0368 0.0265,0.11083 0.0699,0.13972 0.0581,0.0387 0.16018,-0.0494 0.20958,0 0.0992,0.0992 0.13134,0.30179 0.20958,0.41916 0.14728,0.22091 0.37028,0.39126 0.48902,0.62874 0.1366,0.2732 0.0312,0.82748 0.0699,1.11774 0.0351,0.26318 0.18026,0.50458 0.20958,0.76846 0.0256,0.23054 -0.0214,0.53366 0,0.76846 0.0515,0.56634 0.20066,1.12516 0.27944,1.676637 0.071,0.49717 -0.0385,1.03592 0,1.536924 0.0713,0.92745 0.0699,1.85811 0.0699,2.7944 0,0.55114 0.0797,1.06671 0.13972,1.60678 0.12529,1.12762 -0.10275,2.29285 0,3.42314 0.12724,1.3996 0.20958,2.77641 0.20958,4.1916 0,0.77522 -0.0759,2.01063 -0.55888,2.65468 -0.41029,0.54705 -3.47707,0.6385 -3.63272,-0.13972 -0.0685,-0.3424 -0.24099,-0.7019 -0.27943,-1.0479 -0.0525,-0.47218 0,-0.99218 0,-1.46706 0,-2.26201 0.2742,-5.01854 -0.20959,-7.19558 -0.0878,-0.39492 0,-0.91866 0,-1.32734 0,-1.26623 -0.034,-2.40555 -0.27943,-3.63272 -0.0183,-0.0913 0.0417,-0.196124 0,-0.279444 -0.0666,-0.1333 -0.21319,-0.28664 -0.27945,-0.41916 -0.26266,-0.52532 -0.54998,0.820524 -0.55887,0.838324 -0.0764,0.1529 -0.1705,0.24036 -0.27944,0.3493 -0.61826,0.61826 -0.89818,1.3872 -1.46706,1.95608 -0.25112,0.25112 -3.7906,0.22496 -3.91216,-0.13972 -0.0745,-0.22352 0.0502,-0.51957 0.13972,-0.6986 z"
       id="path895"
       inkscape:export-xdpi="66.851463"
       inkscape:export-ydpi="66.851463" />
    <path
       style="fill:none;stroke:#000000;stroke-width:0.5;stroke-linecap:butt;stroke-linejoin:miter;stroke-miterlimit:4;stroke-dasharray:none;stroke-opacity:1"
       d="m 167.12723,12.958011 c -0.62182,0 -1.24364,0 -1.86546,0 -0.21166,0 -1.84312,-0.10767 -2.05845,0 -0.1989,0.0994 -0.28763,1.51352 -0.12865,1.67249 0.17061,0.17061 0.42927,0.48616 0.70759,0.57893 0.25915,0.0864 0.50519,-0.005 0.77191,0.12866 0.39292,0.19646 2.06678,-0.24481 2.31576,0.12865 0.12389,0.18585 0.0643,0.54037 0.0643,0.77192 0,0.57197 -0.13032,2.99035 0.32163,3.21632 0.26279,0.1314 0.71632,0.19298 1.02922,0.19298 0.1168,0 0.75891,0.0773 0.83625,0 0.3565,-0.35651 0.359,-1.61429 0.2573,-2.12277 -0.017,-0.0853 -0.19023,-0.24907 -0.19298,-0.25731 -0.0901,-0.27022 -0.5352,-1.69563 -0.38596,-1.99412 0.0788,-0.15753 0.56305,-0.0643 0.7076,-0.0643 0.42385,0 1.21918,0.15559 1.60816,0 0.13355,-0.0534 0.2495,-0.14749 0.38595,-0.19298 0.52676,-0.17558 0.76316,0.13742 1.35086,-0.45028 0.15641,-0.15641 -0.0724,-0.88857 -0.12865,-1.02923 -0.0936,-0.23391 -0.14485,-0.11952 -0.38596,-0.2573 -0.079,-0.0451 -0.11399,-0.14785 -0.19298,-0.19298 -0.24391,-0.13938 -0.31127,-0.005 -0.57894,-0.0643 -0.25971,-0.0577 -0.49359,-0.21755 -0.77192,-0.25731 -0.2799,-0.04 -1.47567,-0.0413 -1.54383,-0.45028 -0.11524,-0.69145 0.35535,-3.20509 -0.45029,-3.47363 -0.1862,-0.0621 -1.62053,-0.11629 -1.67248,-0.0643 -0.2498,0.2498 0.32163,2.8916 0.32163,3.4093 0,0.50217 0.19741,0.77192 -0.32163,0.77192 z"
       id="path897"
       inkscape:export-xdpi="66.851463"
       inkscape:export-ydpi="66.851463" />
    <path
       style="fill:none;stroke:#000000;stroke-width:0.5;stroke-linecap:butt;stroke-linejoin:miter;stroke-miterlimit:4;stroke-dasharray:none;stroke-opacity:1"
       d="m 177.71239,71.982322 c 0.0454,-0.9052 -0.11486,-1.8135 -0.0494,-2.71692 0.0809,-1.1159 0.74127,-3.26058 1.63015,-4.14947 0.47101,-0.471 1.1406,-0.48145 1.72895,-0.69158 0.10402,-0.0371 0.18838,-0.12505 0.29639,-0.14819 0.69683,-0.14932 3.04246,-0.11065 3.75428,0.14819 0.55211,0.20077 1.06594,0.56257 1.58075,0.83978 1.11013,0.59776 1.28722,2.01023 1.38316,3.1615 0.0871,1.04546 0.15472,2.23968 -0.0494,3.2603 -0.10049,0.50247 -1.0712,1.68053 -1.43256,2.07473 -0.32765,0.35745 -0.57204,0.8714 -0.93857,1.18557 -0.76694,0.65738 -2.44372,2.08504 -3.30969,2.46992 -0.0767,0.0341 -0.17189,0.0118 -0.24699,0.0494 -0.34688,0.17344 -0.65723,0.52048 -0.98797,0.74098 -0.14855,0.099 -0.25108,0.24971 -0.39519,0.34579 -0.65814,0.43876 -1.58075,0.96221 -1.58075,1.87714 0,0.0663 -0.0434,0.40123 0.0494,0.49398 0.21172,0.21172 1.2444,0.0235 1.43255,0 1.62162,-0.2027 3.30236,-0.0988 4.93985,-0.0988 h 2.07473 c 0.2988,0 0.69132,-0.0539 0.98797,0 0.60273,0.10959 1.18478,1.08912 0.98797,1.67955 -0.07,0.20988 -1.13577,0.68441 -1.33376,0.74097 -0.80589,0.23026 -1.58114,0.49404 -2.42052,0.59279 -0.49428,0.0581 -1.0868,0 -1.58075,0 h -3.1615 c -0.31506,0 -0.83556,-0.0859 -1.13617,0 -0.42729,0.12208 -1.45936,0.21559 -1.92654,0.0988 -0.16347,-0.0409 -0.27103,-0.19707 -0.39519,-0.2964 -0.62802,-0.50241 -0.72793,-1.18932 -0.93857,-1.92654 -0.10425,-0.36487 -0.141,-1.60589 -0.0494,-1.92654 0.0405,-0.14161 0.1429,-0.25844 0.1976,-0.39518 0.13873,-0.34684 0.22445,-0.75311 0.34579,-1.08677 0.19698,-0.5417 1.00539,-1.51004 1.48195,-1.82774 0.34148,-0.22766 1.41267,-0.92996 1.67955,-1.23496 0.65702,-0.75089 1.63648,-1.54782 2.17353,-2.42053 0.23284,-0.37837 0.90207,-0.90981 1.13616,-1.28436 0.20659,-0.33053 0.6121,-0.73021 0.79038,-1.08676 0.16072,-0.32144 0.29583,-1.52742 0.34579,-1.87715 0.0841,-0.58899 -0.87086,-1.13616 -1.63015,-1.13616 -0.18549,0 -0.41221,-0.0361 -0.59278,0 -0.31221,0.0624 -1.29033,0.11669 -1.38316,0.39519 -0.10805,0.32416 -0.24826,1.30504 -0.34579,1.63015 -0.24574,0.81911 0.0536,2.31755 -0.54338,2.91451 -0.12659,0.12658 -1.41766,0.15192 -1.63015,0.0988 -0.33943,-0.0849 -0.63585,-0.34263 -0.93857,-0.49399 z"
       id="path899"
       sodipodi:nodetypes="csssssssssssssssscssssssssssssscsssssssssssssc"
       inkscape:export-xdpi="66.851463"
       inkscape:export-ydpi="66.851463" />
    <path
       style="fill:none;stroke:#000000;stroke-width:0.5;stroke-linecap:butt;stroke-linejoin:miter;stroke-miterlimit:4;stroke-dasharray:none;stroke-opacity:1"
       d="m 213.13977,62.920412 c 0.73584,-0.0256 1.4576,-0.29377 2.17336,-0.37798 1.31239,-0.1544 2.73705,0 4.06325,0 0.88728,0 1.95847,-0.17527 2.83482,0 0.35045,0.0701 0.62962,0.33734 0.94494,0.47247 1.13484,0.48636 2.17033,1.03337 2.74033,2.17336 0.50655,1.01311 0.50634,2.18319 0.0945,3.2128 -0.18899,0.47247 -0.14174,0 -0.28349,0.28348 -0.36515,0.73032 -0.71302,1.58494 -1.5119,1.98438 -0.82224,0.41111 -1.58947,0.60262 -2.45685,0.85044 -0.29422,0.0841 -0.56475,0.18825 -0.85044,0.28348 -0.0598,0.0199 -0.25198,0 -0.18899,0 2.9511,0 4.06887,-0.16527 5.94739,2.33943 0.41984,0.55978 0.61184,1.80649 0.61184,2.46356 0,2.83288 -1.21637,4.34588 -3.8189,5.21338 -1.78605,0.59535 -3.98262,0.28349 -5.85863,0.28349 -0.55377,0 -2.26037,0.19273 -2.64584,0 -0.34353,-0.17177 -0.85117,-0.66292 -1.03943,-1.03944 -0.13373,-0.26746 -0.0527,-1.35016 0.28348,-1.41741 2.51839,-0.50368 4.53128,0.45561 6.92001,-0.73875 0.39048,-0.19524 1.95768,-0.26809 1.95768,-0.88386 0,-0.31304 0.37035,-1.41744 0.23387,-1.69041 -0.34978,-0.69955 -1.88311,-1.9053 -2.68596,-2.26213 -0.8627,-0.38342 -4.69372,-0.53752 -4.91369,-1.41741 -0.0751,-0.30047 0.0371,-0.73057 0,-1.03943 -0.27209,-2.26446 3.26137,-0.22609 5.57515,-3.40179 0.26755,-0.36722 1.06517,-0.70446 0.75595,-1.32291 -0.23893,-0.47786 -1.54966,-1.10528 -2.00632,-1.40972 -0.32736,-0.21823 -4.0133,-0.60751 -4.74092,-0.46198 -0.22293,0.0446 -1.76363,0.38778 -2.00157,0.14985 -0.37248,-0.37249 -0.27399,-1.82584 -0.13363,-2.2469 z"
       id="path903"
       sodipodi:nodetypes="ssssssssssssssssssssssssssssssss"
       inkscape:export-xdpi="66.851463"
       inkscape:export-ydpi="66.851463" />
    <path
       style="fill:none;stroke:#000000;stroke-width:0.5;stroke-linecap:butt;stroke-linejoin:miter;stroke-miterlimit:4;stroke-dasharray:none;stroke-opacity:1"
       d="m -2.6290857,51.974837 c -0.94255,-0.0936 -1.33221,-1.15252 -1.70089,-1.88988 -0.22288,-0.44576 -0.43709,-0.87417 -0.66146,-1.32292 -0.14981,-0.29961 -0.50484,-2.0465 -0.28348,-2.26786 0.17986,-0.17986 0.89269,-0.0945 1.13392,-0.0945 0.11701,0 0.72473,-0.0838 0.85045,0 0.71803,0.47869 1.62311,2.88494 1.88988,3.68527 0.0498,0.1494 -0.0382,0.31968 0,0.47247 0.0705,0.28186 0.38989,0.72021 0.28348,1.03943 -0.0639,0.1918 -1.2866,0.37798 -1.5119,0.37798 z"
       id="path907"
       inkscape:export-xdpi="66.851463"
       inkscape:export-ydpi="66.851463" />
    <path
       style="fill:none;stroke:#000000;stroke-width:0.5;stroke-linecap:butt;stroke-linejoin:miter;stroke-miterlimit:4;stroke-dasharray:none;stroke-opacity:1"
       d="m 3.5541343,51.535777 c -2.02762,-1.14053 -1.20265,-0.38427 -2.55134,-2.36235 -0.0324,-0.0475 -0.81116001,-1.54373 -0.85045001,-1.70089 -0.0516,-0.20656 -0.53763,-1.06876 -0.28348,-1.32292 0.19738,-0.19738 1.74576001,-0.0496 1.88988001,0.0945 0.2247,0.22469 0.39379,0.39379 0.66146,0.66145 0.30312,0.30312 1.22219,2.00133 1.41741,2.45685 0.0877,0.20471 -0.0291,0.47614 0.0945,0.66146 0.21599,0.32398 0.19349,-0.16649 0.28348,0.28348 0.0264,0.13222 0.067,0.81097 0,0.94494 -0.10727,0.21456 -0.4469,0.1762 -0.66145,0.28348 z"
       id="path909"
       inkscape:export-xdpi="66.851463"
       inkscape:export-ydpi="66.851463" />
    <path
       style="fill:#ff7f2a;stroke:none;stroke-width:0.5;stroke-linecap:butt;stroke-linejoin:miter;stroke-miterlimit:4;stroke-dasharray:none;stroke-opacity:1"
       d="m 93.367017,52.509377 c 0.94255,-0.0936 1.33222,-1.15252 1.7009,-1.88988 0.22288,-0.44576 0.43708,-0.87417 0.66146,-1.32292 0.1498,-0.29961 0.50483,-2.0465 0.28348,-2.26786 -0.17987,-0.17986 -0.8927,-0.0945 -1.13393,-0.0945 -0.117,0 -0.72473,-0.0838 -0.85045,0 -0.71803,0.47869 -1.6231,2.88494 -1.88988,3.68527 -0.0498,0.1494 0.0382,0.31968 0,0.47247 -0.0705,0.28186 -0.38989,0.72021 -0.28348,1.03943 0.0639,0.1918 1.2866,0.37798 1.5119,0.37798 z"
       id="path915"
       inkscape:export-xdpi="66.851463"
       inkscape:export-ydpi="66.851463" />
    <path
       style="fill:#ff7f2a;stroke:none;stroke-width:0.5;stroke-linecap:butt;stroke-linejoin:miter;stroke-miterlimit:4;stroke-dasharray:none;stroke-opacity:1"
       d="m 98.157557,51.118167 c 2.027623,-1.14053 1.20265,-0.38427 2.551343,-2.36235 0.0324,-0.0475 0.81116,-1.54373 0.85045,-1.70089 0.0516,-0.20656 0.53764,-1.06876 0.28348,-1.32292 -0.19738,-0.19738 -1.74576,-0.0496 -1.889883,0.0945 -0.2247,0.22469 -0.39379,0.39379 -0.66146,0.66145 -0.30311,0.30312 -1.22218,2.00133 -1.41741,2.45685 -0.0877,0.20471 0.029,0.47614 -0.0945,0.66146 -0.21599,0.32398 -0.19349,-0.16649 -0.28348,0.28348 -0.0264,0.13222 -0.067,0.81097 0,0.94494 0.10728,0.21456 0.4469,0.1762 0.66146,0.28348 z"
       id="path917"
       inkscape:export-xdpi="66.851463"
       inkscape:export-ydpi="66.851463" />
    <path
       style="fill:none;stroke:#000000;stroke-width:0.5;stroke-linecap:butt;stroke-linejoin:miter;stroke-miterlimit:4;stroke-dasharray:none;stroke-opacity:1"
       d="m 92.999527,51.974837 c 0.94255,-0.0936 1.33221,-1.15252 1.70089,-1.88988 0.22288,-0.44576 0.43709,-0.87417 0.66146,-1.32292 0.1498,-0.29961 0.50483,-2.0465 0.28348,-2.26786 -0.17987,-0.17986 -0.8927,-0.0945 -1.13393,-0.0945 -0.117,0 -0.72473,-0.0838 -0.85044,0 -0.71803,0.47869 -1.62311,2.88494 -1.88989,3.68527 -0.0498,0.1494 0.0382,0.31968 0,0.47247 -0.0705,0.28186 -0.38988,0.72021 -0.28348,1.03943 0.0639,0.1918 1.28661,0.37798 1.51191,0.37798 z"
       id="path919"
       inkscape:export-xdpi="66.851463"
       inkscape:export-ydpi="66.851463" />
    <path
       style="fill:none;stroke:#000000;stroke-width:0.5;stroke-linecap:butt;stroke-linejoin:miter;stroke-miterlimit:4;stroke-dasharray:none;stroke-opacity:1"
       d="m 97.806777,51.535777 c 2.02761,-1.14053 1.20264,-0.38427 2.551343,-2.36235 0.0324,-0.0475 0.81115,-1.54373 0.85044,-1.70089 0.0516,-0.20656 0.53764,-1.06876 0.28348,-1.32292 -0.19738,-0.19738 -1.745763,-0.0496 -1.889883,0.0945 -0.22469,0.22469 -0.39379,0.39379 -0.66146,0.66145 -0.30311,0.30312 -1.22218,2.00133 -1.41741,2.45685 -0.0877,0.20471 0.0291,0.47614 -0.0945,0.66146 -0.21598,0.32398 -0.19349,-0.16649 -0.28348,0.28348 -0.0264,0.13222 -0.067,0.81097 0,0.94494 0.10728,0.21456 0.4469,0.1762 0.66146,0.28348 z"
       id="path921"
       inkscape:export-xdpi="66.851463"
       inkscape:export-ydpi="66.851463" />
    <path
       style="fill:none;stroke:#000000;stroke-width:0.5;stroke-linecap:butt;stroke-linejoin:miter;stroke-miterlimit:4;stroke-dasharray:none;stroke-opacity:1"
       d="m 171.75084,19.471351 c 2.36987,1.07835 3.90808,3.54844 5.95313,5.10268 1.25135,0.95103 2.79684,1.96351 3.96875,3.02381 0.16843,0.15238 0.21107,0.4129 0.37797,0.56696 0.25035,0.23109 0.58255,0.35647 0.85045,0.56696 0.45044,0.35392 0.79689,0.85083 1.22842,1.22843 1.06689,0.93352 2.27867,1.99158 3.40179,2.74032 0.39311,0.26208 0.50798,0.88596 0.85044,1.22842 0.21362,0.21361 0.58889,0.49439 0.75596,0.66145"
       id="path939"
       inkscape:export-xdpi="66.851463"
       inkscape:export-ydpi="66.851463" />
    <path
       style="fill:none;stroke:#000000;stroke-width:0.5;stroke-linecap:butt;stroke-linejoin:miter;stroke-miterlimit:4;stroke-dasharray:none;stroke-opacity:1"
       d="m 165.13626,21.833701 c -0.34648,0.34648 -0.72771,0.66138 -1.03944,1.03943 -2.51924,3.05525 -3.24575,4.11313 -5.29166,6.99256 -0.9811,1.38081 -1.70069,2.26704 -2.07887,3.77975 0.0148,-1.14288 -0.0945,-2.25927 -0.0945,-3.40177"
       id="path941"
       inkscape:export-xdpi="66.851463"
       inkscape:export-ydpi="66.851463" />
    <path
       style="fill:none;stroke:#000000;stroke-width:0.5;stroke-linecap:butt;stroke-linejoin:miter;stroke-miterlimit:4;stroke-dasharray:none;stroke-opacity:1"
       d="m 156.72629,33.645441 c 0.96785,0.20794 1.8889,-0.37796 2.83482,-0.37796"
       id="path943"
       inkscape:export-xdpi="66.851463"
       inkscape:export-ydpi="66.851463" />
    <path
       style="fill:none;stroke:#000000;stroke-width:0.5;stroke-linecap:butt;stroke-linejoin:miter;stroke-miterlimit:4;stroke-dasharray:none;stroke-opacity:1"
       d="m 188.85427,32.039051 c 0,0.92547 0.61233,1.86354 0.28348,2.55133 -0.75122,0.12513 -1.51053,0.0945 -2.26786,0.0945"
       id="path945"
       inkscape:export-xdpi="66.851463"
       inkscape:export-ydpi="66.851463" />
    <path
       style="fill:none;stroke:#000000;stroke-width:0.5;stroke-linecap:butt;stroke-linejoin:miter;stroke-miterlimit:4;stroke-dasharray:none;stroke-opacity:1"
       d="m 193.29548,50.559882 c -0.31497,0.59846 -0.62615,1.19894 -0.94494,1.79539 -3.07788,5.75862 -0.76436,1.66476 -3.68526,6.2366 -0.58953,0.92274 -1.37332,2.69623 -2.07887,3.40179 -0.10171,-0.76912 0.13794,-2.31891 -0.47247,-2.92932"
       id="path947"
       inkscape:export-xdpi="66.851463"
       inkscape:export-ydpi="66.851463" />
    <path
       style="fill:none;stroke:#000000;stroke-width:0.5;stroke-linecap:butt;stroke-linejoin:miter;stroke-miterlimit:4;stroke-dasharray:none;stroke-opacity:1"
       d="m 186.58641,61.993662 c 0.77366,-0.0361 2.03795,0.1354 2.64583,-0.47247"
       id="path949"
       inkscape:export-xdpi="66.851463"
       inkscape:export-ydpi="66.851463" />
    <path
       style="fill:none;stroke:#000000;stroke-width:0.5;stroke-linecap:butt;stroke-linejoin:miter;stroke-miterlimit:4;stroke-dasharray:none;stroke-opacity:1"
       d="m 200.38254,48.858992 c 0.75595,0.22048 1.54995,0.33789 2.26785,0.66145 2.97218,1.33957 5.41655,2.973 8.032,4.8192 0.46952,0.33142 1.0842,0.90205 1.6064,1.22842 0.55099,0.34437 0.90723,0.75129 1.41741,1.13393 0.11269,0.0845 0.27837,0.0894 0.37798,0.18899 0.32991,0.32991 0.29402,0.39378 0.47247,0.66146 0.2114,0.31709 0.5858,0.49131 0.85045,0.75595 -0.36992,-0.55743 0.41774,-2.1336 -0.0945,-2.64583"
       id="path951"
       inkscape:export-xdpi="66.851463"
       inkscape:export-ydpi="66.851463" />
    <path
       style="fill:none;stroke:#000000;stroke-width:0.5;stroke-linecap:butt;stroke-linejoin:miter;stroke-miterlimit:4;stroke-dasharray:none;stroke-opacity:1"
       d="m 215.4071,58.308392 c -1.24802,-0.19718 -2.52023,-0.0945 -3.77977,-0.0945"
       id="path953"
       inkscape:export-xdpi="66.851463"
       inkscape:export-ydpi="66.851463" />
    <path
       style="fill:none;stroke:#000000;stroke-width:0.5;stroke-linecap:butt;stroke-linejoin:miter;stroke-miterlimit:4;stroke-dasharray:none;stroke-opacity:1"
       d="m 123.79523,54.915859 h -1.88023 -1.65904 -1.43782 c -0.85366,0 -5.27542,-0.293243 -6.08311,0.110602 -0.48352,0.241756 -0.47006,0.947822 -0.47006,1.437827 0,0.218259 0.0705,0.555777 0.1659,0.746564 0.1327,0.265394 -0.0375,0.450378 0.0829,0.691263 0.14513,0.290266 0.10794,0.882152 0.33181,1.10602 0.91506,0.915062 7.24215,0.442409 8.95876,0.442409 0.33587,0 1.45664,-0.20239 1.65903,0 0.55553,0.555523 -0.30182,3.318061 0.66362,3.318061 0.1106,0 0.24544,0.06909 0.3318,0 0.14394,-0.115154 0.67952,-0.307613 0.82952,-0.414757 0.48918,-0.349419 1.32756,-0.746904 1.71433,-1.13367 0.58097,-0.58097 1.57272,-1.098478 2.32264,-1.54843 0.65201,-0.38324 1.32873,-0.834707 1.88024,-1.437827 0.0293,-0.02928 0.49771,-0.53512 0.49771,-0.580661 0,-0.717947 -1.04862,-1.055406 -1.52078,-1.244272 -1.01324,-0.547822 -1.20128,-0.985255 -2.18439,-1.493129 -4.22615,-4.409944 -5.33396,-4.922715 -4.20288,0 z"
       id="path992"
       sodipodi:nodetypes="cccssssssssssssccsccc"
       inkscape:export-xdpi="66.851463"
       inkscape:export-ydpi="66.851463" />
    <path
       style="fill:none;stroke:#000000;stroke-width:0.5;stroke-linecap:butt;stroke-linejoin:miter;stroke-miterlimit:4;stroke-dasharray:none;stroke-opacity:1"
       d="m 61.638715,57.025714 c -0.101713,-0.166177 -0.935568,-1.485624 -1.033169,-1.698233 -0.0501,-0.109123 -0.200372,-0.218247 -0.150278,-0.327371 0.05754,-0.125348 0.133899,-0.06401 0.225418,-0.163685 0.11026,-0.120094 0.586682,-0.662604 0.751399,-0.572898 0.120641,0.0657 0.25506,0.09798 0.375701,0.163685 0.07704,0.04196 1.025768,1.121004 1.127097,0.900269 0.08659,-0.188649 0.202521,-1.857438 0.22542,-1.88238 0.06734,-0.07335 0.516666,0 0.601119,0 0.157271,0 0.562008,-0.04259 0.67626,0.08184 0.235024,0.25599 -0.25435,1.907545 0.150278,2.127907 0.110025,0.05992 0.58656,-0.29105 0.713829,-0.429673 0.980856,-0.699498 1.057122,-1.070971 1.615508,-0.143225 0.06755,0.110365 -0.07024,0.139957 0.07514,0.245529 0.0129,0.0094 0.321859,0.175931 0.300563,0.245527 -0.118373,0.386796 -0.660816,0.504826 -0.90168,0.65474 -0.02499,0.01556 -0.645735,0.540502 -0.601119,0.572898 0.489655,0.355557 2.40489,0.0823 2.554756,0.245528 0.08189,0.0892 -0.07075,0.626081 -0.07515,0.65474 -0.03103,0.202815 0.08724,0.628387 0,0.818426 -0.159028,0.346431 -1.452415,0 -1.803356,0 -0.05092,0 -0.826539,0.0595 -0.826539,-0.08184 0,-0.208737 0.124144,0.234851 0.469624,0.736583 0.03006,0.04365 0.341074,0.193764 0.356915,0.245526 0.08381,0.273862 0.431591,0.264468 0.525978,0.572898 0.07153,0.233729 -0.50749,1.342409 -0.732611,1.309482 -0.260056,-0.03804 -1.355122,-0.996849 -1.653079,-1.125334 -0.06986,-0.03013 -0.169061,-0.26599 -0.244205,-0.26599 -0.06144,0 0.06407,1.660975 0,1.800536 -0.06993,0.152325 -1.127363,-0.04136 -1.202238,-0.163684 -0.03518,-0.05748 -0.354644,-2.057531 -0.525978,-1.964222 -0.532513,0.290006 -0.981303,1.901618 -1.653077,1.718694 -0.0613,-0.01671 -1.071342,-1.430943 -1.051958,-1.473165 0.08336,-0.181616 0.630164,-0.686381 0.751396,-0.818427 0.08855,-0.09645 0.337433,-0.266369 0.22542,-0.32737 -0.208063,-0.113312 -0.67027,0.04201 -0.901677,0 -0.194081,-0.03523 -0.412406,-0.177012 -0.60112,-0.245527 -0.28918,-0.104992 -0.3757,-1.30358 -0.3757,-1.636852 0,-0.190965 0.350654,0 0.525979,0 0.419236,0 1.775711,-0.111957 2.085133,0.225068"
       id="path998"
       sodipodi:nodetypes="cssssssssssccssssscssssssssssssssssssssc" />
    <path
       style="fill:#55ddff;stroke:none;stroke-width:0.5;stroke-linecap:butt;stroke-linejoin:miter;stroke-miterlimit:4;stroke-dasharray:none;stroke-opacity:1"
       d="m 192.33351,41.657716 c -0.10171,-0.166177 -0.93557,-1.485624 -1.03317,-1.698233 -0.0501,-0.109123 -0.20037,-0.218247 -0.15028,-0.327371 0.0575,-0.125348 0.1339,-0.06401 0.22542,-0.163685 0.11026,-0.120094 0.58668,-0.662604 0.7514,-0.572898 0.12064,0.0657 0.25506,0.09798 0.3757,0.163685 0.077,0.04196 0.71866,0.412299 0.81999,0.191564 0.0866,-0.188649 0.50963,-1.148733 0.53253,-1.173675 0.0673,-0.07335 0.51667,0 0.60112,0 0.15727,0 0.56201,-0.04259 0.67626,0.08184 0.23502,0.25599 -0.32522,2.498133 0.0794,2.718495 0.11002,0.05992 0.65743,-0.881638 0.7847,-1.020261 0.98085,-0.699498 1.05712,-1.070971 1.61551,-0.143225 0.0675,0.110365 -0.0702,0.139957 0.0751,0.245529 0.0129,0.0094 0.91244,0.459413 0.89115,0.529009 -0.11838,0.386796 -0.92068,0.59932 -1.16154,0.749234 -0.025,0.01556 -0.97647,0.162526 -0.93185,0.194922 0.48966,0.355557 2.40489,0.0823 2.55476,0.245528 0.0819,0.0892 -0.0708,0.626081 -0.0751,0.65474 -0.031,0.202815 0.0872,0.628387 0,0.818426 -0.15903,0.346431 -1.45242,0 -1.80336,0 -0.0509,0 -0.82654,0.0595 -0.82654,-0.08184 0,-0.208737 0.12415,0.234851 0.46963,0.736583 0.0301,0.04365 0.34107,0.193764 0.35691,0.245526 0.0838,0.273862 0.43159,0.264468 0.52598,0.572898 0.0715,0.233729 -0.50749,1.342409 -0.73261,1.309482 -0.26006,-0.03804 -1.35512,-0.996849 -1.65308,-1.125334 -0.0699,-0.03013 -0.16906,-0.26599 -0.24421,-0.26599 -0.0614,0 0.65466,1.164881 0.59059,1.304442 -0.0699,0.152325 -2.23767,0.171252 -2.31254,0.04893 -0.0352,-0.05748 0.16507,-1.774049 -0.006,-1.68074 -0.53251,0.290006 -0.29622,2.019736 -0.968,1.836812 -0.0613,-0.01671 -1.75642,-1.549061 -1.73704,-1.591283 0.0834,-0.181616 0.63017,-0.686381 0.7514,-0.818427 0.0885,-0.09645 0.33743,-0.266369 0.22542,-0.32737 -0.20806,-0.113312 -0.67027,0.04201 -0.90168,0 -0.19408,-0.03523 -0.97937,0.153717 -1.16808,0.0852 -0.28918,-0.104992 -0.0686,-1.634309 -0.0686,-1.967581 0,-0.190965 0.61051,0 0.78584,0 0.41923,0 1.77571,-0.111957 2.08513,0.225068"
       id="path1002"
       sodipodi:nodetypes="cssssssssssccssssscssssssssssssssssssssc" />
    <path
       style="fill:none;stroke:#000000;stroke-width:0.5;stroke-linecap:butt;stroke-linejoin:miter;stroke-miterlimit:4;stroke-dasharray:none;stroke-opacity:1"
       d="m 192.33351,41.657716 c -0.10171,-0.166177 -0.93557,-1.485624 -1.03317,-1.698233 -0.0501,-0.109123 -0.20037,-0.218247 -0.15028,-0.327371 0.0575,-0.125348 0.1339,-0.06401 0.22542,-0.163685 0.11026,-0.120094 0.58668,-0.662604 0.7514,-0.572898 0.12064,0.0657 0.25506,0.09798 0.3757,0.163685 0.077,0.04196 1.02577,1.121004 1.1271,0.900269 0.0866,-0.188649 0.20252,-1.857438 0.22542,-1.88238 0.0673,-0.07335 0.51667,0 0.60112,0 0.15727,0 0.56201,-0.04259 0.67626,0.08184 0.23502,0.25599 -0.25435,1.907545 0.15028,2.127907 0.11002,0.05992 0.58656,-0.29105 0.71383,-0.429673 0.98085,-0.699498 1.05712,-1.070971 1.6155,-0.143225 0.0676,0.110365 -0.0702,0.139957 0.0751,0.245529 0.0129,0.0094 0.32186,0.175931 0.30057,0.245527 -0.11838,0.386796 -0.66082,0.504826 -0.90168,0.65474 -0.025,0.01556 -0.64574,0.540502 -0.60112,0.572898 0.48965,0.355557 2.40489,0.0823 2.55475,0.245528 0.0819,0.0892 -0.0708,0.626081 -0.0751,0.65474 -0.031,0.202815 0.0872,0.628387 0,0.818426 -0.15902,0.346431 -1.45241,0 -1.80335,0 -0.0509,0 -0.82654,0.0595 -0.82654,-0.08184 0,-0.208737 0.12414,0.234851 0.46962,0.736583 0.0301,0.04365 0.34108,0.193764 0.35692,0.245526 0.0838,0.273862 0.43159,0.264468 0.52598,0.572898 0.0715,0.233729 -0.50749,1.342409 -0.73262,1.309482 -0.26005,-0.03804 -1.35512,-0.996849 -1.65307,-1.125334 -0.0699,-0.03013 -0.16907,-0.26599 -0.24421,-0.26599 -0.0614,0 0.0641,1.660975 0,1.800536 -0.0699,0.152325 -1.12736,-0.04136 -1.20224,-0.163684 -0.0352,-0.05748 -0.35464,-2.057531 -0.52598,-1.964222 -0.53251,0.290006 -0.9813,1.901618 -1.65307,1.718694 -0.0613,-0.01671 -1.07134,-1.430943 -1.05196,-1.473165 0.0834,-0.181616 0.63016,-0.686381 0.7514,-0.818427 0.0886,-0.09645 0.33743,-0.266369 0.22542,-0.32737 -0.20807,-0.113312 -0.67027,0.04201 -0.90168,0 -0.19408,-0.03523 -0.41241,-0.177012 -0.60112,-0.245527 -0.28918,-0.104992 -0.3757,-1.30358 -0.3757,-1.636852 0,-0.190965 0.35065,0 0.52598,0 0.41923,0 1.77571,-0.111957 2.08513,0.225068"
       id="path1004"
       sodipodi:nodetypes="cssssssssssccssssscssssssssssssssssssssc" />
  </g>
</svg>
