<?xml version="1.0" encoding="UTF-8" standalone="no"?>
<!-- Created with Inkscape (http://www.inkscape.org/) -->

<svg
   xmlns:dc="http://purl.org/dc/elements/1.1/"
   xmlns:cc="http://creativecommons.org/ns#"
   xmlns:rdf="http://www.w3.org/1999/02/22-rdf-syntax-ns#"
   xmlns:svg="http://www.w3.org/2000/svg"
   xmlns="http://www.w3.org/2000/svg"
   xmlns:sodipodi="http://sodipodi.sourceforge.net/DTD/sodipodi-0.dtd"
   xmlns:inkscape="http://www.inkscape.org/namespaces/inkscape"
   width="210mm"
   height="297mm"
   viewBox="0 0 210 297"
   version="1.1"
   id="svg8"
   inkscape:version="0.92.4 (5da689c313, 2019-01-14)"
   sodipodi:docname="gramaticas-de-clausulas-definidas.svg">
  <defs
     id="defs2" />
  <sodipodi:namedview
     id="base"
     pagecolor="#ffffff"
     bordercolor="#666666"
     borderopacity="1.0"
     inkscape:pageopacity="0.0"
     inkscape:pageshadow="2"
     inkscape:zoom="0.7"
     inkscape:cx="122.53434"
     inkscape:cy="770.76282"
     inkscape:document-units="mm"
     inkscape:current-layer="layer1"
     showgrid="false"
     inkscape:snap-others="true"
     inkscape:window-width="1600"
     inkscape:window-height="837"
     inkscape:window-x="-8"
     inkscape:window-y="-8"
     inkscape:window-maximized="1" />
  <metadata
     id="metadata5">
    <rdf:RDF>
      <cc:Work
         rdf:about="">
        <dc:format>image/svg+xml</dc:format>
        <dc:type
           rdf:resource="http://purl.org/dc/dcmitype/StillImage" />
        <dc:title></dc:title>
      </cc:Work>
    </rdf:RDF>
  </metadata>
  <g
     inkscape:label="Capa 1"
     inkscape:groupmode="layer"
     id="layer1">
    <path
       style="fill:#800000;stroke:none;stroke-width:0.7;stroke-linecap:butt;stroke-linejoin:miter;stroke-opacity:1;stroke-miterlimit:4;stroke-dasharray:none;opacity:1"
       d="m 10.95805,130.62472 c 0.158564,-1.06798 0.129677,-2.19508 0.534539,-3.20724 0.662962,-1.6574 3.220977,-7.17505 2.672696,-8.81989 -0.203428,-0.61028 -0.372195,-1.02601 -0.668174,-1.46998 -0.296515,-0.44478 -0.0077,-1.61137 -0.935443,-2.53906 -0.222725,-0.22273 0.222724,-1.11363 0,-1.33635 -0.839384,-0.83938 -0.823363,-4.84534 -0.133635,-5.87993 0.142064,-0.2131 -0.114956,-0.70553 0,-0.93544 0.183897,-0.3678 0.134007,-0.80293 0.267269,-1.20272 0.430558,-1.29167 1.058247,-2.66186 2.004522,-3.60814 0.934053,-0.93405 4.727466,-0.92939 6.414468,-1.06908 l 10.49033,-0.868626 c 1.366421,-0.113143 3.80202,0.06814 5.144939,-0.200447 5.320988,-1.064192 9.78989,-0.696204 15.234361,-1.603616 1.297424,-0.216239 3.733554,-0.13181 4.944486,-0.400905 0.461156,-0.102478 0.923883,-0.328305 1.33635,-0.53454 0.309194,-0.154596 0.847349,0.05923 1.202711,0 0.51671,-0.08612 0.873127,-0.535824 1.336347,-0.668173 1.086606,-0.310457 2.470967,-0.533686 3.474505,-1.202712 0.524484,-0.349657 1.103622,-1.198427 1.737252,-1.469982 1.047371,-0.448874 3.177124,-1.573509 3.875407,-2.271792 0.373058,-0.373057 0.186095,0.107405 0.668174,-0.133636 0.339505,-0.169751 1.508403,-1.155104 1.870887,-1.336347 0.815332,-0.407664 1.723298,-0.886245 2.672697,-1.202711 0.368098,-0.1227 0.849021,-0.09043 1.202711,-0.267271 0.254971,-0.127485 0.419774,-0.41034 0.668173,-0.534538 0.372285,-0.186142 1.17561,-0.106529 1.469983,-0.400905 0.205279,-0.205279 1.119843,-0.818732 1.469982,-0.935442 0.22854,-0.07618 0.915337,-0.247163 1.069079,-0.400905 0.09449,-0.09449 -0.09449,-0.306411 0,-0.400904 0.353549,-0.353552 1.231246,-0.419928 1.603618,-0.668174 0.454932,-0.303289 6.92481,-0.267271 7.884451,-0.267271 0.439256,0 -0.346956,0.03984 0.267269,-0.267269 0.626896,-0.313449 1.954358,0.01003 2.672694,-0.133636 1.184711,-0.236939 7.197372,-0.238588 8.151722,0 0.60807,0.152019 1.12505,0.432507 1.73725,0.534541 0.2197,0.03661 0.48286,-0.123545 0.66817,0 0.8286,0.552399 2.1203,0.764368 3.0736,1.336347 0.97603,0.585615 2.18426,1.448099 3.34087,1.737251 0.53669,0.134173 1.70964,0.346784 2.13816,0.668176 1.18807,0.891048 2.78516,0.01141 4.34313,0.400903 1.27166,0.317918 2.46227,0.85127 3.67496,1.336347 0.73739,0.294957 2.64216,0.986998 3.34087,1.336349 0.0891,0.04454 0.0507,0.212018 0.13363,0.267268 0.4342,0.289468 2.38177,0 2.93996,0 0.80619,0 1.45184,0.03245 2.00452,0.400905 0.89827,0.598839 4.11899,-0.825503 6.1472,1.202714 0.33609,0.336087 1.33689,0.937056 1.46999,1.336347 0.33188,0.995653 -0.031,2.16314 0.26727,3.207234 0.74556,2.60947 0.26727,5.91867 0.26727,8.68626 0,1.75434 0.4161,11.04607 0,12.2944 -0.2834,0.85019 -0.59609,1.8243 -0.93545,2.67269 -0.20834,0.52086 -0.76668,0.9637 -0.93544,1.46999 -0.27035,0.81106 -0.62542,1.69449 -1.20271,2.27179 -0.0789,0.0789 -0.18728,0.90908 -0.26727,1.06908 -0.44186,0.8837 -1.39955,1.9851 -2.13816,2.53906 -0.13892,0.36101 -0.47919,0.008 -0.66817,0.13363 -0.24573,0.16382 -0.51011,0.47371 -0.80181,0.66817 -0.18947,0.12631 -5.19649,1.41053 -5.61266,1.46999 -0.66408,0.0949 -1.93161,-0.10935 -2.53906,0.13363 -3.05875,1.2235 -4.93914,-0.28895 -8.0515,-0.63476 -2.70359,-0.17804 -9.03083,-0.39783 -11.49258,-0.7684 -2.516544,-0.41942 -8.638005,-0.22922 -11.191919,-0.66818 -4.140311,-0.71161 -5.412136,0.85375 -9.488066,0.86863 -1.820613,0.007 -3.94417,0.30035 -5.746295,0 -3.824063,-0.63735 -9.04399,-0.13364 -12.962572,-0.13364 -1.662637,0 -7.503711,-0.38074 -8.552625,0.66818 -0.01199,0.012 -5.372925,0.2319 -6.280835,0.53454 -0.984832,0.32827 -2.205858,0.11165 -3.073598,0.4009 -3.699198,1.23307 -8.005658,0.765 -12.027128,0.93544 -4.712967,0.19975 -10.787239,-0.38316 -16.683504,-0.50419 -4.68683,-0.0962 -4.335948,0.50822 -4.965329,-0.69852 -0.381534,-0.38153 -0.76538,-0.0121 -0.534539,-0.93544 z"
       id="path993"
       inkscape:connector-curvature="0"
       sodipodi:nodetypes="ccccccccccssccccccscccccccccsccscscccccccsccsccccscccccccccsccsscscccsscc" />
    <path
       style="fill:#ffe6d5;stroke:none;stroke-width:0.7;stroke-linecap:butt;stroke-linejoin:miter;stroke-opacity:1;stroke-miterlimit:4;stroke-dasharray:none;opacity:1"
       d="m 44.021191,70.198876 c 0.396023,-3.215118 0.66331,-6.404742 2.138156,-9.354433 0.186891,-0.373785 0.03208,-0.930146 0.133633,-1.336347 0.256355,-1.025411 0.786635,-2.115394 1.336349,-2.939966 0.276038,-0.414057 0.336013,-1.271455 0.668174,-1.603615 0.836517,-0.836518 2.15582,-2.975293 2.672694,-4.009044 0.129661,-0.259323 0.700008,-0.464568 0.801809,-0.668173 0.257521,-0.515046 0.434316,-0.968854 0.801809,-1.33635 0.08909,-0.08909 0.44545,0.08909 0.534538,0 0.575392,-0.575389 1.938022,-0.868942 2.672696,-1.603615 0.218676,-0.218676 0.99895,-0.197144 1.202714,-0.400905 0.374277,-0.37428 1.052671,-0.756094 1.469983,-1.069078 0.138922,-0.361019 0.479184,-0.0076 0.668173,-0.133636 0.709912,-0.473273 1.221092,-0.877816 2.138156,-1.336347 0.553014,-0.276505 3.033824,-0.361129 3.340867,-0.668173 0.393526,-0.393525 2.942376,0.06802 3.34087,0.267269 0.494089,0.247044 1.575827,0.02117 2.138156,0.133635 0.645589,0.129117 1.335691,0.534409 2.004521,0.668174 0.477554,0.09551 0.681188,0.672513 1.06908,0.801809 0.169035,0.05635 0.375169,-0.07968 0.534538,0 0.143653,0.07183 0.133636,0.311814 0.267269,0.400905 0.965391,0.643591 2.235774,1.227352 3.207234,2.00452 0.859637,0.687708 1.434645,1.568278 2.138156,2.271792 0.952828,0.952825 1.547588,1.435523 2.004523,2.806329 0.461621,1.384864 1.329947,3.067199 2.271789,4.009044 0.559671,0.559668 0.583632,2.612697 1.069079,3.340867 0.302498,0.453747 0.400904,3.973531 0.400904,4.810853 0,1.976919 0.335836,4.41344 1.069078,5.879928 0.243546,0.48709 -0.113051,1.377513 0.133636,1.870887 0.384619,0.769239 1.750369,8.332499 1.069078,9.354433 -0.654709,0.982065 -1.644233,2.099187 -2.123335,3.057388 -0.16791,0.335823 -1.387844,-0.03217 -1.662765,0.105294 -1.124296,0.56215 -3.858181,1.49514 -3.858181,3.022267 0,0.530775 0.335823,3.275566 0.558856,3.721629 0.20365,0.407297 0.609735,2.091142 0.754562,2.525627 0.620345,1.861037 1.415493,3.403539 2.279897,4.700146 0.252024,0.378036 0.210911,2.15288 0.275377,2.41075 0.153908,0.61563 1.559514,2.42575 1.288766,2.96724 -0.183571,0.36714 0.471021,-0.42676 0.348667,-0.0597 -0.24987,0.7496 -3.220892,2.45907 -4.142677,3.07359 -0.424579,0.28305 -0.989708,0.1879 -1.336349,0.53454 -0.433573,0.43357 -3.143475,0.44749 -3.875408,0.93545 -1.033952,0.6893 -2.783858,0.76278 -4.009043,1.06907 -0.536779,0.1342 -1.258824,0.74902 -2.00452,0.93545 -0.373304,0.0933 -0.996307,-0.17002 -1.336347,0 -0.291127,-0.05 -0.04455,0.22272 -0.133636,0.26727 -0.658011,0.329 -2.320428,0 -3.073601,0 -3.598019,0 -7.33385,-0.25121 -9.621703,-2.53906 -0.577603,-0.57761 -1.464532,-1.01727 -2.00452,-1.73726 -0.563872,-0.75183 -1.915887,-2.76269 -2.271792,-3.4745 -0.05976,-0.11953 0.06875,-0.28631 0,-0.4009 -0.08263,-0.13773 -0.31827,-0.12955 -0.400904,-0.26727 -0.417915,-0.69653 -0.561343,-2.03133 -1.202711,-2.6727 -0.575514,-0.575515 -1.379572,-1.778493 -1.737252,-2.672698 -0.393367,-0.983416 -1.04802,-2.651635 -1.737254,-3.340869 -0.149238,-0.149239 -0.07946,-0.639284 -0.133633,-0.801807 -0.235932,-0.707797 -0.777764,-1.726618 -0.935445,-2.672696 -0.138592,-0.831554 -0.08313,-1.576811 -0.267269,-2.405425 -0.333994,-1.502974 0.08961,-3.07204 -0.400905,-4.543584 -1.259726,-3.779181 -3.28055,-10.236666 -0.534537,-13.898015 z"
       id="path946"
       inkscape:connector-curvature="0"
       sodipodi:nodetypes="cccscscccsccccccsscccccscsscscccsscsccccccccccscccccscccccsc" />
    <path
       style="fill:#4d4d4d;stroke:none;stroke-width:0.7;stroke-linecap:butt;stroke-linejoin:miter;stroke-opacity:1;stroke-miterlimit:4;stroke-dasharray:none;opacity:1"
       d="m 30.427083,99.12946 c -0.108871,-2.538042 -0.761987,-6.854277 0.308912,-8.996077 0.239027,-0.478052 -0.02574,-0.896845 0.267271,-1.336347 0.462042,-0.693065 -0.456691,-2.28757 0.298303,-3.042564 0.01781,-0.01781 0.316958,-3.464567 0.541256,-3.91316 0.09987,-0.199736 0.330447,-1.464376 0.573678,-1.707607 0.173604,-0.173604 0.581063,-0.712582 0.684388,-0.919229 0.106907,-0.213818 0.522124,-0.982184 0.629031,-1.195999 0.112731,-0.225462 0.880706,-1.878219 0.966479,-1.963989 0.189529,-0.189529 0.920096,-1.305656 1.085291,-1.636042 1.0429,-2.085803 2.205206,-3.780859 3.373294,-5.532988 0.594116,-0.891178 2.212681,-7.290805 2.271789,-7.349913 0.356359,-0.35636 -0.356359,-1.781797 0,-2.138156 0.516409,-0.516409 0.267272,-1.98595 0.267272,-2.80633 0,-1.369129 -0.517987,-3.558481 -0.902035,-4.710625 -0.453475,-1.360424 -1.04854,-5.741096 -0.567948,-7.182869 0.153871,-0.461619 0.677653,-0.410385 0.935442,-0.668174 0.813832,-0.813832 3.770511,-1.594038 5.34539,-1.069078 0.410327,0.136777 1.257621,0.293513 1.737252,0.133636 0.963861,-0.321286 3.507711,-1.362914 4.142679,-1.870887 0.125415,-0.100333 0.129548,-0.318273 0.267269,-0.400905 0.632431,-0.37946 1.624608,-0.637622 2.271792,-1.069078 0.605718,-0.403812 1.334418,-1.266637 1.737251,-1.870887 0.198694,-0.29804 0.785778,-0.36884 0.935443,-0.668174 0.748516,-1.497033 2.671516,-2.738921 4.409947,-3.608138 0.85311,-0.426554 1.781088,-0.563761 2.539061,-1.069078 0.13181,-0.08787 0.524558,0.04787 0.668174,0 0.753927,-0.25131 1.485564,-0.809599 2.004523,-1.069078 0.675251,-0.337625 4.336499,-0.282316 5.34539,-0.534538 2.222164,-0.555543 8.588454,-1.458039 10.958049,-0.668176 0.592577,0.197527 1.067761,0.453832 1.603619,0.668176 0.319399,0.127759 1.071451,-0.04296 1.336347,0.133633 0.38699,0.257993 1.157197,0.685797 1.737251,0.801809 1.460513,0.292103 3.700036,0.626436 4.810853,1.737252 0.428434,0.428437 1.630613,0.027 2.138156,0.53454 0.644641,0.644641 3.103837,1.500222 3.741772,2.138156 0.232428,0.232426 0.741328,0.905203 1.069078,1.069078 0.857468,0.428731 3.170448,1.8341 3.875408,2.539061 0.30312,0.30312 1.27097,-0.143808 1.63702,0.100225 0.72599,0.483992 1.85611,0.391045 2.57248,0.868626 0.24114,0.160761 1.53859,0.762441 1.80406,0.868627 1.91073,0.764289 3.92347,0.382139 5.47903,1.937704 0,0 1.42723,1.360412 1.87089,1.804068 0.48913,0.489135 0.40909,1.544987 0.90203,2.037929 1.04397,1.043961 1.52618,2.07211 2.3052,3.240645 0.60567,0.908505 1.17414,1.780332 1.73725,2.906555 0.52911,1.058209 1.03468,2.504662 2.00452,3.474505 0.29336,0.293357 0.4791,1.893639 0.66818,2.27179 0.61225,1.224497 1.48175,2.823985 2.27179,4.009043 0.19741,0.296114 0.65777,0.524134 0.93544,0.801809 1.46297,1.462966 2.47236,2.525766 4.27631,3.608139 0.43013,0.258077 0.8553,0.908785 1.06908,1.336347 0.27583,0.551656 1.1463,1.012666 1.60362,1.469982 0.18553,0.185534 0.15204,0.820217 0.4009,1.069078 1.05054,1.050542 2.02833,2.987575 2.6727,4.276313 0.10287,0.20574 -0.039,0.567986 0,0.801809 0.10069,0.604149 0.21893,0.972407 0.4009,1.336347 0.24655,0.493085 -0.16628,1.900507 -0.26726,2.405425 -0.25283,1.264115 0,2.848607 0,4.142679 0,2.100016 0.008,4.132463 -1.20272,5.746295 -0.0802,0.106907 0.0423,0.274127 0,0.400904 -0.0941,0.282192 -0.37577,0.56365 -0.53454,0.801807 -0.0534,0.08018 0.0668,0.334087 0,0.400904 -0.10874,0.108744 -0.14218,0.543087 -0.26727,0.668174 -0.32106,0.321061 -0.97069,0.752615 -1.33634,0.935445 -0.29218,0.14609 -4.84953,0.123965 -5.3454,0 -0.89994,-0.224986 -1.76827,-0.842973 -2.67269,-1.069078 -1.79323,-0.44831 -4.13059,-0.929399 -5.47902,-1.603619 -1.13195,-0.56597 -2.65425,-0.261117 -3.87542,-0.668173 -0.35784,-0.119282 -0.85349,0.139687 -1.20271,0 -0.65648,-0.262591 -1.35165,-0.63859 -2.00452,-0.801809 -1.27181,-0.317953 -1.96069,-0.116102 -3.34087,-0.668174 -0.77183,-0.308734 -1.48899,-0.0095 -2.53906,-0.534537 -0.42863,-0.214316 -1.67247,0.198411 -2.00452,-0.133636 -0.7569,-0.756902 -3.21587,-1.006576 -4.40995,-1.603616 -0.8055,-0.402751 -1.32529,0.278321 -1.46997,0.133634 -0.529734,-0.529725 -0.670915,-0.980899 -1.336356,-1.202713 -0.65881,-0.219604 -2.055852,-0.02567 -2.672697,-0.334088 -0.723706,-0.361854 -5.232569,-0.691176 -6.080381,-0.267268 -1.636064,0.818031 -3.179566,-0.247696 -4.610398,0.467721 -0.44005,0.220025 -2.873634,0.199967 -2.939965,0.133633 -1.64e-4,-1.64e-4 0.668173,-1.70966 0.668173,-2.00452 0,-0.987867 0.349774,-9.631579 0,-10.156243 -0.547068,-0.8206 -1.603616,-6.210927 -1.603616,-7.483546 0,-0.894657 0.379114,-2.849907 0,-3.608139 -0.946507,-1.893012 -1.557861,-3.539503 -2.672696,-5.211754 -0.05492,-0.08239 -1.074428,-1.197364 -0.801809,-1.469983 0.630288,-0.630288 1.202714,1.800876 1.202714,2.138156 0,0.600715 0.06767,1.804924 0.400904,2.138156 0.177499,0.177499 -0.09048,0.538702 -0.133636,0.668174 -0.349988,1.049964 -0.133635,4.54905 -0.133635,5.87993 0,0.750636 0.232015,1.976649 0,2.672694 -0.521579,1.564738 -1.801048,8.349152 -2.539058,9.087165 -0.334087,0.334087 0.06682,1.403165 -0.267272,1.737251 -0.70722,0.707224 0.07046,3.834721 -0.367494,4.710627 -0.576707,1.153411 -0.09572,4.792553 0.35079,5.462319 0.3727,0.559052 0.951876,1.986732 1.135897,2.722808 0.392705,1.570823 0.720756,3.432042 1.5368,4.944487 0.73232,1.357273 0.712879,2.471712 1.085782,3.541322 0.129865,0.12987 -0.137888,0.39878 0.133635,0.53454 0.126244,0.0631 2.86813,4.47927 2.53906,4.64381 -0.71718,0.35859 -3.214325,-4.79518 -3.34087,-5.11153 -0.281353,-0.70339 -0.827401,-1.02004 -1.169303,-1.703847 -0.286952,-0.573899 -1.041579,-1.860598 -1.286236,-2.472241 -0.484196,-1.210492 -0.84606,-6.575652 -1.586912,-7.316504 -0.458161,-0.45816 0.146812,-3.354976 -0.100227,-4.343132 -0.09465,-0.378605 -0.188419,-1.546148 -0.367494,-1.904293 -0.198218,-0.396438 1.056671,-7.583085 1.250367,-8.164168 0.543431,-1.630289 -0.203844,-3.984895 0.58711,-5.566805 0.168161,-0.336322 0.0047,-0.746858 0.133636,-1.069078 0.803478,-2.008701 0.140351,-3.764841 0.140351,-5.950103 0,-0.827434 -0.734634,-2.707837 -0.897694,-3.523143 -0.498684,-2.493415 -1.706682,-3.915531 -3.598643,-5.334502 0,0 -1.559584,-1.575653 -1.793995,-1.731926 -1.194903,-0.796603 -0.903398,-0.944529 -2.001739,-1.768288 -0.41851,-0.313881 -1.141997,-0.246026 -1.603619,-0.534538 -0.348257,-0.217662 -0.554132,-0.649285 -0.935442,-0.801809 -0.407853,-0.16314 -0.925579,0.0066 -1.33635,-0.267269 -1.647892,-4.413233 -7.096821,0.940156 -7.450137,0.200451 -0.874888,-1.831674 0.08261,-2.346802 -2.706103,0.434313 -0.318186,0.317319 -0.04448,1.729744 -0.400906,2.204973 -0.695007,1.149456 -2.327923,1.014414 -3.207232,1.03567 -0.173288,0.0042 -0.199216,0.833361 -0.267269,0.935443 -0.08909,0.133636 -0.287338,0.153702 -0.400905,0.267269 -0.308544,0.308543 -0.420896,1.242697 -0.668176,1.737254 -0.160052,0.320103 0.114239,0.859996 0,1.202711 -0.540594,1.62179 0.578731,4.276847 -0.400902,5.746295 -0.882028,1.323043 -5.207579,4.706661 -3.842984,5.091551 0.952505,0.268659 1.849751,2.492776 2.431137,2.745653 1.10321,0.479847 2.226866,3.610932 1.012332,5.227967 -0.627963,0.836073 -0.190225,2.37001 -0.503504,3.309836 -0.361735,1.085202 -1.699849,1.37421 -1.225642,2.796832 0.466654,1.399958 1.975862,1.522385 2.796835,2.343357 0.156781,0.156785 2.178139,0.956434 2.346137,1.124433 1.299425,1.299425 -2.213737,6.357881 -1.277059,7.294559 0.127478,0.127479 -0.100002,0.651806 0,0.801809 0.203313,0.304969 2.398709,4.756286 2.398709,5.149684 0,0.423095 -0.359994,0.13046 -0.260553,0.329339 0.498123,0.996249 0.979607,2.188497 1.590186,3.409657 0.246988,0.49397 0.254261,2.9505 -0.05339,3.87344 1.74918,3.66331 -2.485763,2.94223 -3.006783,2.87315 -0.406694,1.22007 -1.638086,1.80618 -2.004523,2.53906 -0.694089,1.38818 -1.585669,2.50316 -2.271789,3.8754 -0.527606,1.05521 -1.031703,2.76896 -1.737252,3.47451 -0.150619,0.15062 0.03195,0.90349 -0.133635,1.06908 -0.47602,0.47602 -0.467673,1.00211 -0.668174,1.60361 -0.200406,0.60122 -1.040741,1.44841 -1.336347,2.13816 -0.30322,0.70751 0.01289,0.44841 -0.400904,1.06908 -0.520618,0.78092 -0.673227,2.27684 -1.202714,2.80633 -0.353304,0.3533 -0.534538,1.65257 -0.534538,1.33634 0,-1.51744 0.06617,0.63123 -0.267271,-1.20271 -0.244198,-1.34309 0.0043,-3.09514 0.267271,-4.40994 0.06102,-0.30511 1.041308,-3.33914 1.202711,-3.60814 0.810932,-1.35156 1.234176,-4.70868 2.004523,-5.47903 0.191146,-0.19114 0.188114,-0.83161 0.267269,-1.06908 0.192474,-0.57742 1.069078,-1.20339 1.069078,-1.73725 0,-0.31824 0.428906,-0.59054 0.534538,-0.80181 0.03984,-0.0797 0,-0.35636 0,-0.26727 0,1.51504 -1.116576,3.06516 -1.737252,4.40995 -0.281955,0.61091 -0.506412,1.49111 -0.668173,2.13816 -0.05402,0.21607 -0.3013,0.33532 -0.400905,0.53453 -0.103896,0.2078 -0.02974,0.59402 -0.133633,0.80181 -0.324329,0.64866 -0.812628,1.3634 -1.069078,2.00453 -0.601803,1.5045 -1.218829,3.23946 -1.870887,4.54358 -0.234675,0.46935 -1.529236,3.52409 -2.405425,2.93996 -1.515245,-1.01016 -0.484788,-8.65213 0.267269,-10.15624 0.378796,-0.75759 -0.248566,-1.77466 0.133633,-2.53906 0.334288,-0.66857 0.691406,-1.18914 1.202714,-1.87089 0.478713,-0.63828 1.309404,-2.53906 1.336347,-2.53906 0.519199,0 -0.236707,2.34431 -1.069078,4.00905 -0.740619,1.48124 -1.793714,2.78561 -2.539061,4.27631 -0.500922,1.00184 -0.754584,1.89701 -1.336347,2.67269 -1.087101,1.44947 -1.209315,2.83274 -1.603616,4.40995 -0.173437,0.69374 -1.259681,0.97271 -1.469982,1.60362 -0.06989,0.20966 -0.02418,0.37248 -0.267272,0.53454 -0.198768,0.13251 -0.723487,0.0806 -0.935442,0.13363 -0.381037,0.0953 -1.441887,0.34814 -1.870887,0.13364 -0.314183,-0.15709 -0.133634,-1.80516 -0.133634,-2.13816 0,-1.26371 1.061755,-3.6658 1.870885,-4.67722 0.374798,-0.46849 1.000884,-0.83315 1.33635,-1.33634 0.306353,-0.45953 0.789826,-1.53081 1.202711,-1.73726 0.01482,-0.007 1.285563,-2.06864 1.336349,-2.27179 0.05402,-0.21607 -0.08272,-0.46138 0,-0.66817 1.393619,-3.48405 1.202711,-8.12149 1.202711,-12.16076 0,-0.9359 -0.468628,-3.04248 -0.801802,-3.875413 -0.27292,-0.682303 -1.071865,-3.72952 -1.071865,-4.49101 0,-4.136673 0.645375,-5.216561 -0.313125,-9.050567 -0.279684,-1.118727 0.71681,-4.00578 0.71681,-5.167288 v -1.336349 -0.400905 c 0,2.124916 -2.17582,7.120308 -3.474503,8.418991 -0.376658,0.376659 -0.341003,1.142813 -0.668174,1.469983 -0.58089,0.58089 -0.23146,3.438692 -0.668173,3.875408 -0.349065,0.349062 -0.233217,0.699651 -0.400905,1.202713 -0.549963,1.649889 -1.323271,3.389678 -0.442547,5.120667 z"
       id="path976"
       inkscape:connector-curvature="0"
       sodipodi:nodetypes="cccscsccccccssscscsccscccccscccccccccsscccccccccscccccscccscccccccccccccscscsscscscsccssccsscccccscccccsccccscscccccccsscsccccsssscccccsscccccsccccccscccccscscccccccsccsccccccccscccccscscscccccccc" />
    <path
       style="fill:#ffe6d5;stroke:none;stroke-width:0.7;stroke-linecap:butt;stroke-linejoin:miter;stroke-opacity:1;stroke-miterlimit:4;stroke-dasharray:none;opacity:1"
       d="m 100.63616,61.331845 c -0.0254,-0.06574 -0.097,-0.129972 -0.076,-0.197205 0.006,-0.02043 2.29966,-1.353854 2.47224,-1.403165 0.10708,-0.03059 0.245,0.06682 0.33409,0 0.42531,-0.318984 0.29495,-0.04334 0.66817,-0.267269 0.55116,-0.330697 0.51491,-0.312475 1.1359,-0.467722 0.19192,-0.04798 0.40364,-0.313031 0.60135,-0.400905 0.38548,-0.17132 0.64932,-0.224432 1.00226,-0.400904 0.38335,-0.191672 1.93852,-0.133837 2.47225,-0.267269 0.38437,-0.09609 0.74075,-0.168484 1.13589,-0.267269 0.20963,-0.05241 0.45856,0.05241 0.66818,0 0.20467,-0.05117 0.39975,-0.200067 0.60135,-0.267269 0.23375,-0.07791 0.66026,0.03737 0.86863,-0.06682 0.36834,-0.184168 0.85331,-0.262167 1.26953,-0.400904 0.48724,-0.162415 0.9867,-0.19267 1.40317,-0.400905 0.31603,-0.158017 0.6306,-0.11485 0.93544,-0.267269 0.38351,-0.191756 1.4326,-1.123573 1.62867,-1.319643 0.24779,-0.247798 0.78833,-0.420833 1.00226,-0.634764 0.12789,-0.127892 0.45828,-0.216067 0.61807,-0.375849 0.0704,-0.07043 0.22189,-0.0047 0.29232,-0.07517 0.16976,-0.169762 0.5133,-0.179218 0.73499,-0.400904 0.12868,-0.128683 0.57491,-0.588135 0.73499,-0.668174 0.55523,-0.277614 1.14218,-1.116594 1.54317,-1.517578 0.25434,-0.254339 0.78874,-0.632264 1.11632,-1.041749 0.11262,-0.451131 0.72637,-0.958351 0.897,-1.316429 0.0657,-0.131347 0.24695,-0.180857 0.35772,-0.36547 0.2767,-0.461174 0.31329,-0.606118 0.82983,-0.502808 0.4849,0.09698 0.73266,1.686713 0.66817,2.138156 -0.0466,0.326308 -0.28344,0.926287 -0.46772,1.202711 -0.51479,0.772192 -1.21746,1.558917 -1.73725,2.33861 -0.2652,0.397801 -0.54975,0.883835 -0.86863,1.202713 -0.37687,0.37687 -0.73564,1.626757 -1.06908,2.071339 -0.28701,0.382688 -0.52851,0.722931 -0.73499,1.135896 -0.17368,0.34736 -0.72642,0.651039 -0.93544,1.069078 -0.22431,0.448603 -0.43576,0.909283 -0.53454,1.403164 -0.005,0.02666 -0.59523,1.195052 -0.60136,1.202712 -0.1315,0.08767 -0.23888,0.140324 -0.33409,0.267271 -0.19162,0.255503 0.0997,0.01206 -0.13363,0.400905 -0.23714,0.395229 -0.58394,0.889949 -0.86863,1.269529 -0.39291,0.523888 -0.40369,1.071872 -0.86862,1.5368 -0.18033,0.180324 -0.30794,1.096672 -0.46772,1.336347 -0.17392,0.260877 -0.33357,0.633979 -0.53454,0.935442 -0.12093,0.181386 -0.025,0.505193 -0.13364,0.668176 -0.25299,0.379479 -0.53609,0.915242 -0.80181,1.26953 -0.11282,0.150428 0.0127,0.348469 -0.0668,0.467722 -0.16037,0.240551 -0.30313,0.770845 -0.46773,0.935442 -0.39247,0.392475 -0.80977,1.034135 -0.93544,1.536801 -0.0545,0.21795 -0.65647,0.845227 -0.80181,1.135896 -0.0565,0.113091 -0.13579,0.469884 -0.20045,0.534537 -0.0207,0.02074 -0.24438,0.04207 -0.26727,0.133636 -0.12489,0.49956 -0.48236,0.816446 -0.80181,1.135896 -0.0465,0.04651 -0.0742,0.341445 -0.13363,0.400902 -1.116,1.115997 -2.4832,2.368188 -3.74177,3.207237 -0.20952,0.139679 -0.46789,0.434395 -0.66818,0.534538 -0.42054,0.210272 -0.87849,0.343953 -1.20271,0.668173 -0.0536,0.05357 -1.48391,0.441275 -1.67043,0.53454 -0.18603,0.09301 -0.35448,0.251794 -0.60136,0.334087 -0.11087,0.03695 -0.83972,0.42981 -0.86863,0.400905 -0.174,-0.174006 -0.0811,-2.147988 0,-2.472243 0.19973,-0.798923 0,-2.209337 0,-3.073601 0,-0.268666 0.17007,-0.905055 0.33409,-1.069078 0.12348,-0.123484 0.004,-1.395593 -0.0668,-1.536801 -0.19095,-0.381891 -0.36911,-0.671398 -0.53454,-1.00226 -0.39428,-0.788569 -0.49458,-1.751026 -0.80181,-2.672694 -0.0603,-0.18084 0.0464,-0.415787 0,-0.601358 -0.14601,-0.584068 -0.13509,-1.205632 -0.4009,-1.737251 -0.1292,-0.258393 -0.001,-0.670526 -0.13364,-0.935443 -0.0223,-0.04454 -0.11136,-0.02228 -0.13363,-0.06682 -0.12582,-0.251632 -0.0268,-0.6683 -0.13363,-0.935442 -0.13267,-0.331676 -0.92811,-2.702438 -1.00226,-2.739514 -0.0798,-0.03989 -0.228504,-0.773761 -0.13364,-0.868625 0.15257,-0.152572 0.3356,-0.01201 0.61054,-0.404153 z"
       id="path989"
       inkscape:connector-curvature="0"
       sodipodi:nodetypes="cccccscccccccccccccccccccccccccccccccccccccccccccccccccccccsccccccccccccc" />
    <path
       style="fill:#ffffff;stroke:none;stroke-width:0.7;stroke-linecap:butt;stroke-linejoin:miter;stroke-opacity:1;stroke-miterlimit:4;stroke-dasharray:none;opacity:1"
       d="m 55.324792,92.739262 c 0.102005,-0.580184 0.424508,-0.0062 0.615683,-0.08264 0.329237,-0.131694 0.680448,-0.0772 1.015812,-0.188986 0.298231,-0.09941 0.708343,0.07101 1.063056,-0.07087 0.0986,-0.03944 0.29205,0.03366 0.377979,-0.02363 0.123169,-0.08211 0.926782,-0.241702 0.944938,-0.259861 0.04699,-0.04699 0.303937,0.0011 0.377978,-0.02363 0.169146,-0.05638 0.639149,-0.05972 0.708705,-0.0945 0.220808,-0.110402 0.491877,-0.03438 0.732327,-0.09449 0.09884,0.04278 0.02733,-0.03728 0.04725,-0.04725 0.07062,-0.03531 1.11743,-0.02363 1.299292,-0.02363 0.31987,0 1.49048,-0.06226 1.67727,0 0.04792,0.01598 0.565081,0.163483 0.566963,0.165365 0.05177,0.05177 0.01564,0.04458 0.0945,0.07087 0.04271,0.01423 0.13049,2.64e-4 0.165365,0.02363 0.142708,0.09514 0.42975,0.22987 0.590587,0.283483 0.104204,0.03473 0.255622,-0.02574 0.354351,0.02363 0.208039,0.104018 1.023062,0.172614 1.086684,0.236236 0.04581,0.04581 0.223017,-0.03023 0.283482,0 0.165971,0.08299 0.383575,0.149048 0.543341,0.188986 0.16401,0.041 0.222549,0.111276 0.377975,0.18899 0.06766,0.03383 0.193599,-0.0095 0.259858,0.02363 0.436216,0.218107 0.947904,0.261339 1.370164,0.472469 0.253074,0.126537 0.167835,0.464365 0.236235,0.566965 0.05435,0.08152 0.08791,0.326872 0.04725,0.448847 -0.123719,0.371158 -1.381522,0.651539 -1.724517,0.708705 -0.07853,0.0131 -0.125037,0.08198 -0.212611,0.09449 -0.108038,0.01543 -0.222689,-0.01543 -0.330729,0 -0.188405,0.02692 -0.377638,0.107318 -0.566963,0.14174 -0.182568,0.03319 -0.384979,-0.0095 -0.566965,0.02363 -0.281805,0.05124 -0.567581,0.133934 -0.850447,0.165364 -0.241954,0.02688 -0.546082,-0.06671 -0.779577,0 -0.248716,0.07106 -0.537199,0.08457 -0.779573,0.165365 -0.05915,0.01971 -0.152482,-0.01201 -0.212614,0 -0.09792,0.01958 -0.25776,0.117419 -0.330729,0.14174 -0.161097,0.0537 -0.329666,0.07517 -0.496094,0.141742 -0.147796,0.05912 -0.825585,0.04663 -0.921316,0.09449 -0.01574,0.0079 -0.0079,0.03937 -0.02363,0.04725 -0.161895,0.08095 -1.622057,0.0136 -1.937128,0.07087 -0.138419,0.02516 -0.281683,0.06839 -0.425225,0.09449 -0.249367,0.04534 -0.531516,0.0059 -0.755952,0.118118 -0.08813,0.04406 -0.278595,-0.0095 -0.377975,0.02363 -0.253572,0.08452 -1.062967,0.244139 -1.370164,0.14174 -0.04794,-0.01598 -0.18796,-0.160023 -0.236236,-0.188987 -0.03337,-0.02003 -0.107865,-0.01336 -0.141739,-0.04725 -0.06777,-0.06777 -0.454168,-0.346691 -0.472472,-0.401598 -0.07391,-0.221723 -0.271219,-0.491408 -0.401598,-0.708705 -0.02027,-0.03376 0.0077,-0.07951 0,-0.118118 -0.02159,-0.108002 -0.02633,0.01685 -0.07087,-0.09449 -0.03534,-0.08834 -0.0088,-0.112081 -0.07087,-0.236234 -0.05222,-0.104444 -0.009,-0.239741 -0.04725,-0.354354 -0.02307,-0.06923 -0.02992,-0.05668 -0.07087,-0.118117 -0.03829,-0.05744 -0.0132,-0.191763 -0.04725,-0.259858 -0.0204,-0.0408 -0.07601,-0.0863 -0.09449,-0.14174 -0.0621,-0.186312 -0.04709,-0.425072 -0.18899,-0.566965 -0.04788,-0.04788 0.0035,-0.232775 -0.04725,-0.283483 -0.127085,-0.127084 -0.09531,-0.344077 -0.284954,-0.437076 z"
       id="path970"
       inkscape:connector-curvature="0" />
    <path
       inkscape:connector-curvature="0"
       id="path944"
       d="m 53.253451,69.854309 c -0.306374,0.04549 -0.704667,0.08001 -0.935442,0.23386 -0.134257,0.08951 -0.506097,-0.02061 -0.668173,0.03341 -0.368086,0.122695 -0.790845,-0.0073 -1.102487,0.200454 -0.09393,0.06262 -0.09904,0.199263 -0.200451,0.300677 -0.08971,0.08971 -0.233863,0.127921 -0.233863,0.167042 0,0.437291 0.68892,0.995929 1.035669,1.169305 0.10037,0.05018 0.381625,0 0.501132,0 0.183906,0 0.360418,0.0071 0.467722,-0.100226 0.05534,-0.05534 0.186981,-0.02991 0.23386,-0.100225 0.120235,-0.18035 0.27005,-0.740552 0.400905,-1.002262 0.01781,-0.03563 -0.01781,-0.098 0,-0.133634 0.06262,-0.125248 0.198181,-0.230457 0.267269,-0.334086 0.09138,-0.137065 0.140917,-0.294897 0.233859,-0.434315 z"
       style="fill:#d40000;stroke:none;stroke-width:0.7;stroke-linecap:butt;stroke-linejoin:miter;stroke-opacity:1;opacity:1;stroke-miterlimit:4;stroke-dasharray:none" />
    <path
       inkscape:connector-curvature="0"
       id="path942"
       d="m 63.405506,67.09598 c 0.308988,-0.337121 0.729853,-0.514765 0.944941,-0.944941 0.15122,-0.302442 -0.458095,-0.770329 -0.188989,-1.039434 0.820774,-0.820772 4.824155,-1.039434 6.3311,-1.039434 0.724456,0 1.448909,0 2.173364,0 0.220486,0 0.661459,-0.220485 0.661459,0 0,0.149273 -1.15738,0.677093 -1.417413,0.850448 -0.300635,0.200424 -0.497022,0.531992 -0.755951,0.661458 -1.420363,0.710181 -2.860461,0.701503 -4.441219,1.228421 -0.907892,0.30263 -1.905704,-0.417312 -2.74033,0 -0.234918,0.117459 -0.09378,0.165187 -0.566962,0.283482 z"
       style="fill:#d40000;stroke:none;stroke-width:0.7;stroke-linecap:butt;stroke-linejoin:miter;stroke-opacity:1;opacity:1;stroke-miterlimit:4;stroke-dasharray:none" />
    <path
       inkscape:connector-curvature="0"
       id="path940"
       d="m 46.302083,67.001487 c 1.306033,-0.280374 1.789859,-0.992187 3.165552,-0.992187 0.287414,0 0.994416,0.02474 1.228422,0.141741 0.287832,0.143915 1.159831,0.574078 1.464657,0.47247 0.206132,-0.06871 1.219671,-0.575717 1.41741,-0.377976 0.48473,0.48473 0.196588,1.700892 -0.283481,1.700892 -0.693639,0 -3.581662,0.735367 -4.086868,0.566965 -0.448609,-0.149537 -0.624071,-0.782864 -1.110307,-0.94494 -1.007673,-0.335891 -0.676179,0.328398 -1.795385,-0.566965 z"
       style="opacity:1;fill:#4d4d4d;stroke:none;stroke-width:0.7;stroke-linecap:butt;stroke-linejoin:miter;stroke-opacity:1;stroke-miterlimit:4;stroke-dasharray:none"
       sodipodi:nodetypes="cscscsccc" />
    <path
       inkscape:connector-curvature="0"
       id="path938"
       d="m 74.361225,56.42765 c -0.369897,0.642358 -0.678854,0.307367 -1.450993,0.564747 -0.20945,0.06982 -0.955943,0.30393 -1.151273,0.4016 -0.747496,0.373747 -1.378556,0.03354 -2.167817,0.428174 -0.757618,0.378808 -0.97224,1.752178 -1.048669,1.905007 -0.248989,0.49798 0.325511,0.47769 0.01145,0.791754 -0.06372,0.06373 -0.06853,0.241705 -0.207444,0.311166 -1.353008,0.676505 -3.335021,1.013262 -4.460028,1.763267 -0.284043,0.18936 -0.962187,0.157422 -1.348382,0.414886 -0.08101,0.054 -3.662604,0.287374 -4.356308,0.518607 -0.08315,0.0277 -0.455408,0.144243 -0.518607,0.207444 -0.09779,0.09779 0,0.276591 0,0.414887 0,0.440358 -0.349976,1.270755 -0.103728,1.763267 0.216099,0.432192 2.703644,0.756037 3.215371,0.414886 0.245266,-0.163509 0.682541,-0.538678 0.933496,-0.62233 0.818756,-0.27292 2.073562,-1.520671 2.904205,-2.07443 0.761956,-0.507972 4.486712,-0.96018 4.874914,-1.348383 0.732322,-0.732318 0.436879,-1.558057 1.357609,-2.171875 0.511065,-0.34071 0.927133,-0.321387 1.490122,-0.462134 1.749523,-0.437381 1.15124,-0.372006 1.888394,-1.846317"
       style="opacity:1;fill:#4d4d4d;stroke:none;stroke-width:0.7;stroke-linecap:butt;stroke-linejoin:miter;stroke-opacity:1;stroke-miterlimit:4;stroke-dasharray:none"
       sodipodi:nodetypes="cccccccccccsccscccsc" />
    <path
       inkscape:connector-curvature="0"
       id="path956"
       d="m 53.672618,96.10566 c -0.897531,-0.209183 -0.979229,-1.132012 -1.443566,-1.828517 -0.138085,-0.207128 0.01641,-0.640836 -0.09623,-0.866142 -0.283218,-0.566438 -0.26078,-1.580174 -0.38495,-1.828517 -0.17062,-0.34124 -0.09624,-0.844958 -0.09624,-1.251092 0,-2.1837 1.272135,-3.799382 3.07961,-5.004367 0.243947,-0.162631 4.738946,-0.373304 5.100606,-0.192477 1.151239,0.57562 2.623948,0.734548 3.849511,1.34733 0.468707,0.234355 3.808381,0.05511 3.945752,0.192477 0.07902,0.07902 0.358222,0.39921 0.481187,0.481188 0.08007,0.05339 0.220664,-0.06805 0.288714,0 0.314558,0.31456 0.664538,0.857011 0.962378,1.154855 0.344138,0.344137 0.956238,0.571286 1.251093,0.866139 0.467512,0.467515 0.8329,0.832902 1.251089,1.251092 0.475007,0.475006 1.870075,0.949252 2.117234,1.443566 0.05813,0.116275 -0.424675,0.09624 -0.673664,0.09624 -0.04339,0 1.210448,0.729259 1.443566,0.962379 0.219469,0.219468 0.460164,0.326317 0.769903,0.481187 0.06803,0.03402 1.178974,1.203093 1.251092,1.34733 0.03733,0.07465 0.748465,0.427823 0.673664,0.577428 -0.03531,0.07062 -0.950419,0 -1.058616,0 -1.054926,0 -3.49547,-1.282003 -4.234464,-2.020994 -0.153335,-0.153335 -0.712808,-0.13538 -0.866139,-0.288715 -0.55039,-0.550388 -1.754915,-1.214291 -2.405947,-1.539806 -0.509324,-0.254661 -1.15477,-0.19239 -1.539805,-0.577424 -0.203263,-0.203266 -1.414283,-0.163194 -1.732279,-0.481191 -0.0473,-0.0473 -2.801266,-0.293895 -3.368324,-0.577428 -0.58587,-0.292934 -3.601309,0 -4.426939,0 -0.609507,0 -1.219012,0 -1.82852,0 -0.193331,0 -0.513788,-0.223514 -0.577428,-0.09623 -0.137191,0.274381 0.251466,0.769903 -0.192474,0.769903 -0.229199,0 -1.347329,0.564411 -1.347329,0.673664 0,1.326591 -0.192477,2.806295 -0.192477,3.849514 0,0.35287 0.352873,1.058615 0,1.058615 -0.160394,0 0,-0.320794 0,0 z"
       style="opacity:1;fill:#4d4d4d;stroke:none;stroke-width:0.7;stroke-linecap:butt;stroke-linejoin:miter;stroke-opacity:1;stroke-miterlimit:4;stroke-dasharray:none" />
    <path
       style="fill:none;stroke:#000000;stroke-width:0.7;stroke-linecap:butt;stroke-linejoin:miter;stroke-opacity:1;opacity:1;stroke-miterlimit:4;stroke-dasharray:none"
       d="m 54.003347,66.623511 c 0.0632,0.270248 -0.43483,1.407803 -0.283483,1.55915 0.164272,0.164272 0.509405,0.183833 0.708708,0.283483 0.149934,0.07497 -0.283483,0.749837 -0.283483,0.850447 0,0.118343 -0.633206,1.341911 -0.708705,1.41741 -0.108709,0.108709 -0.425574,0.426276 -0.472471,0.566965 -0.09131,0.273942 -0.26561,0.53122 -0.377976,0.755952 -0.0456,0.0912 -0.15525,0.08778 -0.188989,0.188989 -0.03671,0.110135 -0.200774,0.224351 -0.236234,0.330729 -0.162525,0.487577 -0.376674,0.880205 -0.708705,1.322917 -0.08877,0.118364 -0.111225,0.355822 -0.188989,0.472469 -0.100258,0.150389 -0.373692,0.459618 -0.425222,0.614212 -0.287817,0.863446 -0.744861,1.714859 -1.039434,2.598586 -0.06618,0.198549 -0.287724,0.429464 -0.377979,0.519716 -0.1617,0.161703 -0.15032,0.481052 -0.28348,0.614212 -0.115535,0.115535 -0.325382,0.414525 -0.377978,0.519718 -0.118081,0.236164 -0.133064,0.45512 -0.236233,0.661458 -0.185989,0.371978 -1.052756,1.579759 -0.755955,2.173362 0.14373,0.287457 0.612545,0.400767 0.850448,0.519718 0.04932,0.02466 0.123275,0.203378 0.188989,0.236236 0.282014,0.141007 0.60211,0.318627 0.803198,0.519716 0.06744,0.06744 0.660842,0.235619 0.803199,0.377976 0.02228,0.02228 -0.02228,0.07222 0,0.0945 0.02997,0.02997 0.149651,-0.01966 0.188989,0 0.395708,0.197852 0.844293,0.40537 1.228423,0.661458 0.09223,0.06149 0.341535,0.0108 0.425223,0.09449 0.201485,0.201486 0.545803,0.253627 0.803198,0.425223 0.326038,0.21736 0.192251,0.856972 0.330729,1.13393"
       id="path836"
       inkscape:connector-curvature="0" />
    <path
       style="fill:none;stroke:#000000;stroke-width:0.7;stroke-linecap:butt;stroke-linejoin:miter;stroke-opacity:1;opacity:1;stroke-miterlimit:4;stroke-dasharray:none"
       d="m 57.997486,79.141925 c 0.245817,-0.0645 0.276699,0.25528 0.434314,0.334087 0.02988,0.01495 0.06853,-0.01056 0.100226,0 0.0686,0.02286 0.49116,0.514598 0.534538,0.601355 0.04539,0.09077 0.08703,0.220668 0.167045,0.300681 0.06557,0.06557 0.193365,0.123002 0.267269,0.23386 0.06184,0.09275 0.207856,0.686773 0.133635,0.835218 -0.04948,0.09895 -0.204107,0.169479 -0.300677,0.23386 -0.09249,0.06166 -0.251571,0.200451 -0.33409,0.200451"
       id="path838"
       inkscape:connector-curvature="0" />
    <path
       style="fill:none;stroke:#000000;stroke-width:0.7;stroke-linecap:butt;stroke-linejoin:miter;stroke-opacity:1;opacity:1;stroke-miterlimit:4;stroke-dasharray:none"
       d="m 59.033155,79.910325 c 0.24637,0.306819 0.654405,0.31377 0.935445,0.501129 0.09105,0.0607 0.270952,0.0282 0.367496,0.06682 0.108918,0.04357 0.216487,0.137644 0.334087,0.167044 0.07111,0.01778 0.616336,0.124421 0.634764,0.133634 0.01762,0.0088 0.05492,0.08512 0.100227,0.100226 0.135832,0.04528 0.335116,0.01378 0.46772,0.06682 0.04787,0.01916 0.08379,0.08361 0.133635,0.100227 0.06336,0.02111 0.180245,-0.03575 0.23386,0 0.30276,0.20184 0.842111,0.258429 1.169305,0.367496 0.184902,0.06163 0.750486,0.319754 0.935445,0.46772 0.06149,0.04919 0.09234,0.142142 0.167042,0.167044 0.147577,0.04919 0.454787,0.154107 0.534541,0.23386 0.210595,0.210598 0.588055,0.387604 0.801806,0.601358 0.151183,0.151183 0.349703,0.416518 0.53454,0.601356 0.1524,0.1524 0.481801,0.247941 0.668174,0.434314 0.07448,0.07448 0.121317,0.151799 0.267269,0.20045"
       id="path840"
       inkscape:connector-curvature="0" />
    <path
       style="fill:none;stroke:#000000;stroke-width:0.7;stroke-linecap:butt;stroke-linejoin:miter;stroke-opacity:1;opacity:1;stroke-miterlimit:4;stroke-dasharray:none"
       d="m 53.672618,96.105653 c -0.881269,-0.205393 -0.961486,-1.111501 -1.41741,-1.795385 -0.135583,-0.203375 0.01611,-0.629225 -0.09449,-0.850448 -0.278087,-0.556175 -0.256055,-1.551543 -0.377975,-1.795386 -0.167529,-0.335057 -0.0945,-0.829648 -0.0945,-1.228423 0,-2.144133 1.249084,-3.73054 3.023809,-4.913691 0.239527,-0.159684 4.653079,-0.36654 5.008186,-0.188989 1.13038,0.56519 2.576404,0.721238 3.779761,1.322917 0.460214,0.230108 3.739375,0.05411 3.874257,0.188989 0.07759,0.07759 0.351732,0.391977 0.472469,0.472469 0.07862,0.05242 0.216665,-0.06682 0.283482,0 0.308859,0.308861 0.652497,0.841483 0.944941,1.13393 0.337902,0.337902 0.938911,0.560935 1.228424,0.850445 0.459041,0.459044 0.817808,0.817811 1.22842,1.228423 0.4664,0.4664 1.83619,0.932053 2.078871,1.41741 0.05708,0.114168 -0.41698,0.0945 -0.661458,0.0945 -0.0426,0 1.188516,0.716045 1.41741,0.944941 0.215492,0.215492 0.451826,0.320405 0.755952,0.472469 0.0668,0.0334 1.157612,1.181293 1.228423,1.322917 0.03665,0.0733 0.734904,0.420071 0.661458,0.566965 -0.03467,0.06934 -0.933198,0 -1.039434,0 -1.035812,0 -3.432135,-1.258774 -4.157739,-1.984375 -0.150556,-0.150556 -0.699892,-0.132927 -0.850445,-0.283483 -0.540417,-0.540416 -1.723117,-1.192289 -2.362353,-1.511906 -0.500095,-0.250047 -1.133846,-0.188904 -1.511904,-0.566962 -0.19958,-0.199583 -1.388657,-0.160237 -1.700892,-0.472472 -0.04644,-0.04644 -2.750508,-0.28857 -3.307292,-0.566965 -0.575254,-0.287626 -3.536055,0 -4.346725,0 -0.598464,0 -1.196925,0 -1.795389,0 -0.189828,0 -0.504478,-0.219464 -0.566965,-0.09449 -0.134705,0.269409 0.246909,0.755952 -0.188987,0.755952 -0.225046,0 -1.322916,0.554185 -1.322916,0.661458 0,1.302554 -0.188989,2.755447 -0.188989,3.779763 0,0.346477 0.346479,1.039434 0,1.039434 -0.157488,0 0,-0.314981 0,0 z"
       id="path842"
       inkscape:connector-curvature="0" />
    <path
       style="fill:none;stroke:#000000;stroke-width:0.7;stroke-linecap:butt;stroke-linejoin:miter;stroke-opacity:1;opacity:1;stroke-miterlimit:4;stroke-dasharray:none"
       d="m 49.420385,77.868303 c 0.0037,-1.341409 0.127812,-2.648561 0.755954,-3.590774 0.231982,-0.347972 -0.188989,-1.552343 -0.188989,-1.984375 0,-0.03314 0.03615,-0.436319 0,-0.472469 -0.1842,-0.184203 -0.171741,-0.154499 -0.283482,-0.377979 -0.08922,-0.178427 -0.302451,-0.207957 -0.377976,-0.28348 -0.56469,-0.564689 -1.272731,-1.695016 -1.606399,-2.362353 -0.392309,-0.784614 -1.782035,-0.863799 -1.606399,-1.039434 7.93e-4,-7.94e-4 0.227144,-1.266579 0.377978,-1.41741 0.35724,-0.357241 0.759568,-1.043051 1.133927,-1.41741 0.143286,-0.143285 0.115488,-0.608952 0.18899,-0.755954 0.114665,-0.229331 0.327064,-0.254363 0.472469,-0.47247 0.253389,-0.380084 0.256765,-1.012716 0.566965,-1.322916 0.1343,-0.1343 0.441378,-0.315794 0.566962,-0.566965 0.104082,-0.208164 -0.0084,-0.550177 0.0945,-0.755952 0.09966,-0.199329 0.251193,-0.407892 0.377976,-0.661458 0.11104,-0.222081 0,-0.783606 0,-1.039434 0,-0.669711 0.239816,-2.922154 0,-3.401785 -0.194932,-0.389861 -0.448678,-1.110819 -0.283483,-1.606399 0.05385,-0.161555 0.314021,-0.565529 0.377976,-0.661459 0.61422,-0.921332 4.184759,-0.52651 5.008184,-2.173364 0.151765,-0.303527 -0.186928,-1.135986 0,-1.322917 0.263337,-0.263337 0.289454,-0.667427 0.566965,-0.94494 0.205859,-0.205857 0.564208,-0.466958 0.661459,-0.661459 0.106582,-0.213164 0.16179,-0.539766 0.283482,-0.661458 0.0302,-0.0302 0.553876,-0.958027 0.566965,-0.944941 0.08427,0.08428 0.204899,-0.133784 0.472469,0 0.111591,0.0558 0.328372,1.079611 0.377976,1.228423 0.02437,0.07308 0.150466,0.970622 0.472472,0.755952 0.20244,-0.134959 1.096513,-1.606399 1.322916,-1.606399 0.04399,0 -0.109426,0.782473 0.09449,0.850447 0.199686,0.06656 2.011741,-0.87781 2.267857,-1.133927 0.119195,-0.119195 0.329682,-0.0924 0.377976,-0.188989 0.05668,-0.113358 0.03115,-0.787622 0.283483,-0.661459 0.501372,0.250688 0.577858,0.950389 0.94494,1.133928 0.514017,0.257011 2.123684,-0.0016 2.267855,0.0945 0.492623,0.328414 1.004483,1.064022 1.228424,1.511903 0.04923,0.09847 1.191281,0.831876 1.41741,0.944941 0.135395,0.0677 0.55286,0.782042 0.661458,0.944941 0.208275,0.312409 0.844486,0.466508 1.13393,0.755951 0.299016,0.299017 0.518462,0.77895 0.850445,0.944941 0.247642,0.123823 0.742852,0.270381 0.944941,0.472472 0.703267,0.703268 1.301945,1.301943 1.984375,1.984375 0.0932,0.0932 0.02564,0.403603 0.0945,0.472469 1.19326,1.19326 1.693764,2.729637 2.645833,4.157739 0.157139,0.23571 0.197503,0.910466 0.472469,1.322917 0.208476,0.312711 0.08222,2.703518 0.283483,3.307291 0.423963,1.271887 0.428251,6.822649 -0.18899,7.748511 -0.32585,0.488776 0.08096,2.227501 -0.09449,2.929316 -0.151225,0.604901 -0.421153,1.314775 -0.661458,1.795386 -0.179962,0.359923 -0.02721,0.810371 -0.18899,1.13393 -0.445833,0.891667 -0.507955,1.807347 -0.850444,2.83482 -0.226566,0.679698 0.17422,1.570976 0,2.267857 -0.02556,0.10219 0.177624,0.920423 0.118117,1.039435 -0.453573,0.907142 0.382702,2.636383 -0.07087,3.543526 -0.119645,0.239289 0.245772,2.901146 0.37798,3.165552 0.339637,0.679278 0.364542,1.518846 0.614211,2.267858 0.188314,0.564944 0.103714,1.435849 0.377976,1.984375 0.109934,0.219863 0.297555,0.325699 0.377975,0.566962 0.132311,0.396934 -0.101782,0.915787 0,1.322917 0.111943,0.44777 0.208188,0.699857 0.377976,1.039434 0.124121,0.248243 1.245163,1.949979 1.299293,2.220617 3.625831,4.59222 2.283624,3.73444 3.425411,5.52789 0.175379,0.35076 0.758344,1.27687 1.228421,1.51191 0.200202,0.1001 0.434025,0.33953 0.566965,0.47247 0.0996,0.0996 0.477581,0.0894 0.377976,0.18898 -0.461259,0.46127 -0.828212,-0.82821 -0.944941,-0.94493 -0.429784,-0.42979 -0.82799,-1.28924 -1.228421,-1.88989 -0.196781,-0.29517 -0.02931,-0.90907 -0.188989,-1.22842 -0.125227,-0.25045 -0.431551,-0.60008 -0.661458,-0.94494 -0.412943,-0.61942 -0.678823,-1.07416 -1.039434,-1.79539 -0.08926,-0.17852 0.02463,-0.57724 -0.09449,-0.75595 -0.260778,-0.391161 -0.04493,-0.323759 -0.188989,-0.755948 -0.01119,-0.03362 -0.333441,-0.383399 -0.377976,-0.472469 -0.181671,-0.363342 -0.104968,-0.535427 -0.377975,-0.944941 -0.183367,-0.275053 -0.0986,-0.856601 -0.283483,-1.133927 -0.131569,-0.197355 -0.04843,-0.620154 -0.09449,-0.850448 -0.01315,-0.06569 -0.638609,-2.422567 -0.661459,-2.456844 -0.700206,-1.050308 -0.965522,-2.487718 -1.700892,-3.590774 -0.273196,-0.409794 -0.04758,-1.087011 -0.377979,-1.417412 -0.0574,-0.0574 0,-4.283414 0,-4.724702 0,-1.07396 0.197126,-3.693403 0.850448,-4.346726 0.08127,-0.08127 0.16641,-1.088771 0.283483,-1.322916 0.105542,-0.211085 0.182075,-0.07376 0.283482,-0.377976 0.08441,-0.253225 -0.05465,-0.721217 0.09449,-0.944941 0.314794,-0.472191 0.350065,-1.078106 0.566965,-1.511906 0.11017,-0.22034 -0.07775,-0.617178 0,-0.850445 0.374171,-1.122518 0.661459,-2.069581 0.661459,-3.401785 0,-0.496189 0.177797,-1.58402 0.377976,-1.984375 0.113572,-0.227145 -0.06312,-0.597961 0,-0.850447 0.374054,-1.496219 0.377975,-2.842236 0.377975,-4.535715 0,-0.238221 0.103466,-0.832506 0,-1.039434 -0.564329,-1.128657 -0.438258,-2.921172 -0.850447,-4.157737 -0.121216,-0.363654 0.117049,-0.911111 -0.09449,-1.228423 -0.363902,-0.545857 -0.184531,-1.030521 -0.472469,-1.606399 -0.06665,-0.133305 -0.472471,-0.353251 -0.472471,-0.47247 0,-0.08952 0.352798,0.176398 0.377975,0.188987 0.221568,0.110784 0.703033,0.839097 0.850448,1.13393 0.05808,0.116157 0.286144,0.0027 0.377976,0.09449 0.102089,0.10209 0.419613,0.461248 0.472472,0.566965 0.06811,0.136216 0.006,0.380982 0.188986,0.47247 0.548667,0.274333 0.736878,2.210633 0.944941,2.834822 0.02024,0.0607 0.25255,0.316108 0.283482,0.377976 0.117737,0.235474 -0.02193,0.617598 0.09449,0.850445 0.462346,0.924689 1.039434,2.316048 1.039434,3.590774 0,1.407104 0.120711,4.777137 0.661458,5.858632 0.09551,0.191029 -0.05265,0.545338 0,0.755951 0.184566,0.738254 0.185248,1.40993 0.472472,1.984375 0.261313,0.522629 0,5.876327 0,6.898066 0,1.150686 0.443968,3.808262 -0.377976,4.630208"
       id="path846"
       inkscape:connector-curvature="0"
       sodipodi:nodetypes="ccscccccccccscccscccccccsccccscccccccccccccccccsccccccscscccscccsccccccccsscccscsscscscsccsccccsccccccccscccsc" />
    <path
       style="fill:#4d4d4d;stroke:none;stroke-width:0.7;stroke-linecap:butt;stroke-linejoin:miter;stroke-opacity:1;stroke-miterlimit:4;stroke-dasharray:none;opacity:1"
       d="m 45.120906,126.01302 c 0.199705,-0.0399 0.223946,5.3e-4 0.330729,-0.14174 0.08982,-0.11977 0.111056,-0.29534 0.188989,-0.42522 0.17703,-0.29505 0.374822,-0.51342 0.519719,-0.80321 0.114152,-0.2283 0.435123,-0.34723 0.566962,-0.56696 0.17531,-0.29218 0.454742,-0.57875 0.614212,-0.89769 0.0777,-0.1554 0.317772,-0.19642 0.425222,-0.33073 0.127664,-0.15958 0.282274,-0.49428 0.425225,-0.70871 0.147119,-0.22067 0.409901,-0.36265 0.614212,-0.56696 0.16782,-0.16782 0.393602,-0.61385 0.472469,-0.85045 0.07237,-0.21711 0.65486,-0.59441 0.708705,-0.75595 0.105595,-0.31679 0.341413,-0.5304 0.566965,-0.75595 0.07782,-0.0778 0.256617,-0.60124 0.283483,-0.70871 0.02668,-0.10674 0.219863,-0.2353 0.283482,-0.33073 0.05652,-0.0848 0.174342,-0.39593 0.236233,-0.51971 0.152914,-0.30583 0.424673,-0.47137 0.566966,-0.75596 0.007,-0.0141 0,-0.0315 0,-0.0472 0.01574,-0.0472 0.01963,-0.10031 0.04725,-0.14175 0.02946,-0.0442 0.198297,-0.13208 0.236236,-0.18898 0.04649,-0.0697 0.04803,-0.26103 0.09449,-0.33073 0.410266,-0.6154 0.97957,-1.14963 1.27567,-1.88988 0.07617,-0.19044 0.45076,-1.34846 0.519719,-1.41741 0.08243,-0.0824 0.008,-0.44918 0.04725,-0.56697 0.01797,-0.0539 0.116346,-0.0437 0.14174,-0.0945 0.06166,-0.12332 0.02183,-0.29813 0.04725,-0.42523 0.04669,-0.23346 0.39338,-1.34602 0.472472,-1.46465 0.145309,-0.21797 -0.02148,-0.66573 0.09449,-0.8977 0.161719,-0.32343 0.472469,-2.12726 0.472469,-2.55134 0,-0.13049 -0.03676,-0.6667 0.04725,-0.7087 0.354113,-0.17706 0.890987,1.24641 0.944939,1.22842 0.103007,-0.0343 0.139255,-0.373 0.188989,-0.47247 0.186722,-0.37344 0.281728,-0.75244 0.425222,-1.03943 0.06169,-0.12337 0.283954,-0.42546 0.377976,-0.47247 0.02817,-0.0141 -0.0099,-0.0646 0,-0.0945 0.07109,-0.21327 0.234794,-0.37509 0.330729,-0.56696 0.105423,-0.21084 0.269973,-0.36447 0.425225,-0.51972 0.143164,-0.14316 0.169958,-0.50069 0.330729,-0.66146 0.200436,-0.20043 0.340495,-0.41625 0.47247,-0.61421 0.06043,-0.0906 -0.0016,-0.28017 0.04725,-0.37798 0.197636,-0.39527 0.113673,-0.93604 0.283483,-1.27566 0.01574,-0.0315 -0.0315,-0.126 0,-0.14175 0.368223,-0.18411 0.248912,2.29379 0.661458,1.98438 0.168799,-0.1266 0.371197,-0.93816 0.566965,-1.13393 0.03485,-0.0348 0.18596,-0.4343 0.188987,-0.42522 0.06315,0.18946 -0.1314,0.53594 -0.188987,0.7087 -0.100724,0.30217 -0.10418,1.32411 -0.188989,1.74814 -0.01598,0.0799 -0.02347,0.99219 -0.04725,0.99219 -0.03162,0 0.08744,-0.80105 0.09449,-0.85045 0.04289,-0.30023 0.779433,-2.17336 0.94494,-2.17336 0.122005,0 -0.01077,0.27933 -0.09449,0.61421 -0.07307,0.29227 -0.01005,0.68158 -0.14174,0.94494 -0.02863,0.0573 -0.163486,1.23742 -0.188989,1.27567 -0.173183,0.25977 -0.1494,0.96921 -0.04725,1.27567 0.103804,0.31141 0.273839,0.79356 0.472469,0.99219 0.17765,0.17765 0.228952,1.0794 0.425225,1.27567 0.157219,0.15722 0.299932,-0.39653 0.33073,-0.51972 0.03595,-0.1438 -0.246964,-1.08971 -0.189484,-1.17594 -0.137376,-0.47221 -0.188722,-1.82718 0.52021,-1.32815 -0.0026,-0.0106 -0.64096,-0.92633 -0.714929,-0.77839 0,0 0.985556,1.43308 0.985556,1.54155 0,1.01483 0.379064,0.50149 0.891961,1.27084 0.04454,0.0668 0.537239,0.50351 0.581789,0.57032 0.09895,0.14843 -0.421458,0.65821 -0.421458,0.79746 0,0.0758 0.21936,0.40836 0.28348,0.47248 0.05071,0.0507 -0.13334,-0.0333 0,0 0.466458,0.11661 1.525958,-1.05349 1.842635,-1.37017 0.244528,-0.24452 0.70045,-0.1766 0.897695,-0.47247 0.08317,-0.12476 0.779621,-0.38981 0.94494,-0.47247 0.18155,-0.0908 0.410697,-0.32492 0.661459,-0.42522 0.177165,-0.0709 0.427746,-0.0323 0.614209,-0.0945 0.559784,-0.18659 1.120542,-0.35372 1.653646,-0.56696 0.165496,-0.0662 0.632131,-0.10644 0.755954,-0.18899 0.234024,-0.15601 0.459258,-0.42713 0.708705,-0.61421 0.232354,-0.17426 0.31061,-0.26336 0.519716,-0.47247 0.129071,-0.12907 0.09449,0.34693 0.09449,0.37798 0,0.15382 -0.105335,1.065 -0.04725,1.18117 0.05703,0.11407 0.786658,-0.756 0.850446,-0.756 0.358569,0 0.19864,0.56053 0.47247,0.37798 0.01929,-0.0129 0.277951,-0.25836 0.28348,-0.23624 0.107556,0.43022 -2.953179,3.19039 -3.071054,3.77976 -0.104807,0.52403 1.547425,-0.0165 0.992186,0.0945 -0.125685,0.0251 -0.086,0.14174 -0.236236,0.14174 -0.290991,0 -0.459925,0.14174 -0.708705,0.14174 h -0.330729 c 0.875046,0 1.753997,-0.17717 2.598587,-0.33073 0.440301,-0.0801 0.701242,-0.37632 1.133928,-0.47242 0.603364,-0.13408 1.281751,-0.2911 1.889882,-0.37797 0.595173,-0.085 1.277129,0.18898 1.842634,0.18898 0.267152,0 0.493091,-0.2981 0.472469,-0.23623 -0.119933,0.3598 -0.579903,0.65721 -0.850445,0.89769 -0.568523,0.50535 -1.345917,1.0471 -2.031622,1.27567 -0.135294,0.0451 -0.28993,0.002 -0.425225,0.0473 -0.385291,0.12843 0.324729,0.48396 -0.06391,0.65669 -1.352188,0.60097 -2.236624,1.43233 -3.479612,2.17812 -0.126984,0.0762 -3.306136,0.77669 -3.354541,0.8977 -0.128874,0.32219 -0.445088,0.59596 -0.755952,0.8032 -0.151768,0.10118 -0.303096,0.11411 -0.425222,0.23623 -0.05568,0.0557 -0.165804,-0.0352 -0.236236,0 -0.390827,0.19542 -0.902931,0.45847 -1.370164,0.61422 -0.245782,0.0819 -0.522581,0.064 -0.755951,0.14174 -0.506019,0.16867 -0.944211,0.4721 -1.417413,0.7087 -0.36871,0.18436 -0.767508,1.11935 -1.133927,1.32292 -0.897562,0.49865 -1.560783,0.35093 -2.362351,0.99219 -0.233804,0.18704 -0.476224,0.27023 -0.708705,0.42522 -0.114117,0.009 -0.07875,0.14174 -0.141743,0.18899 -0.05195,0.039 -0.137038,0.008 -0.188986,0.0472 -0.244346,0.18325 -0.506601,0.48953 -0.755954,0.61421 -0.677289,0.33864 0.415104,-0.37191 -0.28348,0.0472 -0.880819,0.52849 -1.789952,0.99002 -2.74033,1.37017 -0.543941,0.21758 -1.176414,0.30472 -1.700892,0.56696 -0.205983,0.10299 -0.488646,0.34885 -0.755952,0.42523 -0.214579,0.0613 -2.094264,0.91308 -2.267857,1.08668 -0.217493,0.21749 -0.602226,0.47811 -0.755952,0.7087 -0.23218,0.34827 -0.369355,0.78596 -0.566965,1.18118 -0.02548,0.051 -0.266597,0.23283 -0.283482,0.28348 -0.126728,0.38018 -0.316786,0.5933 -0.519716,0.89769 -0.03058,0.0459 -0.301186,0.71457 -0.330729,0.8032 -0.02265,0.068 0.04807,0.28266 0,0.33073 -0.08909,0.0891 -0.02833,-0.25521 0,-0.37797 0.0772,-0.33456 0.129818,-0.67294 0.236233,-0.99219 0.2428,-0.7284 0.372652,-1.40676 0.708705,-2.07887 0.139404,-0.27881 0.168749,-0.65472 0.330729,-0.89769 0.115094,-0.17264 0.06916,0.0507 0.141743,-0.0945 0.105936,-0.21187 0.171942,-0.49415 0.283482,-0.66146 0.05314,-0.0797 0.04725,-0.37928 0.04725,-0.28348 0,0.14605 -0.03715,0.3907 -0.09449,0.51972 -0.14537,0.32708 -0.552006,0.71606 -0.708708,1.13393 -0.0449,0.11975 -0.01389,0.24318 -0.09449,0.28348 -0.04301,0.0215 -0.330729,0.79215 -0.330729,0.56696 0,-0.88688 1.082823,-1.92555 1.322916,-2.64583 0.03364,-0.10093 0.343649,-0.45955 0.236236,-0.56696 -0.128095,-0.1281 -1.025911,0.72893 -1.228423,0.85044 -0.248261,0.14896 -0.640607,0.38352 -0.755952,0.61421 -0.0056,0.0113 -0.148757,0.007 -0.188989,0.0473 -0.290476,0.29048 -0.66421,0.50997 -0.992188,0.75595 -0.134768,0.10108 -0.503377,0.12541 -0.614211,0.23624 -0.131869,0.13187 -0.304316,0.36037 -0.472469,0.47247 -0.03061,0.0204 -0.155829,0.0141 -0.18899,0.0473 -0.0267,0.0267 -0.258283,0.18583 -0.28348,0.23623 -0.117832,0.23566 -0.06919,0.50707 -0.377978,0.66146 z"
       id="path974"
       inkscape:connector-curvature="0"
       sodipodi:nodetypes="cccccscccccccccccccccccccccsccccccccccccccccscscsccccscccccsccscccccccccccscsccscssccccscsccccccccccccccccccccccccccccccscccscccsccsccccccccc" />
    <path
       style="fill:none;stroke:#000000;stroke-width:0.7;stroke-linecap:butt;stroke-linejoin:miter;stroke-opacity:1;opacity:1;stroke-miterlimit:4;stroke-dasharray:none"
       d="m 53.672618,96.105651 c -0.328473,0.08614 -0.228992,0.27773 -0.151895,0.509018 0.09493,0.28479 0.308115,0.508569 0.46772,0.668174 0.03993,0.03993 0.372697,0.984451 0.400904,1.069078 0.133888,0.401656 -0.09803,1.757239 0.06682,2.004519 0.20411,0.30617 0.27695,0.41059 0.534541,0.66818 0.19518,0.19518 0.217463,0.61837 0.400904,0.80181 0.137118,0.13711 0.06681,2.7837 0.06681,3.20723 0,0.81348 -0.144682,1.39212 0.467723,2.00452 0.351457,0.35146 0.53454,0.73521 0.53454,0.73499 0,-0.40499 0.02347,-0.71513 0.200451,-1.06908 0.276866,-0.55373 0.799595,-1.20049 1.269529,-1.67043 0.261295,-0.26129 0.413023,-0.81999 0.668176,-1.20271 0.07099,-0.10649 -0.05717,-0.35338 0,-0.46772 0.235604,-0.47121 0.400902,-1.01371 0.400902,-1.67044 0,-0.0816 -0.02593,-0.15408 0.06682,-0.20045 0.561933,-0.28097 0.411824,2.18314 0.668174,1.67043 0.04972,-0.0994 0.05768,-0.39176 0.133635,-0.46772 0.250643,-0.25064 0.925994,-1.13589 0.935443,-1.13589 0.116832,0 -0.308441,0.95097 -0.334087,1.00226 -0.04454,0.0891 0.04454,0.24499 0,0.33408 -0.309017,0.61804 -0.478549,1.44833 -0.133633,2.13816 0.0498,0.0996 -0.04136,-0.23069 0,-0.33409 0.09985,-0.24962 0.124806,-0.44124 0.200451,-0.66817 0.08063,-0.24189 0.508114,-1.57719 0.601355,-1.67044 0.231728,-0.23172 0.33409,-0.62042 0.33409,-0.60135 0,0.60631 -0.230357,2.03442 -0.601358,2.40542 -0.02556,0.0256 0,0.31066 0,0.33409 0,0.48269 -0.115652,1.14101 0,1.60362 0.0949,0.3796 0.267268,0.6343 0.267268,1.00226 0,0.27997 0.340019,1.79221 0.467723,1.5368 0.407789,-0.81558 0.267269,-2.14083 0.267269,-3.14042 0,-0.39937 -0.172165,-0.65013 -0.267269,-0.93544 -0.02228,-0.0668 -0.129813,-0.23195 -0.06682,-0.20045 0.406461,0.20323 1.111626,2.04706 1.536801,2.47224 0.03485,0.0349 -0.02328,0.23234 0,0.26727 0.202194,0.30329 0.396123,0.42714 0.601355,0.73499 0.202044,0.30306 0.288547,0.66668 0.467723,0.93544 0.08288,0.12432 0.09481,0.50656 0.200453,0.40091 0.507513,-0.50752 1.156415,-0.83391 1.737252,-1.26953 0.08294,-0.0622 0.301765,-0.0172 0.400904,-0.0668 0.586402,-0.2932 1.111496,-0.75196 1.737252,-1.00226 0.761399,-0.30456 2.182958,-0.6535 2.806329,-1.06908 0.09582,-0.0639 0.414804,-0.0269 0.534538,-0.0668 0.429951,-0.14331 0.947693,-0.47997 1.135896,-0.66817 0.111768,-0.11177 0.205063,-0.33639 0.334087,-0.4009 0.182806,-0.0914 -0.12745,0.72262 -0.200451,0.86862 -0.06923,0.13846 -0.579364,0.4229 -0.467723,0.53454 0.09797,-0.0348 0.235826,-0.0426 0.326326,-0.10292 0.179432,-0.11963 0.386719,-0.35313 0.566965,-0.42523 0.02925,-0.0117 0.06361,0.006 0.09449,0 0.06145,-0.0123 8.15e-4,-0.0244 0.02362,-0.0473 0.08213,-0.0821 0.393055,-0.13319 0.47247,-0.21261 0.131281,-0.13128 0.322951,-0.32728 0.520646,-0.41474"
       id="path848"
       inkscape:connector-curvature="0"
       sodipodi:nodetypes="ccsccccscsccccscccsccccccscscscscccccccccccccscc" />
    <path
       style="fill:none;stroke:#000000;stroke-width:0.7;stroke-linecap:butt;stroke-linejoin:miter;stroke-opacity:1;opacity:1;stroke-miterlimit:4;stroke-dasharray:none"
       d="m 55.39161,106.10274 c -0.362529,0.5886 0.05038,2.90601 -0.200453,3.40768 -0.1606,0.32121 -0.135856,1.0056 -0.267269,1.20272 -0.439955,0.65993 -0.680228,1.86761 -1.00226,2.67269 -0.110369,0.27592 -0.0362,0.64315 -0.133636,0.93545 -0.209725,0.62917 -0.861089,2.59834 -1.269529,3.00678 -0.322609,0.32261 -0.547735,0.73031 -0.801809,1.06908 -0.463003,0.61733 -2.245289,1.8847 -2.472243,2.3386 -0.438515,0.87703 -1.472385,1.80648 -2.138156,2.47225 -0.126939,0.12694 -0.217927,0.31969 -0.267272,0.46772 -0.07394,0.22182 -1.351851,1.36735 -1.536798,1.73725 -0.03763,0.0753 -0.137803,0.47189 -0.200453,0.53454 -0.177356,0.17735 -0.669682,0.54057 -0.734992,0.80181 -0.05922,0.23689 -1.577107,2.09467 -1.403164,2.13815 0.393628,0.0984 0.857837,-1.01948 1.069078,-1.33634 0.302773,-0.45416 2.805784,-3.54105 3.207234,-3.74178 0.563253,-0.28162 1.505479,-0.97094 1.937705,-1.40316 0.124849,-0.12485 0.65846,-0.50599 0.868624,-0.4009 0.329089,0.16454 -0.217934,0.75351 -0.267269,0.86862 -0.230814,0.53857 -0.756142,1.30325 -1.135895,1.73725 -0.232532,0.26576 -0.67826,0.51626 -0.868625,0.80181 -0.11484,0.17226 -0.326363,0.79795 -0.467722,0.86863 -0.17698,0.0885 -0.01061,0.34998 0.133635,0.13363 0.163714,-0.24557 0.369211,-0.59779 0.601356,-0.86862 0.09281,-0.10828 0.254979,-0.14861 0.334087,-0.26727 0.21749,-0.32624 0.248245,-0.64915 0.53454,-0.93545 0.133853,-0.13385 0.360558,-0.2223 0.46772,-0.4009 0.09858,-0.16429 0.334087,-0.65932 0.334087,-0.46772 0,0.0668 0,0.13363 0,0.20045 0,0.72989 -0.520396,1.27271 -0.668174,1.9377 -0.09205,0.41424 -0.07328,0.94837 -0.267269,1.33635 -0.223763,0.44753 -0.452445,0.90489 -0.668173,1.33635 -0.02825,0.0565 -0.115906,0.56999 -0.133636,0.53454 -0.128323,-0.25665 0.442174,-0.95117 0.53454,-1.1359 0.10399,-0.20798 0.106011,-0.45568 0.200451,-0.66817 0.484193,-1.08944 2.878506,-3.94401 4.075862,-4.34313 0.319608,-0.10654 2.33881,-1.33655 2.53906,-1.5368 0.08512,-0.0851 0.421352,-0.077 0.534538,-0.13364 0.28316,-0.14158 0.559475,-0.40713 0.801809,-0.46772 0.276111,-0.069 0.585372,-0.0922 0.801809,-0.20045 0.975813,-0.4879 1.928323,-0.81783 2.80633,-1.40316 0.159112,-0.10608 1.230765,-0.39734 1.336347,-0.46773 0.651888,-0.43459 1.25013,-0.81114 1.937705,-1.26953 0.284234,-0.18949 1.540931,-0.6723 1.737252,-0.86862 0.413223,-0.41323 0.988811,-0.59463 1.5368,-0.86863 0.09568,-0.0478 0.249791,-0.29194 0.334087,-0.33408 1.390928,-0.69547 3.000989,-1.30005 4.409945,-2.00453 0.07273,-0.0364 0.304586,-0.0347 0.400905,-0.0668 0.679611,-0.22653 2.281608,-0.94198 2.873147,-1.33634 0.171037,-0.11403 0.321117,-0.30317 0.467723,-0.40091 0.03706,-0.0247 0.08909,0 0.133635,0 0.06682,-0.0223 0.144106,-0.0246 0.200451,-0.0668 0.09764,-0.0732 0.230963,-0.28253 0.334087,-0.33409 0.315733,-0.15787 0.697256,-0.29635 1.00226,-0.60136 0.402175,-0.40217 0.843717,-0.88958 1.33635,-1.13589 0.189156,-0.0946 0.06599,-0.19881 0.133633,-0.33409 0.08982,-0.17964 0.433366,-0.2835 0.668173,-0.4009 0.687991,-0.344 -2.38066,0.13363 -2.405425,0.13363 -0.351655,0 -0.699129,0.0792 -1.00226,0.20045 -0.19308,0.0772 -0.470223,-0.066 -0.668173,0 -0.552591,0.1842 -1.203299,0.13393 -1.737252,0.40091 -0.355147,0.17757 -0.986459,-0.10813 -1.336349,0.0668 -0.409925,0.20497 -0.857438,0.14755 -1.336347,0.26727 -0.104259,0.0261 -0.305406,-0.0477 -0.400905,0 -0.02817,0.0141 -0.06682,0.0983 -0.06682,0.0668 0,-0.0696 1.050092,-0.89254 1.135896,-0.93544 1.755143,-0.87757 1.991164,-2.18494 3.073601,-3.80859"
       id="path850"
       inkscape:connector-curvature="0" />
    <path
       inkscape:connector-curvature="0"
       id="path958"
       d="m 56.727957,92.538811 c 0.36481,1.130951 0.390975,2.519203 0.935442,3.608139 0.157782,0.31556 -0.03619,0.796242 0.133636,1.135893 0.04714,0.09428 0.467723,0.899255 0.467723,1.002263 0,0.06758 -0.441378,-0.214577 -0.467723,-0.267272 -0.14615,-0.292296 -0.53454,-0.241787 -0.53454,-0.668173 0,-0.212016 -1.172065,-2.143681 -1.336347,-2.472243 -0.158208,-0.316415 -0.432335,-1.969132 -0.601356,-2.138156"
       style="fill:#ffffff;stroke:none;stroke-width:0.7;stroke-linecap:butt;stroke-linejoin:miter;stroke-opacity:1;opacity:1;stroke-miterlimit:4;stroke-dasharray:none" />
    <path
       inkscape:connector-curvature="0"
       id="path960"
       d="m 63.075608,92.071088 c 0.09988,1.097757 0.272325,2.22014 0.601355,3.207234 0.10305,0.309145 0.01249,0.519854 0.200454,0.80181 0.06097,0.09146 -0.04919,0.302524 0,0.400904 0.06392,0.12785 0.267269,0.661464 0.267269,0.734992 0,0.0315 -0.04455,-0.04455 -0.06682,-0.06682 -0.187905,-0.187905 -0.39497,-0.389041 -0.534538,-0.668174 -0.05329,-0.106577 0.0084,-0.329895 -0.133636,-0.400904 -0.452501,-0.226251 -0.467857,-1.069351 -0.668173,-1.469983 -0.373782,-0.747567 -0.668174,-1.463805 -0.668174,-2.472243"
       style="fill:#ffffff;stroke:none;stroke-width:0.7;stroke-linecap:butt;stroke-linejoin:miter;stroke-opacity:1;opacity:1;stroke-miterlimit:4;stroke-dasharray:none" />
    <path
       style="fill:none;stroke:#000000;stroke-width:0.7;stroke-linecap:butt;stroke-linejoin:miter;stroke-opacity:1;opacity:1;stroke-miterlimit:4;stroke-dasharray:none"
       d="m 55.324792,92.739262 c 0.697635,-0.283655 1.579745,0.163864 2.27179,-0.06682 0.448312,-0.149437 0.953444,-0.154197 1.403164,-0.334087 0.332494,-0.132995 0.880219,0.09443 1.202714,-0.06682 1.269847,-0.63492 4.319373,-0.14551 5.545844,0.467723 0.33111,0.165555 0.692526,0.03851 1.135893,0.334086 0.239784,0.159856 2.499807,0.161198 2.806332,0.467723 0.454174,0.454173 0.061,1.339255 -0.334086,1.5368 -0.145868,0.07293 -0.463595,-0.02503 -0.601358,0.06682 -0.747718,0.49848 -3.997005,0.107349 -4.677217,0.334089"
       id="path860"
       inkscape:connector-curvature="0" />
    <path
       style="fill:none;stroke:#000000;stroke-width:0.7;stroke-linecap:butt;stroke-linejoin:miter;stroke-opacity:1;opacity:1;stroke-miterlimit:4;stroke-dasharray:none"
       d="m 63.075608,92.071088 c 0.09988,1.097757 0.272325,2.22014 0.601355,3.207234 0.10305,0.309145 0.01249,0.519854 0.200454,0.80181 0.06097,0.09146 -0.04919,0.302524 0,0.400904 0.06392,0.12785 0.267269,0.661464 0.267269,0.734992 0,0.0315 -0.04455,-0.04455 -0.06682,-0.06682 -0.187905,-0.187905 -0.39497,-0.389041 -0.534538,-0.668174 -0.05329,-0.106577 0.0084,-0.329895 -0.133636,-0.400904 -0.452501,-0.226251 -0.467857,-1.069351 -0.668173,-1.469983 -0.373782,-0.747567 -0.668174,-1.463805 -0.668174,-2.472243"
       id="path862"
       inkscape:connector-curvature="0" />
    <path
       style="fill:none;stroke:#000000;stroke-width:0.7;stroke-linecap:butt;stroke-linejoin:miter;stroke-opacity:1;opacity:1;stroke-miterlimit:4;stroke-dasharray:none"
       d="m 64.077868,95.478776 c -0.23417,0.635513 -3.641395,0.534435 -4.142677,0.868624 -0.180692,0.12046 -0.709604,-0.0127 -0.868627,0.06682 -0.306475,0.153236 -1.168545,-0.06833 -1.336347,0.267269"
       id="path864"
       inkscape:connector-curvature="0" />
    <path
       style="fill:none;stroke:#000000;stroke-width:0.7;stroke-linecap:butt;stroke-linejoin:miter;stroke-opacity:1;opacity:1;stroke-miterlimit:4;stroke-dasharray:none"
       d="m 56.727957,92.538811 c 0.36481,1.130951 0.390975,2.519203 0.935442,3.608139 0.157782,0.31556 -0.03619,0.796242 0.133636,1.135893 0.04714,0.09428 0.467723,0.899255 0.467723,1.002263 0,0.06758 -0.441378,-0.214577 -0.467723,-0.267272 -0.14615,-0.292296 -0.53454,-0.241787 -0.53454,-0.668173 0,-0.212016 -1.172065,-2.143681 -1.336347,-2.472243 -0.158208,-0.316415 -0.432335,-1.969132 -0.601356,-2.138156"
       id="path866"
       inkscape:connector-curvature="0" />
    <path
       style="fill:none;stroke:#000000;stroke-width:0.7;stroke-linecap:butt;stroke-linejoin:miter;stroke-opacity:1;opacity:1;stroke-miterlimit:4;stroke-dasharray:none"
       d="m 57.396131,94.476513 c 0.356359,0 0.712718,0 1.069078,0 0.762486,0 1.748229,-0.534537 2.53906,-0.534537 0.181004,0 1.375593,0 1.069078,0"
       id="path868"
       inkscape:connector-curvature="0" />
    <path
       style="fill:none;stroke:#000000;stroke-width:0.7;stroke-linecap:butt;stroke-linejoin:miter;stroke-opacity:1;opacity:1;stroke-miterlimit:4;stroke-dasharray:none"
       d="m 63.610148,93.80834 c 0.08909,-0.04454 0.174786,-0.09664 0.267269,-0.133633 0.453662,-0.181467 0.936701,0.333457 1.336347,0.133633 0.328041,-0.164021 1.324059,-0.30375 1.737251,-0.200451 0.199686,0.04992 0.165097,0.31641 0.334087,0.400904 0.312748,0.156374 1.038413,-0.169785 1.202714,-0.334086"
       id="path870"
       inkscape:connector-curvature="0" />
    <path
       style="fill:none;stroke:#000000;stroke-width:0.7;stroke-linecap:butt;stroke-linejoin:miter;stroke-opacity:1;opacity:1;stroke-miterlimit:4;stroke-dasharray:none"
       d="m 100.63616,61.331845 c 2.03442,-0.747874 3.84932,-1.688426 5.57515,-2.55134 0.37452,-0.187259 0.95284,-0.0039 1.32291,-0.188987 0.72644,-0.363217 1.53607,-0.661458 2.36236,-0.661458 0.3371,0 0.60964,-0.266213 0.94494,-0.377979 0.48867,-0.162888 0.91694,-0.105576 1.41741,-0.188986 1.03998,-0.173331 2.97839,-0.827739 3.96875,-1.322917 0.84786,-0.423931 1.50128,-1.476867 2.45684,-1.795388 0.72805,-0.242681 3.07593,-1.65852 3.59078,-2.173362 1.09522,-1.095221 1.82524,-2.675686 2.92931,-3.779763 0.4415,-0.441495 0.88965,0.681061 1.03944,0.755954 0.41759,0.208796 -0.0382,1.758146 -0.18899,1.984375 -0.0887,0.133014 -0.48023,0.393496 -0.56696,0.566962 -0.0423,0.08452 0.0422,0.198964 0,0.283483 -0.16177,0.323522 -0.72825,0.822738 -1.03944,1.13393 -0.1639,0.163893 -0.10739,0.485365 -0.28348,0.661458 -0.34159,0.341585 -0.78086,0.935056 -1.03944,1.322917 -0.10254,0.153818 -0.22319,0.601165 -0.37797,0.755952 -0.0446,0.04454 -0.14445,-0.04455 -0.18899,0 -0.13548,0.135477 0.0204,0.413689 -0.0945,0.566965 -0.10562,0.140832 -0.47148,0.186031 -0.56696,0.472469 -0.41234,1.237014 -1.87005,3.854428 -2.64583,4.630208 -0.24562,0.245621 -0.24358,0.810546 -0.47247,1.039434 -0.78587,0.785868 -0.6,2.333921 -1.13393,3.401788 -0.48199,0.963983 -1.01794,1.730909 -1.32292,2.645833 -0.0327,0.09818 -0.31784,0.197583 -0.37797,0.377976 -0.12441,0.373216 -0.10813,1.343355 -0.28349,1.606399 -1.01483,1.522246 -2.0038,3.421208 -3.49628,4.913688 -0.13102,0.131027 -0.16124,0.444728 -0.28348,0.566965 -0.42269,0.422693 -1.26173,1.523008 -1.79539,1.700893 -0.5644,0.188134 -1.34619,0.779232 -1.79538,1.228423 -0.28808,0.288081 -1.44168,0.484605 -1.79539,0.661458 -0.65409,0.327046 -1.36992,0.740124 -1.98437,0.944941 -0.32617,0.108723 -1.22843,0.625396 -1.22843,0.944941"
       id="path872"
       inkscape:connector-curvature="0" />
    <path
       style="fill:none;stroke:#000000;stroke-width:0.7;stroke-linecap:butt;stroke-linejoin:miter;stroke-opacity:1;opacity:1;stroke-miterlimit:4;stroke-dasharray:none"
       d="m 103.94345,71.726189 c 1.1746,-0.264364 2.13536,-0.982427 2.74033,-1.889879 0.1931,-0.28965 0.0818,-0.736936 0.28348,-1.039437 0.42206,-0.633085 0.45149,-1.527683 0.94494,-2.267855 0.13558,-0.203375 -0.0161,-0.629224 0.0945,-0.850448 0.65918,-1.318371 1.5162,-2.743197 2.64583,-3.49628 0.23729,-0.158192 0.30464,-0.857502 0.56696,-0.944939 0.46953,-0.156509 0.89782,-0.787535 1.41741,-1.13393 0.26044,-0.173625 1.32029,-0.564332 1.41741,-0.661458 0.0446,-0.04454 -0.0445,-0.144444 0,-0.188987 0.0918,-0.09183 0.26992,-0.02246 0.37798,-0.0945 0.8087,-0.539133 1.76237,-1.1954 2.45684,-1.889879 0.21514,-0.215135 0.98509,-0.398049 1.32292,-0.566965 0.3549,-0.177448 0.67447,-0.715211 0.94494,-0.850447 0.86219,-0.431096 2.72418,-1.495756 3.30729,-2.078868"
       id="path874"
       inkscape:connector-curvature="0" />
    <path
       style="fill:none;stroke:#000000;stroke-width:0.7;stroke-linecap:butt;stroke-linejoin:miter;stroke-opacity:1;opacity:1;stroke-miterlimit:4;stroke-dasharray:none"
       d="m 114.43229,59.34747 c -0.21501,0.563697 -0.3293,1.128209 -0.47247,1.700892 -0.0884,0.353806 -0.24692,0.682834 -0.37798,0.944941 -0.0753,0.150527 -0.0544,2.766026 0,2.929316 0.20386,0.611558 0.56788,1.324276 0.94494,1.889879 0.009,0.01288 0.12289,2.11659 0.0945,2.173364 -0.12657,0.253148 -0.24855,0.497097 -0.37798,0.755952 -0.14573,0.291459 -0.0132,0.573587 -0.37797,0.755954"
       id="path876"
       inkscape:connector-curvature="0" />
    <path
       style="fill:none;stroke:#000000;stroke-width:0.7;stroke-linecap:butt;stroke-linejoin:miter;stroke-opacity:1;opacity:1;stroke-miterlimit:4;stroke-dasharray:none"
       d="m 104.51042,77.395831 c 1.07643,-1.390531 2.40677,-2.501265 3.77976,-3.874254 0.058,-0.05805 0.0624,-0.220202 0.18899,-0.283483 0.1905,-0.09525 1.81325,-0.283482 1.98437,-0.283482"
       id="path878"
       inkscape:connector-curvature="0" />
    <path
       style="fill:none;stroke:#000000;stroke-width:0.7;stroke-linecap:butt;stroke-linejoin:miter;stroke-opacity:1;opacity:1;stroke-miterlimit:4;stroke-dasharray:none"
       d="m 30.427083,99.129462 c 0.287636,-2.225376 -0.595479,-5.045651 0.377976,-6.992559 0.252478,-0.504957 -1.4e-4,-1.511622 0.188989,-1.889881 0.722675,-1.445353 -0.544433,-4.013814 0.188987,-5.480653 0.07968,-0.15937 0.321632,-0.208942 0.377975,-0.377976 0.364594,-1.093777 0.03815,-2.722124 0.566965,-3.779764 0.662348,-1.324694 1.970109,-3.333136 3.02381,-4.91369 0.1975,-0.296249 0.213545,-0.994051 0.377975,-1.322917 0.0828,-0.1656 0.526087,-0.337098 0.755955,-0.566962 0.386085,-0.386088 1.70866,-2.669144 1.889879,-3.212799 0.3943,-1.182899 0.751353,-3.01921 1.700895,-3.96875 0.03471,-0.0347 1.088697,-4.445251 1.322916,-4.913691 0.17775,-0.355502 -0.127285,-0.941059 0,-1.322916 1.605436,-4.816311 -2.571686,-12.111966 -0.188989,-15.686011 0.340336,-0.510505 1.124297,-0.800793 1.700893,-0.944941 1.61431,-0.403579 4.426177,-0.865489 5.669642,0.377976 0.580488,0.580488 3.831288,3.384611 4.346726,3.212799 0.73801,-0.246005 1.450903,-5.419654 1.700895,-5.669646 0.497424,-0.497424 0.259305,-0.896588 0.566962,-1.511903 0.909635,-1.819269 2.47513,-4.450363 4.535715,-5.480656 1.54228,-0.771138 7.596262,-0.301849 8.504465,-0.755951 1.215753,-0.607878 4.252362,-1.039564 5.102678,-1.889882 0.174378,-0.174379 1.681498,0.02604 1.889881,0 0.743125,-0.09289 1.108043,-0.270539 1.700893,-0.566962 0.90837,-0.454187 4.777668,0 6.047618,0 0.256447,0 1.171861,-0.151056 1.322917,0 0.298804,0.298802 12.481993,3.923696 13.418155,4.157736 0.751226,0.187807 4.576534,2.98803 5.480654,3.590774 0.78549,0.523664 4.94363,1.163871 5.29167,1.511906 0.99174,0.991741 2.04178,1.058569 3.40178,1.511904 0.32824,0.109413 0.82868,-0.152628 1.13393,0 1.02647,0.513233 1.94737,0.973682 3.02381,1.511905 0.4693,0.234651 -0.0815,0.161312 0.18899,0.566963 0.17891,0.268364 0.70933,0.520348 0.94494,0.755954 1.05313,1.053126 1.17088,2.682788 2.26786,3.779761 0.25254,0.252545 2.16249,3.390924 2.48046,3.708893"
       id="path880"
       inkscape:connector-curvature="0"
       sodipodi:nodetypes="ccsccccccscscscscsscscccsccccccscccc" />
    <path
       style="fill:none;stroke:#000000;stroke-width:0.7;stroke-linecap:butt;stroke-linejoin:miter;stroke-opacity:1;opacity:1;stroke-miterlimit:4;stroke-dasharray:none"
       d="m 123.21125,54.920625 c 0.27561,0.04175 -0.11024,0.357479 0,0.46772 0.0498,0.0498 0.15065,0.01701 0.20045,0.06682 0.0803,0.0803 0.008,0.236704 0.0668,0.334087 0.4075,0.679167 0.91022,1.152258 1.26953,1.870887 0.0606,0.121177 0.0165,0.275116 0.0668,0.400905 0.12706,0.317648 0.44918,0.564269 0.60135,0.868624 0.28091,0.561814 0.47664,1.412081 1.00226,1.937705 0.11362,0.113618 0.007,0.34135 0.13364,0.467723 0.0315,0.0315 0.10893,-0.03707 0.13364,0 0.2151,0.322654 0.44793,0.782021 0.66817,1.00226 0.60778,0.60778 1.04155,0.994386 1.5368,1.737251 0.24096,0.361437 0.79868,0.397772 1.13589,0.734992 0.23229,0.232285 0.48986,0.720095 0.73499,0.801809 0.5952,0.198398 1.16317,0.695441 1.60362,1.135896 0.5823,0.582295 1.54863,1.76091 1.9377,2.539061 0.0446,0.08928 0.34427,0.249129 0.40091,0.334086 0.60534,0.908005 1.21488,1.694776 1.67044,2.605876 0.0961,0.192236 0.41172,0.366543 0.46772,0.534541 0.10107,0.303207 0.28236,0.572262 0.4009,0.868624 0.10615,0.26538 0.0867,0.707879 0.20045,0.935445 0.15543,0.310846 0.18693,0.600535 0.26727,1.00226 0.0513,0.256492 0.26907,0.543507 0.33409,0.868627 0.1251,0.625488 0.0668,1.296943 0.0668,1.937703"
       id="path882"
       inkscape:connector-curvature="0" />
    <path
       style="fill:none;stroke:#000000;stroke-width:0.7;stroke-linecap:butt;stroke-linejoin:miter;stroke-opacity:1;opacity:1;stroke-miterlimit:4;stroke-dasharray:none"
       d="m 30.427083,99.12946 c 0.255172,-0.09333 0.188989,-1.698511 0.188989,-2.645831 0,-0.373115 -0.138496,-3.288535 0,-3.496278 0.256911,-0.385368 0.168762,-0.769549 0.28348,-1.228423 0.183872,-0.735481 0.678109,-1.484014 0.850448,-2.173365 0.126518,-0.506068 0.715957,-0.959442 0.94494,-1.41741 0.327962,-0.655925 0.608786,-1.731864 0.850445,-2.456844 0.03337,-0.100102 0.28819,-0.337788 0.377979,-0.472471 0.291079,-0.436621 0.25582,-1.234181 0.566962,-1.700893 0.163798,-0.245697 0.465079,-0.639281 0.566965,-0.944941 0.130641,-0.391919 1.42598,-3.118302 1.606399,-3.118302 0.144212,0 -0.234881,0.966533 -0.283482,1.039434 -0.177475,0.266213 -0.455658,1.933932 -0.566965,2.267858 -0.44046,1.321384 -0.09449,6.769367 -0.09449,8.504462 0,1.457108 0.0094,2.693053 0.283482,4.063246 0.09957,0.497869 0.385297,0.988872 0.472469,1.511903 0.181314,1.087879 0.127611,2.083726 0.472472,3.118305 0.18366,0.55099 -0.01868,1.22949 0.09449,1.79539 0.191453,0.95725 0.169058,2.1335 0.566965,2.92931 0.169998,0.34 -0.104947,0.95561 0,1.32292 0.342009,1.19703 1.079738,5.07626 0.661459,6.3311 -0.401847,1.20553 -1.295964,2.35791 -2.078871,3.40178 -0.43003,0.57338 -0.64447,1.36327 -1.039434,1.88989 -0.248024,0.33069 -0.605174,0.57703 -0.850445,0.94494 -0.311804,0.4677 -1.362472,2.29202 -1.511906,2.74032 -0.0498,0.14941 0.05849,0.32625 0,0.47247 -0.2085,0.52126 -0.680797,1.08778 -0.850445,1.51191 -0.04679,0.11698 0.02471,0.25443 0,0.37797 -0.125611,0.62805 -0.594897,1.45931 -0.944941,1.98438 -0.284514,0.42677 -0.377976,2.91748 -0.377976,3.30729"
       id="path884"
       inkscape:connector-curvature="0" />
    <path
       style="fill:none;stroke:#000000;stroke-width:0.7;stroke-linecap:butt;stroke-linejoin:miter;stroke-opacity:1;opacity:1;stroke-miterlimit:4;stroke-dasharray:none"
       d="m 33.734375,128.89509 c 0.08151,-1.31791 0.458864,-2.56457 0.94494,-3.77976 0.271537,-0.67885 0.146921,-1.29122 0.377976,-1.98438 0.07183,-0.21548 0.276397,-0.36381 0.377976,-0.56696 0.411668,-0.82334 0.616178,-1.98831 1.039434,-2.83483 0.285322,-0.57063 1.126387,-1.69335 1.606399,-2.17336 1.040059,-1.04006 1.731817,-2.70768 2.362351,-3.96875 0.314844,-0.62968 0.90347,-1.14548 1.228423,-1.79539 0.334643,-0.66928 0.800471,-1.22296 1.133928,-1.88988 0.341027,-0.68205 0.958252,-3.03712 1.417412,-3.49628"
       id="path886"
       inkscape:connector-curvature="0" />
    <path
       style="fill:none;stroke:#000000;stroke-width:0.7;stroke-linecap:butt;stroke-linejoin:miter;stroke-opacity:1;opacity:1;stroke-miterlimit:4;stroke-dasharray:none"
       d="m 37.608631,130.59598 c 0.134163,-0.72737 0.0446,-1.55122 0.283483,-2.26786 0.170471,-0.51141 0.41429,-1.01756 0.661458,-1.5119 0.07043,-0.14087 -0.01738,-0.31595 0,-0.47247 0.0612,-0.55077 0.285314,-1.05044 0.377976,-1.6064 0.04854,-0.29121 -0.09238,-0.66781 0,-0.94494 0.217233,-0.6517 0.355483,-1.47145 0.472469,-2.17336 0.205835,-1.23501 0.0905,-2.73235 0.566965,-3.68527 0.323424,-0.64685 -0.188989,-1.65359 -0.188989,-2.26786"
       id="path888"
       inkscape:connector-curvature="0" />
    <path
       style="fill:none;stroke:#000000;stroke-width:0.7;stroke-linecap:butt;stroke-linejoin:miter;stroke-opacity:1;opacity:1;stroke-miterlimit:4;stroke-dasharray:none"
       d="m 41.388392,130.218 c -0.686993,-3.40761 -0.427818,-7.57665 0.850448,-10.77232 0.497326,-1.24331 1.265285,-2.44837 1.795385,-3.68527 0.546018,-1.27403 -0.406736,0.65325 0.09449,-0.85044 0.09642,-0.28927 0.601392,-0.84202 0.755954,-1.22842 0.182623,-0.45657 0.252973,-1.16741 0.472469,-1.6064 0.278363,-0.55673 2.834822,-4.12509 2.834822,-4.25224"
       id="path890"
       inkscape:connector-curvature="0" />
    <path
       style="fill:none;stroke:#000000;stroke-width:0.7;stroke-linecap:butt;stroke-linejoin:miter;stroke-opacity:1;opacity:1;stroke-miterlimit:4;stroke-dasharray:none"
       d="m 41.388392,130.218 c -0.06633,-1.73499 0.271791,-2.99457 0.850448,-4.44122 0.280783,-0.70196 0.04733,-1.6539 0.283482,-2.36235 0.324181,-0.97254 0.626753,-2.19845 1.039434,-3.02381 0.08954,-0.17909 0.03034,-0.56348 0.09449,-0.75595 0.03591,-0.10774 0.125992,-0.18899 0.18899,-0.28348 0.06299,-0.0945 0.153074,-0.17574 0.188986,-0.28348 0.330113,-0.99034 0.458153,-2.44253 1.13393,-3.11831 0.134885,-0.13488 0.101666,-0.77029 0.188987,-0.94494 0.06186,-0.12372 0.381857,-0.38185 0.472472,-0.47247 0.132434,-0.13243 0.02871,-0.44775 0.188986,-0.66146 0.152525,-0.20336 0.461875,-0.64027 0.566965,-0.85044 0.10935,-0.2187 0.08143,-0.54083 0.188987,-0.75595 0.154929,-0.30986 0.453064,-0.81163 0.661458,-1.22843 0.08207,-0.16413 0.07552,-0.64248 0.188989,-0.75595 0.0498,-0.0498 0.16283,-0.0291 0.18899,-0.0945 0.04679,-0.11699 -0.05635,-0.26529 0,-0.37798 0.02979,-0.0596 0.381264,-0.14668 0.472469,-0.28348 0.09685,-0.14528 0.01828,-0.41456 0.09449,-0.56697 0.217739,-0.43547 0.574815,-1.25196 0.755954,-1.79538 0.05529,-0.16587 0.490993,-0.58549 0.661459,-0.75596 0.151894,-0.15189 0.268737,-0.59209 0.377975,-0.75595 0.260853,-0.39128 0.712632,-0.73822 1.039435,-1.22842 0.373255,-0.55989 0.364167,-1.10631 0.661458,-1.70089 0.237953,-0.47591 0.332438,-0.0558 0.472469,-0.75596"
       id="path892"
       inkscape:connector-curvature="0" />
    <path
       style="fill:none;stroke:#000000;stroke-width:0.7;stroke-linecap:butt;stroke-linejoin:miter;stroke-opacity:1;opacity:1;stroke-miterlimit:4;stroke-dasharray:none"
       d="m 45.073659,124.17039 c 0.181925,-1.06743 0.901761,-2.01692 1.039435,-3.11831 0.137548,-1.10037 0.735107,-2.06913 0.94494,-3.1183 0.0672,-0.33598 -0.111992,-0.36398 0,-0.75595 0.06028,-0.21099 0.376061,-0.531 0.472472,-0.75596 0.478737,-1.11705 0.866235,-2.43328 1.511903,-3.40178 0.613648,-0.92047 1.627138,-1.62714 2.362351,-2.36235 1.200052,-1.20005 1.513065,-2.36583 1.984375,-3.77976"
       id="path894"
       inkscape:connector-curvature="0" />
    <path
       style="fill:none;stroke:#000000;stroke-width:0.7;stroke-linecap:butt;stroke-linejoin:miter;stroke-opacity:1;opacity:1;stroke-miterlimit:4;stroke-dasharray:none"
       d="m 97.954281,42.693044 c 0.178157,1.202116 0.338754,2.584141 0.801809,3.741772 0.278718,0.696796 0.326636,1.625852 0.668174,2.138156 0.347789,0.521685 -0.09007,2.938497 0.534538,3.875411 0.440608,0.660918 -0.08788,4.814461 0.267268,5.879928 0.35249,1.05747 -0.36005,3.021668 0.13364,4.009043 0.84201,1.684028 0.83721,3.981614 1.46998,5.87993 0.0914,0.274207 -0.0694,0.658048 0,0.935443 0.12139,0.485563 0.54004,1.208217 0.80181,1.469982 0.18583,0.185831 0.0132,0.828183 0.13363,1.069078 0.21883,0.437661 0.37299,0.718051 0.53454,1.202714 0.19528,0.585846 0.0774,7.701524 -0.13363,8.018084 -0.42499,0.637485 -1.46999,3.852172 -1.46999,4.677217"
       id="path896"
       inkscape:connector-curvature="0" />
    <path
       style="fill:none;stroke:#000000;stroke-width:0.7;stroke-linecap:butt;stroke-linejoin:miter;stroke-opacity:1;opacity:1;stroke-miterlimit:4;stroke-dasharray:none"
       d="m 36.749561,99.487817 c -2.996512,-0.141759 -5.835171,0.09796 -8.68626,0.668173 -0.826223,0.16525 -2.43335,-0.386942 -3.207235,0 -0.820141,0.41007 -2.01265,0.48271 -2.939965,0.66818 -2.56421,0.51284 -4.770005,-0.42133 -7.216277,0.8018 -0.830231,0.41512 -1.292623,2.22807 -2.004522,2.93997 -0.130475,0.13047 -0.386316,1.71537 -0.668173,2.13815 -0.07548,0.11322 -0.198629,4.57973 -0.133635,4.67722 0.927775,1.39166 0.873038,3.11363 1.737252,4.40995 0.202618,0.30393 0.133634,2.92221 0.133634,3.4745 0,0.94254 -0.09398,6.37482 -0.400904,6.68174 -0.467487,0.46749 -2.017456,3.90128 -2.405426,4.67722"
       id="path898"
       inkscape:connector-curvature="0" />
    <path
       sodipodi:nodetypes="ccsscsccscccsccscsc"
       inkscape:connector-curvature="0"
       id="path995"
       d="m 12.59823,132.28934 c 0.335037,-1.00511 2.343577,-4.26146 2.636133,-5.13913 0.258866,-0.77659 -0.05424,-1.58908 0.400904,-2.27179 0.308303,-0.46245 -0.114684,-3.26408 0.133635,-4.00904 0.170979,-0.51294 0.373528,-0.98695 0.534539,-1.46998 0.271118,-0.81336 0,-2.20922 0,-3.0736 0,-0.13364 0.09449,-0.30641 0,-0.40091 -0.429761,-0.42976 -0.227942,-1.01008 -0.534539,-1.46998 -1.191517,-1.78727 -1.069078,-4.24882 -1.069078,-6.68174 0,-0.25987 -0.137349,-0.99669 0,-1.20271 0.35408,-0.53112 0.612333,-1.81505 1.069078,-2.27179 0.440096,-0.4401 2.02299,-0.55301 2.138156,-0.66817 0.167534,-0.16754 0.459095,-0.13364 0.801809,-0.13364 2.373973,0 4.603012,3.05883 5.61266,5.07812 0.777288,1.55458 0.898121,2.86532 1.603617,4.27631 0.325208,0.65042 -0.01169,1.94607 0.133635,2.6727 0.102081,0.51041 0.587019,2.21688 0.801808,2.53906 0.402802,0.6042 0.267269,6.32776 0.267269,7.48355 0,1.12075 0.08619,6.41704 0.857859,7.18871"
       style="opacity:1;fill:#1a1a1a;stroke:none;stroke-width:0.7;stroke-linecap:butt;stroke-linejoin:miter;stroke-opacity:1;stroke-miterlimit:4;stroke-dasharray:none" />
    <path
       style="opacity:1;fill:none;stroke:#000000;stroke-width:0.7;stroke-linecap:butt;stroke-linejoin:miter;stroke-opacity:1;stroke-miterlimit:4;stroke-dasharray:none"
       d="m 13.614041,130.5412 c 0.335037,-1.00511 1.327766,-2.51332 1.620322,-3.39099 0.258866,-0.77659 -0.05424,-1.58908 0.400904,-2.27179 0.308303,-0.46245 -0.114684,-3.26408 0.133635,-4.00904 0.170979,-0.51294 0.373528,-0.98695 0.534539,-1.46998 0.271118,-0.81336 0,-2.20922 0,-3.0736 0,-0.13364 0.09449,-0.30641 0,-0.40091 -0.429761,-0.42976 -0.227942,-1.01008 -0.534539,-1.46998 -1.191517,-1.78727 -1.069078,-4.24882 -1.069078,-6.68174 0,-0.25987 -0.137349,-0.99669 0,-1.20271 0.35408,-0.53112 0.612333,-1.81505 1.069078,-2.27179 0.440096,-0.4401 2.02299,-0.55301 2.138156,-0.66817 0.167534,-0.16754 0.459095,-0.13364 0.801809,-0.13364 2.373973,0 4.603012,3.05883 5.61266,5.07812 0.777288,1.55458 0.898121,2.86532 1.603617,4.27631 0.325208,0.65042 -0.01169,1.94607 0.133635,2.6727 0.102081,0.51041 0.587019,2.21688 0.801808,2.53906 0.402802,0.6042 0.267269,6.32776 0.267269,7.48355 0,1.12075 -0.504397,4.17281 0.267271,4.94448"
       id="path900"
       inkscape:connector-curvature="0"
       sodipodi:nodetypes="ccsscsccscccsccscsc" />
    <path
       style="fill:none;stroke:#000000;stroke-width:0.7;stroke-linecap:butt;stroke-linejoin:miter;stroke-opacity:1;opacity:1;stroke-miterlimit:4;stroke-dasharray:none"
       d="m 134.43657,93.607889 c -1.292,0.346839 -2.36259,-0.445937 -3.60814,-0.801809 -0.68625,-0.196073 -1.59847,0.09081 -2.27179,-0.133636 -1.56564,-0.521878 -3.262,-1.087332 -4.81085,-1.603616 -0.2113,-0.07043 -0.46346,0.08774 -0.66817,0 -0.86301,-0.369861 -1.7499,-0.83838 -2.6727,-1.069078 -1.24597,-0.311494 -3.79232,-0.42618 -4.81085,-0.935445 -0.70043,-0.35021 -2.5338,-0.06419 -3.74177,-0.668173 -0.23443,-0.117213 -0.68964,0.08194 -0.93545,0 -0.55912,-0.186373 -1.24392,-0.421508 -1.73725,-0.668174 -0.28762,-0.143809 -0.75958,0.103167 -1.06908,0 -0.82455,-0.274852 -1.95566,-0.30966 -2.67269,-0.668173 -0.26263,-0.131313 -1.1471,0.05562 -1.33635,-0.133636 -0.8118,-0.811795 -2.01546,-0.230015 -2.6727,-0.668173 -0.52528,-0.350187 -1.476871,-0.669552 -2.138152,-0.80181 -0.774173,-0.154834 -1.943997,0.157846 -2.672694,-0.133633 -2.333133,-0.933254 -10.743072,-1.28406 -12.428034,0.400905 -0.244997,0.244996 -1.091351,-0.111363 -1.336347,0.133633 -0.499679,0.499679 -1.603735,0.623708 -2.271792,1.069078 -0.442291,0.294862 -0.741217,0.978194 -1.069078,1.469983 -0.530503,0.795755 0.589888,3.718835 0.935445,4.409948 0.0727,0.145396 -0.109458,0.558718 0,0.668173 0.0996,0.0996 0.283697,0.0555 0.400904,0.133636 0.03236,0.02156 0.230794,0.959651 0.267269,1.069078 0.184997,0.554993 0.68996,0.979014 0.935443,1.469983 0.241083,0.482166 0.115959,1.31867 0.53454,1.737251 0.178178,0.178178 0.12823,-0.283483 0.267269,0.133633 0.198239,0.594723 1.381397,5.123176 1.469982,5.211756 0.40227,0.40227 0.488596,1.95858 0.80181,2.27179 0.316227,0.31623 0.236127,0.70839 0.400902,1.20271 0.985451,2.95636 1.603618,5.28039 1.603618,8.55263 0,0.90869 0.297823,3.04305 -0.267269,3.60814 -0.260019,0.26002 -0.07474,2.26047 -0.133636,2.67269 -0.210058,1.47041 -1.5637,4.77094 -2.53906,5.7463 -0.46649,0.46649 -0.941274,1.60945 -1.469983,2.13815 -0.162205,0.16221 -0.127659,0.6622 -0.267269,0.80181"
       id="path902"
       inkscape:connector-curvature="0" />
    <path
       style="fill:none;stroke:#000000;stroke-width:0.7;stroke-linecap:butt;stroke-linejoin:miter;stroke-opacity:1;opacity:1;stroke-miterlimit:4;stroke-dasharray:none"
       d="m 86.996229,129.55564 c 0,-0.26727 -0.05798,-0.5409 0,-0.80181 0.258313,-1.1624 1.131827,-2.43273 1.737254,-3.34087 0.05439,-0.0816 -0.01759,-0.46421 0,-0.53454 0.107863,-0.43145 1.600052,-3.46915 1.870885,-3.87541 0.551558,-0.82733 0.403458,-3.61834 0.668173,-4.67721 0.279451,-1.1178 -0.09267,-2.34295 0.133636,-3.47451 0.850178,-4.25088 -0.930309,-8.67599 -2.806329,-12.42803 -0.279157,-0.558311 -1.729264,-1.98854 -2.004523,-2.539059 -0.576472,-1.152948 -3.908674,-7.149745 -3.207235,-8.552624 0.151345,-0.302686 0.667714,-0.178028 0.935445,-0.267272 2.995089,-0.998363 3.909431,-0.200041 6.414469,1.469983 0.180771,0.120515 1.475594,0.270076 1.737251,0.400904 0.276347,0.138174 0.239686,0.703525 0.534541,0.80181 0.724273,0.241424 1.150323,0.811426 1.737251,1.202713 0.512702,0.341802 1.439323,0.385575 2.00452,0.668174 0.276757,0.138377 0.799447,0.774136 1.202714,0.935442 0.125857,0.05035 0.644308,0.10977 0.801809,0.267269 0.18917,0.189172 0.442122,0.666178 0.668174,0.801809 0.114591,0.06875 0.271259,-0.03241 0.400904,0 0.711612,0.177906 3.957632,3.865105 4.409942,4.543581 0.30548,0.45821 0.52705,1.27931 0.80181,1.73725 0.0826,0.13773 0.32908,0.12362 0.40091,0.26727 0.0797,0.15937 -0.0564,0.36551 0,0.53454 0.12316,0.3695 0.66952,0.67222 0.80181,1.06908 0.2609,0.78271 0.49886,1.79954 0.93544,2.6727 0.81859,1.63718 1.73933,3.21555 2.13816,4.81085 0.28653,1.14615 1.49364,2.63369 1.73725,3.60814 0.24411,0.97647 0.59531,2.12607 1.06907,3.0736 0.22855,0.45708 0.71818,1.18545 0.80181,1.60361 0.23095,1.15475 1.74162,6.15156 2.40543,6.81537 0.53845,0.53845 -0.0444,3.92031 0.4009,4.81086"
       id="path904"
       inkscape:connector-curvature="0" />
    <path
       style="fill:none;stroke:#000000;stroke-width:0.7;stroke-linecap:butt;stroke-linejoin:miter;stroke-opacity:1;opacity:1;stroke-miterlimit:4;stroke-dasharray:none"
       d="m 73.79985,56.890623 c -0.336989,0.585211 -1.091941,0.710459 -1.795386,0.944941 -0.190817,0.06361 -0.483505,-0.08898 -0.661458,0 -0.680995,0.340497 -1.643306,0.39643 -2.362351,0.755954 -0.690216,0.345107 -0.02487,1.467165 -0.0945,1.606397 -0.226838,0.453678 -0.564322,0.564324 -0.850445,0.850447 -0.05805,0.05806 -0.06243,0.220202 -0.188989,0.283483 -1.232638,0.61632 -3.038322,0.923118 -4.063243,1.606399 -0.258773,0.172513 -0.876586,0.143417 -1.228424,0.377976 -0.0738,0.0492 -3.336761,0.261807 -3.96875,0.472469 -0.07575,0.02524 -0.414893,0.13141 -0.472469,0.188989 -0.08909,0.08909 0,0.251984 0,0.377976 0,0.401182 -0.318841,1.157703 -0.0945,1.606399 0.196874,0.393742 2.463115,0.688776 2.929316,0.377976 0.223446,-0.148963 0.621819,-0.490755 0.850448,-0.566965 0.745916,-0.24864 1.889088,-1.385385 2.645833,-1.889879 0.694169,-0.46278 4.087553,-0.874758 4.441219,-1.228424 0.667171,-0.667168 0.4841,-2.086623 1.322917,-2.645833 0.465598,-0.310399 0.71552,-0.249751 1.228423,-0.377976 1.593877,-0.39847 1.97426,-1.113697 2.645833,-2.456847"
       id="path906"
       inkscape:connector-curvature="0" />
    <path
       style="fill:none;stroke:#000000;stroke-width:0.7;stroke-linecap:butt;stroke-linejoin:miter;stroke-opacity:1;opacity:1;stroke-miterlimit:4;stroke-dasharray:none"
       d="m 46.302083,67.001487 c 1.306033,-0.280374 2.120588,-0.755952 3.496281,-0.755952 0.287414,0 0.427452,0.260972 0.661458,0.377976 0.287832,0.143915 1.396066,0.101608 1.700892,0 0.206132,-0.06871 1.219671,-0.575717 1.41741,-0.377976 0.48473,0.48473 0.0076,1.41741 -0.472469,1.41741 -0.693639,0 -3.36905,0.735367 -3.874256,0.566965 -0.448609,-0.149537 -0.647695,-0.499382 -1.133931,-0.661458 -1.007673,-0.335891 -0.676179,0.328398 -1.795385,-0.566965 z"
       id="path908"
       inkscape:connector-curvature="0" />
    <path
       style="fill:none;stroke:#000000;stroke-width:0.7;stroke-linecap:butt;stroke-linejoin:miter;stroke-opacity:1;opacity:1;stroke-miterlimit:4;stroke-dasharray:none"
       d="m 63.405506,67.09598 c 0.308988,-0.337121 0.729853,-0.514765 0.944941,-0.944941 0.15122,-0.302442 -0.458095,-0.770329 -0.188989,-1.039434 0.820774,-0.820772 4.824155,-1.039434 6.3311,-1.039434 0.724456,0 1.448909,0 2.173364,0 0.220486,0 0.661459,-0.220485 0.661459,0 0,0.149273 -1.15738,0.677093 -1.417413,0.850448 -0.300635,0.200424 -0.497022,0.531992 -0.755951,0.661458 -1.420363,0.710181 -2.860461,0.701503 -4.441219,1.228421 -0.907892,0.30263 -1.905704,-0.417312 -2.74033,0 -0.234918,0.117459 -0.09378,0.165187 -0.566962,0.283482 z"
       id="path910"
       inkscape:connector-curvature="0" />
    <path
       style="fill:none;stroke:#000000;stroke-width:0.7;stroke-linecap:butt;stroke-linejoin:miter;stroke-opacity:1;opacity:1;stroke-miterlimit:4;stroke-dasharray:none"
       d="m 53.253451,69.854309 c -0.306374,0.04549 -0.704667,0.08001 -0.935442,0.23386 -0.134257,0.08951 -0.506097,-0.02061 -0.668173,0.03341 -0.368086,0.122695 -0.790845,-0.0073 -1.102487,0.200454 -0.09393,0.06262 -0.09904,0.199263 -0.200451,0.300677 -0.08971,0.08971 -0.233863,0.127921 -0.233863,0.167042 0,0.437291 0.68892,0.995929 1.035669,1.169305 0.10037,0.05018 0.381625,0 0.501132,0 0.183906,0 0.360418,0.0071 0.467722,-0.100226 0.05534,-0.05534 0.186981,-0.02991 0.23386,-0.100225 0.120235,-0.18035 0.27005,-0.740552 0.400905,-1.002262 0.01781,-0.03563 -0.01781,-0.098 0,-0.133634 0.06262,-0.125248 0.198181,-0.230457 0.267269,-0.334086 0.09138,-0.137065 0.140917,-0.294897 0.233859,-0.434315 z"
       id="path912"
       inkscape:connector-curvature="0" />
    <path
       style="fill:none;stroke:#000000;stroke-width:0.7;stroke-linecap:butt;stroke-linejoin:miter;stroke-opacity:1;opacity:1;stroke-miterlimit:4;stroke-dasharray:none"
       d="m 60.452565,67.946428 c -0.257714,0.262496 -0.502599,0.421119 -0.614211,0.755952 -0.0367,0.110098 0.105018,0.333306 0.02363,0.496093 -0.03762,0.07524 -0.146201,0.127035 -0.188989,0.212611 -0.04188,0.08377 -0.101206,0.379717 -0.02363,0.496094 0.02668,0.04003 0.04558,0.02278 0.09449,0.04725 0.08346,0.04173 0.152604,0.147172 0.236236,0.188989 0.196892,0.09845 0.471694,0.02323 0.661458,0.118118 0.05079,0.0254 0.09095,0.0691 0.14174,0.09449 0.06893,0.03447 0.210182,-7.93e-4 0.283482,0.02363 0.152848,0.05095 0.384969,-0.04026 0.496094,0.07087 0.03017,0.03017 0.57046,0.02479 0.637837,0.04725 0.332951,0.110985 0.712202,0.118819 1.063056,0.188989 0.112844,0.02257 0.221247,-0.0038 0.330729,0.02363 0.08763,0.02191 0.180456,0.07464 0.25986,0.09449 0.157491,0.03937 0.353037,-5.29e-4 0.496094,0.07087 0.09532,0.04766 0.314505,-0.03444 0.401598,0.02363 0.06656,0.04437 0.03027,0.04725 0.0945,0.04725"
       id="path914"
       inkscape:connector-curvature="0" />
    <path
       style="fill:none;stroke:#000000;stroke-width:0.7;stroke-linecap:butt;stroke-linejoin:miter;stroke-opacity:1;opacity:1;stroke-miterlimit:4;stroke-dasharray:none"
       d="m 69.623712,67.782971 c 0.532474,0.0619 1.032015,-0.07054 1.5368,-0.133636 0.268063,-0.03351 0.443725,0.02713 0.634765,-0.100227 0.08571,-0.05714 0.274272,0.04661 0.367495,0 0.183015,-0.09151 0.392565,-0.07935 0.567947,-0.167042 0.02093,-0.01048 0.08091,-0.114316 0.100227,-0.133635 0.08348,-0.08348 0.221681,-0.121455 0.300678,-0.200451 0.03247,-0.03247 0.0079,-0.09543 0.03341,-0.133636 0.122799,-0.184195 0.36956,-0.36956 0.534538,-0.534538 0.05919,-0.05919 0.07322,-0.173442 0.133636,-0.233862 0.30276,-0.302758 0.55154,-0.618358 0.868627,-0.935443"
       id="path916"
       inkscape:connector-curvature="0" />
    <path
       style="fill:none;stroke:#000000;stroke-width:0.7;stroke-linecap:butt;stroke-linejoin:miter;stroke-opacity:1;opacity:1;stroke-miterlimit:4;stroke-dasharray:none"
       d="m 58.231349,59.430798 c -0.364678,0.16947 -0.470826,0.540744 -0.634767,0.868627 -0.08434,0.168685 -0.405197,0.273708 -0.534538,0.467719 -0.164021,0.246031 -0.336307,0.47216 -0.467723,0.734992 -0.09821,0.196426 -0.05003,0.985475 -0.200451,1.135896 -0.04253,0.04253 -0.448654,0.677785 -0.467722,0.734991 -0.07159,0.214773 -0.120441,0.421119 -0.267269,0.567947 -0.16207,0.16207 0.192093,0.676534 0.06682,0.801809 -0.124939,0.124939 -0.313788,0.970124 -0.267272,1.202714 0.03607,0.180329 0.22837,0.295185 0.334087,0.400904 0.05813,0.05813 0.100685,0.201367 0.133636,0.267269 0.05391,0.10782 0.299244,0.299244 0.400905,0.400905 0.146179,0.146179 0.653208,0.257595 0.868627,0.300677 0.103166,0.02064 0.275042,-0.04622 0.367493,0 0.02228,0.01114 0.01114,0.05568 0.03341,0.06682 0.218334,0.109167 0.59436,-0.06021 0.835218,0 0.272163,0.06804 0.579964,0.133633 0.868627,0.133633"
       id="path918"
       inkscape:connector-curvature="0" />
    <path
       style="fill:none;stroke:#000000;stroke-width:0.7;stroke-linecap:butt;stroke-linejoin:miter;stroke-opacity:1;opacity:1;stroke-miterlimit:4;stroke-dasharray:none"
       d="m 54.664805,83.065473 c -0.212579,-0.145724 -0.449501,-0.236669 -0.661458,-0.377975 -0.09884,-0.06589 -1.230503,-0.704546 -1.181174,-0.803199 0.01241,-0.02482 0.810008,-0.04725 0.850445,-0.04725 0.540652,0 2.166268,-0.144108 2.598586,0 0.108204,0.03607 0.10119,0.09449 0.236236,0.09449 0.07842,0 0.68916,0.255781 0.566965,0.377976 -0.08158,0.08158 -0.192638,0.09814 -0.283482,0.188989"
       id="path920"
       inkscape:connector-curvature="0" />
    <path
       style="fill:none;stroke:#000000;stroke-width:0.7;stroke-linecap:butt;stroke-linejoin:miter;stroke-opacity:1;opacity:1;stroke-miterlimit:4;stroke-dasharray:none"
       d="m 55.987722,99.696427 c 0.07875,0 0.15902,-0.01545 0.236236,0 0.124002,0.02479 0.547756,0.203007 0.708705,0.283483 0.327205,0.1636 0.80668,0.02537 1.13393,0.18899 0.224507,0.11225 2.532017,-0.0612 2.69308,-0.14174 0.0315,-0.0157 0.01794,-0.07496 0.04725,-0.0945 0.125513,-0.08367 1.248709,-0.07652 1.41741,-0.188987 0.320636,-0.213757 0.710322,-0.110781 1.086681,-0.236236 0.648824,-0.216273 1.33555,-0.313422 1.937128,-0.614211 0.140782,-0.07039 0.417574,-0.01979 0.566965,-0.09449 0.677122,-0.338561 1.817656,-0.408572 2.267858,-0.708705"
       id="path924"
       inkscape:connector-curvature="0" />
    <path
       style="fill:none;stroke:#000000;stroke-width:0.7;stroke-linecap:butt;stroke-linejoin:miter;stroke-opacity:1;opacity:1;stroke-miterlimit:4;stroke-dasharray:none"
       d="m 79.111778,108.24089 c 1.534237,-0.1046 2.732331,-0.7314 3.942226,-1.33634 0.08214,-0.0411 0.202335,-0.002 0.267271,-0.0668"
       id="path926"
       inkscape:connector-curvature="0" />
    <path
       style="fill:none;stroke:#000000;stroke-width:0.7;stroke-linecap:butt;stroke-linejoin:miter;stroke-opacity:1;opacity:1;stroke-miterlimit:4;stroke-dasharray:none"
       d="m 74.367744,104.83321 c -0.113991,0.32957 0.433363,-0.11073 0.668176,-0.26727 0.147039,-0.098 0.43588,-0.0509 0.601355,-0.13363 0.350822,-0.17542 0.825066,-0.91515 1.00226,-1.26954"
       id="path928"
       inkscape:connector-curvature="0" />
    <path
       style="fill:none;stroke:#000000;stroke-width:0.7;stroke-linecap:butt;stroke-linejoin:miter;stroke-opacity:1;opacity:1;stroke-miterlimit:4;stroke-dasharray:none"
       d="m 83.321275,106.83775 c -0.01955,-0.31971 0.34942,-0.28672 0.494946,-0.43225 0.02109,-0.0211 0.193503,-0.31614 0.212611,-0.35435 0.07547,-0.15093 0.389123,-0.34055 0.425222,-0.44884 0.04225,-0.12676 0.141865,-0.33086 0.236236,-0.42523 0.02365,-0.0237 0.02535,-0.15615 0.04725,-0.18899 0.03593,-0.0539 0.07697,-0.0656 0.09449,-0.11811"
       id="path932"
       inkscape:connector-curvature="0" />
    <path
       style="fill:none;stroke:#000000;stroke-width:0.7;stroke-linecap:butt;stroke-linejoin:miter;stroke-opacity:1;stroke-miterlimit:4;stroke-dasharray:none;opacity:1"
       d="m 44.36674,43.361218 c 0.111363,-0.02228 0.229704,-0.02209 0.334087,-0.06682 0.188741,-0.08089 0.284059,-0.309073 0.467723,-0.400905 0.520774,-0.260387 1.252878,-0.492805 1.737251,-0.734991 0.124061,-0.06203 0.334947,0.04426 0.467723,0 0.92339,-0.307795 2.040747,-0.327967 3.073598,-0.534538 1.32008,-0.264017 3.250314,-1.209161 4.34313,-1.937705 0.270936,-0.180623 0.48237,-0.749638 0.734991,-1.00226 0.01931,-0.01931 0.131773,0.06868 0.267269,-0.06682"
       id="path936"
       inkscape:connector-curvature="0" />
    <path
       inkscape:connector-curvature="0"
       id="path997"
       d="m 86.996229,129.55564 c 0,-0.26727 -0.05798,-0.5409 0,-0.80181 0.258313,-1.1624 1.131827,-2.43273 1.737254,-3.34087 0.05439,-0.0816 -0.01759,-0.46421 0,-0.53454 0.107863,-0.43145 1.600052,-3.46915 1.870885,-3.87541 0.551558,-0.82733 0.403458,-3.61834 0.668173,-4.67721 0.279451,-1.1178 -0.09267,-2.34295 0.133636,-3.47451 0.850178,-4.25088 -0.930309,-8.67599 -2.806329,-12.42803 -0.279157,-0.558311 -1.729264,-1.98854 -2.004523,-2.539059 -0.576472,-1.152948 -3.908674,-7.149745 -3.207235,-8.552624 0.151345,-0.302686 0.667714,-0.178028 0.935445,-0.267272 2.995089,-0.998363 3.909431,-0.200041 6.414469,1.469983 0.180771,0.120515 1.475594,0.270076 1.737251,0.400904 0.276347,0.138174 0.239686,0.703525 0.534541,0.80181 0.724273,0.241424 1.150323,0.811426 1.737251,1.202713 0.512702,0.341802 1.439323,0.385575 2.00452,0.668174 0.276757,0.138377 0.799447,0.774136 1.202714,0.935442 0.125857,0.05035 0.644308,0.10977 0.801809,0.267269 0.18917,0.189172 0.442122,0.666178 0.668174,0.801809 0.114591,0.06875 0.271259,-0.03241 0.400904,0 0.711612,0.177906 3.957632,3.865105 4.409942,4.543581 0.30548,0.45821 0.52705,1.27931 0.80181,1.73725 0.0826,0.13773 0.32908,0.12362 0.40091,0.26727 0.0797,0.15937 -0.0564,0.36551 0,0.53454 0.12316,0.3695 0.66952,0.67222 0.80181,1.06908 0.2609,0.78271 0.49886,1.79954 0.93544,2.6727 0.81859,1.63718 1.73933,3.21555 2.13816,4.81085 0.28653,1.14615 1.49364,2.63369 1.73725,3.60814 0.24411,0.97647 0.59531,2.12607 1.06907,3.0736 0.22855,0.45708 0.71818,1.18545 0.80181,1.60361 0.23095,1.15475 1.74162,6.15156 2.40543,6.81537 0.53845,0.53845 -0.0444,3.92031 0.4009,4.81086"
       style="fill:#1a1a1a;stroke:#000000;stroke-width:0.7;stroke-linecap:butt;stroke-linejoin:miter;stroke-opacity:1;opacity:1;stroke-miterlimit:4;stroke-dasharray:none" />
  </g>
</svg>
